<svg width="42" height="42" viewBox="0 0 42 42" fill="none" xmlns="http://www.w3.org/2000/svg">
<path d="M0.5 9.6C0.5 7.91159 0.500389 6.67536 0.580085 5.69993C0.659303 4.73034 0.814384 4.06255 1.09946 3.50305C1.62677 2.46816 2.46816 1.62677 3.50305 1.09946C4.06255 0.814384 4.73034 0.659303 5.69993 0.580085C6.67536 0.500389 7.91159 0.5 9.6 0.5H32.4C34.0884 0.5 35.3246 0.500389 36.3001 0.580085C37.2697 0.659303 37.9374 0.814384 38.4969 1.09946C39.5318 1.62677 40.3732 2.46816 40.9005 3.50305C41.1856 4.06255 41.3407 4.73034 41.4199 5.69993C41.4996 6.67536 41.5 7.91159 41.5 9.6V32.4C41.5 34.0884 41.4996 35.3246 41.4199 36.3001C41.3407 37.2697 41.1856 37.9374 40.9005 38.4969C40.3732 39.5318 39.5318 40.3732 38.4969 40.9005C37.9374 41.1856 37.2697 41.3407 36.3001 41.4199C35.3246 41.4996 34.0884 41.5 32.4 41.5H9.6C7.91159 41.5 6.67536 41.4996 5.69993 41.4199C4.73034 41.3407 4.06255 41.1856 3.50305 40.9005C2.46816 40.3732 1.62677 39.5318 1.09946 38.4969C0.814384 37.9374 0.659303 37.2697 0.580085 36.3001C0.500389 35.3246 0.5 34.0884 0.5 32.4V9.6Z" fill="white" stroke="#E1E1E1"/>
<path fill-rule="evenodd" clip-rule="evenodd" d="M16 21.5C16.5523 21.5 17 21.9477 17 22.5V27.75C17 28.3023 16.5523 28.75 16 28.75C15.4477 28.75 15 28.3023 15 27.75V22.5C15 21.9477 15.4477 21.5 16 21.5Z" fill="#6D7082"/>
<path fill-rule="evenodd" clip-rule="evenodd" d="M16 13.25C16.5523 13.25 17 13.6977 17 14.25V19.5C17 20.0523 16.5523 20.5 16 20.5C15.4477 20.5 15 20.0523 15 19.5V14.25C15 13.6977 15.4477 13.25 16 13.25Z" fill="#6D7082"/>
<path fill-rule="evenodd" clip-rule="evenodd" d="M21 20C21.5523 20 22 20.4477 22 21V27.75C22 28.3023 21.5523 28.75 21 28.75C20.4477 28.75 20 28.3023 20 27.75V21C20 20.4477 20.4477 20 21 20Z" fill="#6D7082"/>
<path fill-rule="evenodd" clip-rule="evenodd" d="M21 13.25C21.5523 13.25 22 13.6977 22 14.25V18C22 18.5523 21.5523 19 21 19C20.4477 19 20 18.5523 20 18V14.25C20 13.6977 20.4477 13.25 21 13.25Z" fill="#6D7082"/>
<path fill-rule="evenodd" clip-rule="evenodd" d="M26 23C26.5523 23 27 23.4477 27 24V27.75C27 28.3023 26.5523 28.75 26 28.75C25.4477 28.75 25 28.3023 25 27.75V24C25 23.4477 25.4477 23 26 23Z" fill="#6D7082"/>
<path fill-rule="evenodd" clip-rule="evenodd" d="M26 13.25C26.5523 13.25 27 13.6977 27 14.25V21C27 21.5523 26.5523 22 26 22C25.4477 22 25 21.5523 25 21V14.25C25 13.6977 25.4477 13.25 26 13.25Z" fill="#6D7082"/>
<path fill-rule="evenodd" clip-rule="evenodd" d="M12.75 22.5C12.75 21.9477 13.1977 21.5 13.75 21.5H18.25C18.8023 21.5 19.25 21.9477 19.25 22.5C19.25 23.0523 18.8023 23.5 18.25 23.5H13.75C13.1977 23.5 12.75 23.0523 12.75 22.5Z" fill="#6D7082"/>
<path fill-rule="evenodd" clip-rule="evenodd" d="M17.75 18C17.75 17.4477 18.1977 17 18.75 17H23.25C23.8023 17 24.25 17.4477 24.25 18C24.25 18.5523 23.8023 19 23.25 19H18.75C18.1977 19 17.75 18.5523 17.75 18Z" fill="#6D7082"/>
<path fill-rule="evenodd" clip-rule="evenodd" d="M22.75 24C22.75 23.4477 23.1977 23 23.75 23H28.25C28.8023 23 29.25 23.4477 29.25 24C29.25 24.5523 28.8023 25 28.25 25H23.75C23.1977 25 22.75 24.5523 22.75 24Z" fill="#6D7082"/>
</svg>
