<svg width="421" height="45" viewBox="0 0 421 45" fill="none" xmlns="http://www.w3.org/2000/svg">
<path d="M8.17969 13.8281C8.17969 14.8594 7.80729 15.6719 7.0625 16.2656C6.32292 16.8594 5.29167 17.1562 3.96875 17.1562C2.75 17.1562 1.67188 16.9271 0.734375 16.4688V14.2188C1.50521 14.5625 2.15625 14.8047 2.6875 14.9453C3.22396 15.0859 3.71354 15.1562 4.15625 15.1562C4.6875 15.1562 5.09375 15.0547 5.375 14.8516C5.66146 14.6484 5.80469 14.3464 5.80469 13.9453C5.80469 13.7214 5.74219 13.5234 5.61719 13.3516C5.49219 13.1745 5.30729 13.0052 5.0625 12.8438C4.82292 12.6823 4.33073 12.4245 3.58594 12.0703C2.88802 11.7422 2.36458 11.4271 2.01562 11.125C1.66667 10.8229 1.38802 10.4714 1.17969 10.0703C0.971354 9.66927 0.867188 9.20052 0.867188 8.66406C0.867188 7.65365 1.20833 6.85938 1.89062 6.28125C2.57812 5.70312 3.52604 5.41406 4.73438 5.41406C5.32812 5.41406 5.89323 5.48438 6.42969 5.625C6.97135 5.76562 7.53646 5.96354 8.125 6.21875L7.34375 8.10156C6.73438 7.85156 6.22917 7.67708 5.82812 7.57812C5.43229 7.47917 5.04167 7.42969 4.65625 7.42969C4.19792 7.42969 3.84635 7.53646 3.60156 7.75C3.35677 7.96354 3.23438 8.24219 3.23438 8.58594C3.23438 8.79948 3.28385 8.98698 3.38281 9.14844C3.48177 9.30469 3.63802 9.45833 3.85156 9.60938C4.07031 9.75521 4.58333 10.0208 5.39062 10.4062C6.45833 10.9167 7.1901 11.4297 7.58594 11.9453C7.98177 12.4557 8.17969 13.0833 8.17969 13.8281ZM13.7422 15.2578C14.1589 15.2578 14.6589 15.1667 15.2422 14.9844V16.7578C14.6484 17.0234 13.9193 17.1562 13.0547 17.1562C12.1016 17.1562 11.4062 16.9167 10.9688 16.4375C10.5365 15.9531 10.3203 15.2292 10.3203 14.2656V10.0547H9.17969V9.04688L10.4922 8.25L11.1797 6.40625H12.7031V8.26562H15.1484V10.0547H12.7031V14.2656C12.7031 14.6042 12.7969 14.8542 12.9844 15.0156C13.1771 15.1771 13.4297 15.2578 13.7422 15.2578ZM16.6797 15.8828C16.6797 15.4453 16.7969 15.1146 17.0312 14.8906C17.2656 14.6667 17.6068 14.5547 18.0547 14.5547C18.487 14.5547 18.8203 14.6693 19.0547 14.8984C19.2943 15.1276 19.4141 15.4557 19.4141 15.8828C19.4141 16.2943 19.2943 16.6198 19.0547 16.8594C18.8151 17.0938 18.4818 17.2109 18.0547 17.2109C17.6172 17.2109 17.2786 17.0964 17.0391 16.8672C16.7995 16.6328 16.6797 16.3047 16.6797 15.8828ZM35.2188 5.57812V12.9688C35.2188 13.8125 35.0286 14.5521 34.6484 15.1875C34.2734 15.8229 33.7292 16.3099 33.0156 16.6484C32.3021 16.987 31.4583 17.1562 30.4844 17.1562C29.0156 17.1562 27.875 16.7812 27.0625 16.0312C26.25 15.276 25.8438 14.2448 25.8438 12.9375V5.57812H28.2578V12.5703C28.2578 13.4505 28.4349 14.0964 28.7891 14.5078C29.1432 14.9193 29.7292 15.125 30.5469 15.125C31.3385 15.125 31.9115 14.9193 32.2656 14.5078C32.625 14.0911 32.8047 13.4401 32.8047 12.5547V5.57812H35.2188ZM41.5078 15.2578C41.9245 15.2578 42.4245 15.1667 43.0078 14.9844V16.7578C42.4141 17.0234 41.6849 17.1562 40.8203 17.1562C39.8672 17.1562 39.1719 16.9167 38.7344 16.4375C38.3021 15.9531 38.0859 15.2292 38.0859 14.2656V10.0547H36.9453V9.04688L38.2578 8.25L38.9453 6.40625H40.4688V8.26562H42.9141V10.0547H40.4688V14.2656C40.4688 14.6042 40.5625 14.8542 40.75 15.0156C40.9427 15.1771 41.1953 15.2578 41.5078 15.2578ZM44.6797 6.00781C44.6797 5.23177 45.112 4.84375 45.9766 4.84375C46.8411 4.84375 47.2734 5.23177 47.2734 6.00781C47.2734 6.3776 47.1641 6.66667 46.9453 6.875C46.7318 7.07812 46.4089 7.17969 45.9766 7.17969C45.112 7.17969 44.6797 6.78906 44.6797 6.00781ZM47.1641 17H44.7812V8.26562H47.1641V17ZM53.2188 17.1562C50.5 17.1562 49.1406 15.6641 49.1406 12.6797C49.1406 11.1953 49.5104 10.0625 50.25 9.28125C50.9896 8.49479 52.0495 8.10156 53.4297 8.10156C54.4401 8.10156 55.3464 8.29948 56.1484 8.69531L55.4453 10.5391C55.0703 10.388 54.7214 10.2656 54.3984 10.1719C54.0755 10.0729 53.7526 10.0234 53.4297 10.0234C52.1901 10.0234 51.5703 10.9036 51.5703 12.6641C51.5703 14.3724 52.1901 15.2266 53.4297 15.2266C53.888 15.2266 54.3125 15.1667 54.7031 15.0469C55.0938 14.9219 55.4844 14.7292 55.875 14.4688V16.5078C55.4896 16.7526 55.099 16.9219 54.7031 17.0156C54.3125 17.1094 53.8177 17.1562 53.2188 17.1562ZM63.4531 17L62.9922 15.8125H62.9297C62.5286 16.3177 62.1146 16.6693 61.6875 16.8672C61.2656 17.0599 60.7135 17.1562 60.0312 17.1562C59.1927 17.1562 58.5312 16.9167 58.0469 16.4375C57.5677 15.9583 57.3281 15.276 57.3281 14.3906C57.3281 13.4635 57.651 12.7812 58.2969 12.3438C58.9479 11.901 59.9271 11.6562 61.2344 11.6094L62.75 11.5625V11.1797C62.75 10.2943 62.2969 9.85156 61.3906 9.85156C60.6927 9.85156 59.8724 10.0625 58.9297 10.4844L58.1406 8.875C59.1458 8.34896 60.2604 8.08594 61.4844 8.08594C62.6562 8.08594 63.5547 8.34115 64.1797 8.85156C64.8047 9.36198 65.1172 10.138 65.1172 11.1797V17H63.4531ZM62.75 12.9531L61.8281 12.9844C61.1354 13.0052 60.6198 13.1302 60.2812 13.3594C59.9427 13.5885 59.7734 13.9375 59.7734 14.4062C59.7734 15.0781 60.1589 15.4141 60.9297 15.4141C61.4818 15.4141 61.9219 15.2552 62.25 14.9375C62.5833 14.6198 62.75 14.1979 62.75 13.6719V12.9531ZM69.9141 15.3203C69.6432 16.3724 69.1849 17.6198 68.5391 19.0625H66.8203C67.1589 17.6771 67.4219 16.3698 67.6094 15.1406H69.7969L69.9141 15.3203ZM78.9844 10.9531H79.7812C80.526 10.9531 81.0833 10.8073 81.4531 10.5156C81.8229 10.2188 82.0078 9.78906 82.0078 9.22656C82.0078 8.65885 81.8516 8.23958 81.5391 7.96875C81.2318 7.69792 80.7474 7.5625 80.0859 7.5625H78.9844V10.9531ZM84.4531 9.14062C84.4531 10.3698 84.0677 11.3099 83.2969 11.9609C82.5312 12.612 81.4401 12.9375 80.0234 12.9375H78.9844V17H76.5625V5.57812H80.2109C81.5964 5.57812 82.6484 5.8776 83.3672 6.47656C84.0911 7.07031 84.4531 7.95833 84.4531 9.14062ZM90.0391 9.79688C89.5339 9.79688 89.138 9.95833 88.8516 10.2812C88.5651 10.599 88.401 11.0521 88.3594 11.6406H91.7031C91.6927 11.0521 91.5391 10.599 91.2422 10.2812C90.9453 9.95833 90.5443 9.79688 90.0391 9.79688ZM90.375 17.1562C88.9688 17.1562 87.8698 16.7682 87.0781 15.9922C86.2865 15.2161 85.8906 14.1172 85.8906 12.6953C85.8906 11.2318 86.2552 10.1016 86.9844 9.30469C87.7188 8.5026 88.7318 8.10156 90.0234 8.10156C91.2578 8.10156 92.2188 8.45312 92.9062 9.15625C93.5938 9.85938 93.9375 10.8307 93.9375 12.0703V13.2266H88.3047C88.3307 13.9036 88.5312 14.4323 88.9062 14.8125C89.2812 15.1927 89.8073 15.3828 90.4844 15.3828C91.0104 15.3828 91.5078 15.3281 91.9766 15.2188C92.4453 15.1094 92.9349 14.9349 93.4453 14.6953V16.5391C93.0286 16.7474 92.5833 16.901 92.1094 17C91.6354 17.1042 91.0573 17.1562 90.375 17.1562ZM103.938 17H101.555V11.8984C101.555 11.2682 101.443 10.7969 101.219 10.4844C100.995 10.1667 100.638 10.0078 100.148 10.0078C99.4818 10.0078 99 10.2318 98.7031 10.6797C98.4062 11.1224 98.2578 11.8594 98.2578 12.8906V17H95.875V8.26562H97.6953L98.0156 9.38281H98.1484C98.4141 8.96094 98.7786 8.64323 99.2422 8.42969C99.7109 8.21094 100.242 8.10156 100.836 8.10156C101.852 8.10156 102.622 8.3776 103.148 8.92969C103.674 9.47656 103.938 10.2682 103.938 11.3047V17ZM114.453 17H112.07V11.8984C112.07 11.2682 111.958 10.7969 111.734 10.4844C111.51 10.1667 111.154 10.0078 110.664 10.0078C109.997 10.0078 109.516 10.2318 109.219 10.6797C108.922 11.1224 108.773 11.8594 108.773 12.8906V17H106.391V8.26562H108.211L108.531 9.38281H108.664C108.93 8.96094 109.294 8.64323 109.758 8.42969C110.227 8.21094 110.758 8.10156 111.352 8.10156C112.367 8.10156 113.138 8.3776 113.664 8.92969C114.19 9.47656 114.453 10.2682 114.453 11.3047V17ZM123 14.4062C123 15.3021 122.688 15.9844 122.062 16.4531C121.443 16.9219 120.513 17.1562 119.273 17.1562C118.638 17.1562 118.096 17.112 117.648 17.0234C117.201 16.9401 116.781 16.8151 116.391 16.6484V14.6797C116.833 14.888 117.331 15.0625 117.883 15.2031C118.44 15.3438 118.93 15.4141 119.352 15.4141C120.216 15.4141 120.648 15.1641 120.648 14.6641C120.648 14.4766 120.591 14.3255 120.477 14.2109C120.362 14.0911 120.164 13.9583 119.883 13.8125C119.602 13.6615 119.227 13.487 118.758 13.2891C118.086 13.0078 117.591 12.7474 117.273 12.5078C116.961 12.2682 116.732 11.9948 116.586 11.6875C116.445 11.375 116.375 10.9922 116.375 10.5391C116.375 9.76302 116.674 9.16406 117.273 8.74219C117.878 8.3151 118.732 8.10156 119.836 8.10156C120.888 8.10156 121.911 8.33073 122.906 8.78906L122.188 10.5078C121.75 10.3203 121.341 10.1667 120.961 10.0469C120.581 9.92708 120.193 9.86719 119.797 9.86719C119.094 9.86719 118.742 10.0573 118.742 10.4375C118.742 10.651 118.854 10.8359 119.078 10.9922C119.307 11.1484 119.805 11.3802 120.57 11.6875C121.253 11.9635 121.753 12.2214 122.07 12.4609C122.388 12.7005 122.622 12.9766 122.773 13.2891C122.924 13.6016 123 13.974 123 14.4062ZM123.609 8.26562H126.219L127.867 13.1797C128.008 13.6068 128.104 14.112 128.156 14.6953H128.203C128.26 14.1589 128.372 13.6536 128.539 13.1797L130.156 8.26562H132.711L129.016 18.1172C128.677 19.0286 128.193 19.7109 127.562 20.1641C126.938 20.6172 126.206 20.8438 125.367 20.8438C124.956 20.8438 124.552 20.7995 124.156 20.7109V18.8203C124.443 18.888 124.755 18.9219 125.094 18.9219C125.516 18.9219 125.883 18.7917 126.195 18.5312C126.513 18.276 126.76 17.888 126.938 17.3672L127.078 16.9375L123.609 8.26562ZM136.352 17H133.969V4.84375H136.352V17ZM140.938 17L137.609 8.26562H140.102L141.789 13.2422C141.977 13.8724 142.094 14.4688 142.141 15.0312H142.188C142.214 14.5312 142.331 13.9349 142.539 13.2422L144.219 8.26562H146.711L143.383 17H140.938ZM153.516 17L153.055 15.8125H152.992C152.591 16.3177 152.177 16.6693 151.75 16.8672C151.328 17.0599 150.776 17.1562 150.094 17.1562C149.255 17.1562 148.594 16.9167 148.109 16.4375C147.63 15.9583 147.391 15.276 147.391 14.3906C147.391 13.4635 147.714 12.7812 148.359 12.3438C149.01 11.901 149.99 11.6562 151.297 11.6094L152.812 11.5625V11.1797C152.812 10.2943 152.359 9.85156 151.453 9.85156C150.755 9.85156 149.935 10.0625 148.992 10.4844L148.203 8.875C149.208 8.34896 150.323 8.08594 151.547 8.08594C152.719 8.08594 153.617 8.34115 154.242 8.85156C154.867 9.36198 155.18 10.138 155.18 11.1797V17H153.516ZM152.812 12.9531L151.891 12.9844C151.198 13.0052 150.682 13.1302 150.344 13.3594C150.005 13.5885 149.836 13.9375 149.836 14.4062C149.836 15.0781 150.221 15.4141 150.992 15.4141C151.544 15.4141 151.984 15.2552 152.312 14.9375C152.646 14.6198 152.812 14.1979 152.812 13.6719V12.9531ZM165.703 17H163.32V11.8984C163.32 11.2682 163.208 10.7969 162.984 10.4844C162.76 10.1667 162.404 10.0078 161.914 10.0078C161.247 10.0078 160.766 10.2318 160.469 10.6797C160.172 11.1224 160.023 11.8594 160.023 12.8906V17H157.641V8.26562H159.461L159.781 9.38281H159.914C160.18 8.96094 160.544 8.64323 161.008 8.42969C161.477 8.21094 162.008 8.10156 162.602 8.10156C163.617 8.10156 164.388 8.3776 164.914 8.92969C165.44 9.47656 165.703 10.2682 165.703 11.3047V17ZM168.055 6.00781C168.055 5.23177 168.487 4.84375 169.352 4.84375C170.216 4.84375 170.648 5.23177 170.648 6.00781C170.648 6.3776 170.539 6.66667 170.32 6.875C170.107 7.07812 169.784 7.17969 169.352 7.17969C168.487 7.17969 168.055 6.78906 168.055 6.00781ZM170.539 17H168.156V8.26562H170.539V17ZM178.594 17L178.133 15.8125H178.07C177.669 16.3177 177.255 16.6693 176.828 16.8672C176.406 17.0599 175.854 17.1562 175.172 17.1562C174.333 17.1562 173.672 16.9167 173.188 16.4375C172.708 15.9583 172.469 15.276 172.469 14.3906C172.469 13.4635 172.792 12.7812 173.438 12.3438C174.089 11.901 175.068 11.6562 176.375 11.6094L177.891 11.5625V11.1797C177.891 10.2943 177.438 9.85156 176.531 9.85156C175.833 9.85156 175.013 10.0625 174.07 10.4844L173.281 8.875C174.286 8.34896 175.401 8.08594 176.625 8.08594C177.797 8.08594 178.695 8.34115 179.32 8.85156C179.945 9.36198 180.258 10.138 180.258 11.1797V17H178.594ZM177.891 12.9531L176.969 12.9844C176.276 13.0052 175.76 13.1302 175.422 13.3594C175.083 13.5885 174.914 13.9375 174.914 14.4062C174.914 15.0781 175.299 15.4141 176.07 15.4141C176.622 15.4141 177.062 15.2552 177.391 14.9375C177.724 14.6198 177.891 14.1979 177.891 13.6719V12.9531ZM190.422 9.70312C191.526 9.70312 192.404 10.013 193.055 10.6328C193.711 11.2526 194.039 12.1016 194.039 13.1797C194.039 14.4557 193.646 15.4375 192.859 16.125C192.073 16.8125 190.948 17.1562 189.484 17.1562C188.214 17.1562 187.188 16.9505 186.406 16.5391V14.4531C186.818 14.6719 187.297 14.8516 187.844 14.9922C188.391 15.1276 188.909 15.1953 189.398 15.1953C190.872 15.1953 191.609 14.5911 191.609 13.3828C191.609 12.2318 190.846 11.6562 189.32 11.6562C189.044 11.6562 188.74 11.6849 188.406 11.7422C188.073 11.7943 187.802 11.8516 187.594 11.9141L186.633 11.3984L187.062 5.57812H193.258V7.625H189.18L188.969 9.86719L189.242 9.8125C189.56 9.73958 189.953 9.70312 190.422 9.70312ZM196.539 17L200.828 7.625H195.195V5.59375H203.391V7.10938L199.07 17H196.539ZM208.484 5.42969C209.578 5.42969 210.458 5.67969 211.125 6.17969C211.797 6.67448 212.133 7.34375 212.133 8.1875C212.133 8.77083 211.971 9.29167 211.648 9.75C211.326 10.2031 210.805 10.6094 210.086 10.9688C210.94 11.4271 211.552 11.9062 211.922 12.4062C212.297 12.901 212.484 13.4453 212.484 14.0391C212.484 14.9766 212.117 15.7318 211.383 16.3047C210.648 16.8724 209.682 17.1562 208.484 17.1562C207.234 17.1562 206.253 16.8906 205.539 16.3594C204.826 15.8281 204.469 15.0755 204.469 14.1016C204.469 13.4505 204.641 12.8724 204.984 12.3672C205.333 11.862 205.891 11.4167 206.656 11.0312C206.005 10.6198 205.536 10.1797 205.25 9.71094C204.964 9.24219 204.82 8.72917 204.82 8.17188C204.82 7.35417 205.159 6.69271 205.836 6.1875C206.513 5.68229 207.396 5.42969 208.484 5.42969ZM206.703 13.9609C206.703 14.4089 206.859 14.7578 207.172 15.0078C207.484 15.2578 207.911 15.3828 208.453 15.3828C209.052 15.3828 209.5 15.2552 209.797 15C210.094 14.7396 210.242 14.3984 210.242 13.9766C210.242 13.6276 210.094 13.3021 209.797 13C209.505 12.6927 209.029 12.3672 208.367 12.0234C207.258 12.5339 206.703 13.1797 206.703 13.9609ZM208.469 7.19531C208.057 7.19531 207.724 7.30208 207.469 7.51562C207.219 7.72396 207.094 8.00521 207.094 8.35938C207.094 8.67188 207.193 8.95312 207.391 9.20312C207.594 9.44792 207.958 9.70052 208.484 9.96094C208.995 9.72135 209.352 9.47656 209.555 9.22656C209.758 8.97656 209.859 8.6875 209.859 8.35938C209.859 8 209.729 7.71615 209.469 7.50781C209.208 7.29948 208.875 7.19531 208.469 7.19531ZM213.609 12.1484C213.609 9.88802 214.086 8.20573 215.039 7.10156C215.997 5.9974 217.43 5.44531 219.336 5.44531C219.987 5.44531 220.497 5.48438 220.867 5.5625V7.49219C220.404 7.38802 219.945 7.33594 219.492 7.33594C218.664 7.33594 217.987 7.46094 217.461 7.71094C216.94 7.96094 216.549 8.33073 216.289 8.82031C216.029 9.3099 215.875 10.0052 215.828 10.9062H215.93C216.445 10.0208 217.271 9.57812 218.406 9.57812C219.427 9.57812 220.227 9.89844 220.805 10.5391C221.383 11.1797 221.672 12.0651 221.672 13.1953C221.672 14.4141 221.328 15.3802 220.641 16.0938C219.953 16.8021 219 17.1562 217.781 17.1562C216.938 17.1562 216.201 16.9609 215.57 16.5703C214.945 16.1797 214.461 15.6094 214.117 14.8594C213.779 14.1094 213.609 13.2057 213.609 12.1484ZM217.734 15.2266C218.25 15.2266 218.646 15.0547 218.922 14.7109C219.198 14.362 219.336 13.8672 219.336 13.2266C219.336 12.6693 219.206 12.2318 218.945 11.9141C218.69 11.5911 218.302 11.4297 217.781 11.4297C217.292 11.4297 216.872 11.5885 216.523 11.9062C216.18 12.224 216.008 12.5938 216.008 13.0156C216.008 13.6354 216.169 14.1589 216.492 14.5859C216.82 15.013 217.234 15.2266 217.734 15.2266ZM223.961 17L228.25 7.625H222.617V5.59375H230.812V7.10938L226.492 17H223.961ZM239.508 8.13281C239.508 8.84635 239.292 9.45312 238.859 9.95312C238.427 10.4531 237.82 10.7969 237.039 10.9844V11.0312C237.961 11.1458 238.659 11.4271 239.133 11.875C239.607 12.3177 239.844 12.9167 239.844 13.6719C239.844 14.7708 239.445 15.6276 238.648 16.2422C237.852 16.8516 236.714 17.1562 235.234 17.1562C233.995 17.1562 232.896 16.9505 231.938 16.5391V14.4844C232.38 14.7083 232.867 14.8906 233.398 15.0312C233.93 15.1719 234.456 15.2422 234.977 15.2422C235.773 15.2422 236.362 15.1068 236.742 14.8359C237.122 14.5651 237.312 14.1302 237.312 13.5312C237.312 12.9948 237.094 12.6146 236.656 12.3906C236.219 12.1667 235.521 12.0547 234.562 12.0547H233.695V10.2031H234.578C235.464 10.2031 236.109 10.0885 236.516 9.85938C236.927 9.625 237.133 9.22656 237.133 8.66406C237.133 7.79948 236.591 7.36719 235.508 7.36719C235.133 7.36719 234.75 7.42969 234.359 7.55469C233.974 7.67969 233.544 7.89583 233.07 8.20312L231.953 6.53906C232.995 5.78906 234.237 5.41406 235.68 5.41406C236.862 5.41406 237.794 5.65365 238.477 6.13281C239.164 6.61198 239.508 7.27865 239.508 8.13281ZM245.266 9.70312C246.37 9.70312 247.247 10.013 247.898 10.6328C248.555 11.2526 248.883 12.1016 248.883 13.1797C248.883 14.4557 248.49 15.4375 247.703 16.125C246.917 16.8125 245.792 17.1562 244.328 17.1562C243.057 17.1562 242.031 16.9505 241.25 16.5391V14.4531C241.661 14.6719 242.141 14.8516 242.688 14.9922C243.234 15.1276 243.753 15.1953 244.242 15.1953C245.716 15.1953 246.453 14.5911 246.453 13.3828C246.453 12.2318 245.69 11.6562 244.164 11.6562C243.888 11.6562 243.583 11.6849 243.25 11.7422C242.917 11.7943 242.646 11.8516 242.438 11.9141L241.477 11.3984L241.906 5.57812H248.102V7.625H244.023L243.812 9.86719L244.086 9.8125C244.404 9.73958 244.797 9.70312 245.266 9.70312ZM256.219 17H253.805V10.3906L253.828 9.30469L253.867 8.11719C253.466 8.51823 253.188 8.78125 253.031 8.90625L251.719 9.96094L250.555 8.50781L254.234 5.57812H256.219V17ZM260.523 17L264.812 7.625H259.18V5.59375H267.375V7.10938L263.055 17H260.523ZM284.609 17H281.852L280.305 11C280.247 10.7865 280.148 10.3464 280.008 9.67969C279.872 9.00781 279.794 8.55729 279.773 8.32812C279.742 8.60938 279.664 9.0625 279.539 9.6875C279.414 10.3073 279.318 10.75 279.25 11.0156L277.711 17H274.961L272.047 5.57812H274.43L275.891 11.8125C276.146 12.9635 276.331 13.9609 276.445 14.8047C276.477 14.5078 276.547 14.0495 276.656 13.4297C276.771 12.8047 276.878 12.3203 276.977 11.9766L278.641 5.57812H280.93L282.594 11.9766C282.667 12.263 282.758 12.7005 282.867 13.2891C282.977 13.8776 283.06 14.3828 283.117 14.8047C283.169 14.3984 283.253 13.8932 283.367 13.2891C283.482 12.6797 283.586 12.1875 283.68 11.8125L285.133 5.57812H287.516L284.609 17ZM288.43 15.8828C288.43 15.4453 288.547 15.1146 288.781 14.8906C289.016 14.6667 289.357 14.5547 289.805 14.5547C290.237 14.5547 290.57 14.6693 290.805 14.8984C291.044 15.1276 291.164 15.4557 291.164 15.8828C291.164 16.2943 291.044 16.6198 290.805 16.8594C290.565 17.0938 290.232 17.2109 289.805 17.2109C289.367 17.2109 289.029 17.0964 288.789 16.8672C288.549 16.6328 288.43 16.3047 288.43 15.8828ZM302.008 10.5859H306.539V16.5078C305.805 16.7474 305.112 16.9141 304.461 17.0078C303.815 17.1068 303.154 17.1562 302.477 17.1562C300.753 17.1562 299.435 16.651 298.523 15.6406C297.617 14.625 297.164 13.1693 297.164 11.2734C297.164 9.42969 297.69 7.99219 298.742 6.96094C299.799 5.92969 301.263 5.41406 303.133 5.41406C304.305 5.41406 305.435 5.64844 306.523 6.11719L305.719 8.05469C304.885 7.63802 304.018 7.42969 303.117 7.42969C302.07 7.42969 301.232 7.78125 300.602 8.48438C299.971 9.1875 299.656 10.1328 299.656 11.3203C299.656 12.5599 299.909 13.5078 300.414 14.1641C300.924 14.8151 301.664 15.1406 302.633 15.1406C303.138 15.1406 303.651 15.0885 304.172 14.9844V12.6016H302.008V10.5859ZM313.953 8.10156C314.276 8.10156 314.544 8.125 314.758 8.17188L314.578 10.4062C314.385 10.3542 314.151 10.3281 313.875 10.3281C313.115 10.3281 312.521 10.5234 312.094 10.9141C311.672 11.3047 311.461 11.8516 311.461 12.5547V17H309.078V8.26562H310.883L311.234 9.73438H311.352C311.622 9.24479 311.987 8.85156 312.445 8.55469C312.909 8.2526 313.411 8.10156 313.953 8.10156ZM321.891 17L321.43 15.8125H321.367C320.966 16.3177 320.552 16.6693 320.125 16.8672C319.703 17.0599 319.151 17.1562 318.469 17.1562C317.63 17.1562 316.969 16.9167 316.484 16.4375C316.005 15.9583 315.766 15.276 315.766 14.3906C315.766 13.4635 316.089 12.7812 316.734 12.3438C317.385 11.901 318.365 11.6562 319.672 11.6094L321.188 11.5625V11.1797C321.188 10.2943 320.734 9.85156 319.828 9.85156C319.13 9.85156 318.31 10.0625 317.367 10.4844L316.578 8.875C317.583 8.34896 318.698 8.08594 319.922 8.08594C321.094 8.08594 321.992 8.34115 322.617 8.85156C323.242 9.36198 323.555 10.138 323.555 11.1797V17H321.891ZM321.188 12.9531L320.266 12.9844C319.573 13.0052 319.057 13.1302 318.719 13.3594C318.38 13.5885 318.211 13.9375 318.211 14.4062C318.211 15.0781 318.596 15.4141 319.367 15.4141C319.919 15.4141 320.359 15.2552 320.688 14.9375C321.021 14.6198 321.188 14.1979 321.188 13.6719V12.9531ZM324.766 8.26562H327.375L329.023 13.1797C329.164 13.6068 329.26 14.112 329.312 14.6953H329.359C329.417 14.1589 329.529 13.6536 329.695 13.1797L331.312 8.26562H333.867L330.172 18.1172C329.833 19.0286 329.349 19.7109 328.719 20.1641C328.094 20.6172 327.362 20.8438 326.523 20.8438C326.112 20.8438 325.708 20.7995 325.312 20.7109V18.8203C325.599 18.888 325.911 18.9219 326.25 18.9219C326.672 18.9219 327.039 18.7917 327.352 18.5312C327.669 18.276 327.917 17.888 328.094 17.3672L328.234 16.9375L324.766 8.26562Z" fill="#393939"/>
<path d="M7.72461 38.7031H6.24121V41H5.1543V38.7031H0.293945V37.7119L5.03809 30.9512H6.24121V37.6709H7.72461V38.7031ZM5.1543 37.6709V34.3486C5.1543 33.6969 5.17708 32.9609 5.22266 32.1406H5.16797C4.94922 32.5781 4.74414 32.9404 4.55273 33.2275L1.42871 37.6709H5.1543ZM15.2646 41H8.69531V40.0225L11.3271 37.377C12.1292 36.5658 12.6579 35.987 12.9131 35.6406C13.1683 35.2943 13.3597 34.957 13.4873 34.6289C13.6149 34.3008 13.6787 33.9476 13.6787 33.5693C13.6787 33.0361 13.5169 32.6146 13.1934 32.3047C12.8698 31.9902 12.4209 31.833 11.8467 31.833C11.432 31.833 11.0378 31.9014 10.6641 32.0381C10.2949 32.1748 9.88249 32.4232 9.42676 32.7832L8.8252 32.0107C9.74577 31.2451 10.7484 30.8623 11.833 30.8623C12.7718 30.8623 13.5078 31.1038 14.041 31.5869C14.5742 32.0654 14.8408 32.7103 14.8408 33.5215C14.8408 34.1549 14.6631 34.7816 14.3076 35.4014C13.9521 36.0212 13.2868 36.805 12.3115 37.7529L10.124 39.8926V39.9473H15.2646V41ZM25.457 41L22.0664 32.1406H22.0117C22.0755 32.8424 22.1074 33.6764 22.1074 34.6426V41H21.0342V31.0059H22.7842L25.9492 39.25H26.0039L29.1963 31.0059H30.9326V41H29.7705V34.5605C29.7705 33.8223 29.8024 33.0202 29.8662 32.1543H29.8115L26.3936 41H25.457ZM38.1172 41L37.8916 39.9336H37.8369C37.4632 40.403 37.0895 40.722 36.7158 40.8906C36.3467 41.0547 35.8841 41.1367 35.3281 41.1367C34.5853 41.1367 34.002 40.9453 33.5781 40.5625C33.1589 40.1797 32.9492 39.6351 32.9492 38.9287C32.9492 37.4157 34.1592 36.6227 36.5791 36.5498L37.8506 36.5088V36.0439C37.8506 35.4561 37.723 35.0231 37.4678 34.7451C37.2171 34.4626 36.8138 34.3213 36.2578 34.3213C35.6335 34.3213 34.9271 34.5127 34.1387 34.8955L33.79 34.0273C34.1592 33.8268 34.5625 33.6696 35 33.5557C35.4421 33.4417 35.8841 33.3848 36.3262 33.3848C37.2194 33.3848 37.8802 33.583 38.3086 33.9795C38.7415 34.376 38.958 35.0117 38.958 35.8867V41H38.1172ZM35.5537 40.2002C36.2601 40.2002 36.8138 40.0065 37.2148 39.6191C37.6204 39.2318 37.8232 38.6895 37.8232 37.9922V37.3154L36.6885 37.3633C35.7861 37.3952 35.1344 37.5365 34.7334 37.7871C34.3369 38.0332 34.1387 38.4183 34.1387 38.9424C34.1387 39.3525 34.2617 39.6647 34.5078 39.8789C34.7585 40.0931 35.1071 40.2002 35.5537 40.2002ZM42.4375 41H41.3027V33.5078H42.4375V41ZM41.207 31.4775C41.207 31.2178 41.2708 31.0286 41.3984 30.9102C41.526 30.7871 41.6855 30.7256 41.877 30.7256C42.0592 30.7256 42.2165 30.7871 42.3486 30.9102C42.4808 31.0332 42.5469 31.2223 42.5469 31.4775C42.5469 31.7327 42.4808 31.9242 42.3486 32.0518C42.2165 32.1748 42.0592 32.2363 41.877 32.2363C41.6855 32.2363 41.526 32.1748 41.3984 32.0518C41.2708 31.9242 41.207 31.7327 41.207 31.4775ZM49.9707 41V36.1533C49.9707 35.5426 49.8317 35.0869 49.5537 34.7861C49.2757 34.4854 48.8405 34.335 48.248 34.335C47.4642 34.335 46.89 34.5469 46.5254 34.9707C46.1608 35.3945 45.9785 36.0941 45.9785 37.0693V41H44.8438V33.5078H45.7666L45.9512 34.5332H46.0059C46.2383 34.1641 46.5641 33.8792 46.9834 33.6787C47.4027 33.4736 47.8698 33.3711 48.3848 33.3711C49.2871 33.3711 49.9661 33.5898 50.4219 34.0273C50.8776 34.4603 51.1055 35.1553 51.1055 36.1123V41H49.9707ZM62.8906 38.3408C62.8906 39.2204 62.5716 39.9062 61.9336 40.3984C61.2956 40.8906 60.4297 41.1367 59.3359 41.1367C58.151 41.1367 57.2396 40.984 56.6016 40.6787V39.5576C57.0117 39.7308 57.4583 39.8675 57.9414 39.9678C58.4245 40.068 58.903 40.1182 59.377 40.1182C60.1517 40.1182 60.735 39.9723 61.127 39.6807C61.5189 39.3844 61.7148 38.9743 61.7148 38.4502C61.7148 38.1038 61.6442 37.8213 61.5029 37.6025C61.3662 37.3792 61.1338 37.1742 60.8057 36.9873C60.4821 36.8005 59.9876 36.5885 59.3223 36.3516C58.3926 36.0189 57.7272 35.6247 57.3262 35.1689C56.9297 34.7132 56.7314 34.1185 56.7314 33.3848C56.7314 32.6146 57.0208 32.0016 57.5996 31.5459C58.1784 31.0902 58.944 30.8623 59.8965 30.8623C60.89 30.8623 61.8037 31.0446 62.6377 31.4092L62.2754 32.4209C61.4505 32.0745 60.6484 31.9014 59.8691 31.9014C59.2539 31.9014 58.7731 32.0335 58.4268 32.2979C58.0804 32.5622 57.9072 32.929 57.9072 33.3984C57.9072 33.7448 57.971 34.0296 58.0986 34.2529C58.2262 34.4717 58.4404 34.6745 58.7412 34.8613C59.0465 35.0436 59.5114 35.2464 60.1357 35.4697C61.1839 35.8434 61.904 36.2445 62.2959 36.6729C62.6924 37.1012 62.8906 37.6572 62.8906 38.3408ZM67.1836 40.2002C67.3841 40.2002 67.5778 40.1865 67.7646 40.1592C67.9515 40.1273 68.0996 40.0954 68.209 40.0635V40.9316C68.0859 40.9909 67.9036 41.0387 67.6621 41.0752C67.4251 41.1162 67.2109 41.1367 67.0195 41.1367C65.5703 41.1367 64.8457 40.3734 64.8457 38.8467V34.3896H63.7725V33.8428L64.8457 33.3711L65.3242 31.7715H65.9805V33.5078H68.1543V34.3896H65.9805V38.7988C65.9805 39.25 66.0876 39.5964 66.3018 39.8379C66.516 40.0794 66.8099 40.2002 67.1836 40.2002ZM73.1309 33.3711C73.4635 33.3711 73.762 33.3984 74.0264 33.4531L73.8691 34.5059C73.5592 34.4375 73.2858 34.4033 73.0488 34.4033C72.4427 34.4033 71.9232 34.6494 71.4902 35.1416C71.0618 35.6338 70.8477 36.2467 70.8477 36.9805V41H69.7129V33.5078H70.6494L70.7793 34.8955H70.834C71.112 34.4079 71.4469 34.0319 71.8389 33.7676C72.2308 33.5033 72.6615 33.3711 73.1309 33.3711ZM78.5928 41.1367C77.4854 41.1367 76.6104 40.7995 75.9678 40.125C75.3298 39.4505 75.0107 38.514 75.0107 37.3154C75.0107 36.1077 75.307 35.1484 75.8994 34.4375C76.4964 33.7266 77.2962 33.3711 78.2988 33.3711C79.2376 33.3711 79.9805 33.681 80.5273 34.3008C81.0742 34.916 81.3477 35.7295 81.3477 36.7412V37.459H76.1865C76.2093 38.3385 76.4303 39.0062 76.8496 39.4619C77.2734 39.9176 77.8682 40.1455 78.6338 40.1455C79.4404 40.1455 80.238 39.9769 81.0264 39.6396V40.6514C80.6253 40.8245 80.2448 40.9476 79.8848 41.0205C79.5293 41.098 79.0986 41.1367 78.5928 41.1367ZM78.2852 34.3213C77.6836 34.3213 77.2028 34.5173 76.8428 34.9092C76.4873 35.3011 76.2777 35.8434 76.2139 36.5361H80.1309C80.1309 35.8206 79.9714 35.2738 79.6523 34.8955C79.3333 34.5127 78.8776 34.3213 78.2852 34.3213ZM86.4541 41.1367C85.3467 41.1367 84.4717 40.7995 83.8291 40.125C83.1911 39.4505 82.8721 38.514 82.8721 37.3154C82.8721 36.1077 83.1683 35.1484 83.7607 34.4375C84.3577 33.7266 85.1576 33.3711 86.1602 33.3711C87.099 33.3711 87.8418 33.681 88.3887 34.3008C88.9355 34.916 89.209 35.7295 89.209 36.7412V37.459H84.0479C84.0706 38.3385 84.2917 39.0062 84.7109 39.4619C85.1348 39.9176 85.7295 40.1455 86.4951 40.1455C87.3018 40.1455 88.0993 39.9769 88.8877 39.6396V40.6514C88.4867 40.8245 88.1061 40.9476 87.7461 41.0205C87.3906 41.098 86.96 41.1367 86.4541 41.1367ZM86.1465 34.3213C85.5449 34.3213 85.0641 34.5173 84.7041 34.9092C84.3486 35.3011 84.139 35.8434 84.0752 36.5361H87.9922C87.9922 35.8206 87.8327 35.2738 87.5137 34.8955C87.1947 34.5127 86.7389 34.3213 86.1465 34.3213ZM93.5703 40.2002C93.7708 40.2002 93.9645 40.1865 94.1514 40.1592C94.3382 40.1273 94.4863 40.0954 94.5957 40.0635V40.9316C94.4727 40.9909 94.2904 41.0387 94.0488 41.0752C93.8118 41.1162 93.5977 41.1367 93.4062 41.1367C91.957 41.1367 91.2324 40.3734 91.2324 38.8467V34.3896H90.1592V33.8428L91.2324 33.3711L91.7109 31.7715H92.3672V33.5078H94.541V34.3896H92.3672V38.7988C92.3672 39.25 92.4743 39.5964 92.6885 39.8379C92.9027 40.0794 93.1966 40.2002 93.5703 40.2002ZM97.2891 39.373L97.3916 39.5303C97.2731 39.986 97.1022 40.5146 96.8789 41.1162C96.6556 41.7223 96.4232 42.2852 96.1816 42.8047H95.3271C95.4502 42.3307 95.5846 41.7451 95.7305 41.0479C95.8809 40.3506 95.9857 39.7923 96.0449 39.373H97.2891ZM111.146 41H109.819L104.357 32.6123H104.303C104.376 33.5967 104.412 34.499 104.412 35.3193V41H103.339V31.0059H104.651L110.1 39.3594H110.154C110.145 39.2363 110.125 38.8421 110.093 38.1768C110.061 37.5068 110.049 37.0283 110.059 36.7412V31.0059H111.146V41ZM116.888 41.1367C115.78 41.1367 114.905 40.7995 114.263 40.125C113.625 39.4505 113.306 38.514 113.306 37.3154C113.306 36.1077 113.602 35.1484 114.194 34.4375C114.791 33.7266 115.591 33.3711 116.594 33.3711C117.533 33.3711 118.275 33.681 118.822 34.3008C119.369 34.916 119.643 35.7295 119.643 36.7412V37.459H114.481C114.504 38.3385 114.725 39.0062 115.145 39.4619C115.568 39.9176 116.163 40.1455 116.929 40.1455C117.735 40.1455 118.533 39.9769 119.321 39.6396V40.6514C118.92 40.8245 118.54 40.9476 118.18 41.0205C117.824 41.098 117.394 41.1367 116.888 41.1367ZM116.58 34.3213C115.979 34.3213 115.498 34.5173 115.138 34.9092C114.782 35.3011 114.573 35.8434 114.509 36.5361H118.426C118.426 35.8206 118.266 35.2738 117.947 34.8955C117.628 34.5127 117.173 34.3213 116.58 34.3213ZM127.702 41L126.328 36.6045C126.242 36.3356 126.08 35.7249 125.843 34.7725H125.788C125.606 35.57 125.446 36.1852 125.31 36.6182L123.895 41H122.582L120.538 33.5078H121.728C122.211 35.39 122.577 36.8232 122.828 37.8076C123.083 38.792 123.229 39.4551 123.266 39.7969H123.32C123.37 39.5371 123.45 39.2021 123.56 38.792C123.674 38.3773 123.771 38.0492 123.854 37.8076L125.228 33.5078H126.458L127.798 37.8076C128.053 38.5915 128.226 39.25 128.317 39.7832H128.372C128.39 39.6191 128.438 39.3662 128.516 39.0244C128.598 38.6826 129.074 36.8438 129.944 33.5078H131.12L129.049 41H127.702ZM138.831 36.0029L141.497 31.0059H142.755L139.419 37.124V41H138.243V37.1787L134.914 31.0059H136.186L138.831 36.0029ZM150.432 37.2471C150.432 38.4684 150.124 39.4232 149.509 40.1113C148.894 40.7949 148.044 41.1367 146.959 41.1367C146.289 41.1367 145.694 40.9795 145.175 40.665C144.655 40.3506 144.254 39.8994 143.972 39.3115C143.689 38.7236 143.548 38.0355 143.548 37.2471C143.548 36.0257 143.853 35.0755 144.464 34.3965C145.075 33.7129 145.922 33.3711 147.007 33.3711C148.055 33.3711 148.887 33.7197 149.502 34.417C150.122 35.1143 150.432 36.0576 150.432 37.2471ZM144.724 37.2471C144.724 38.2041 144.915 38.9333 145.298 39.4346C145.681 39.9359 146.243 40.1865 146.986 40.1865C147.729 40.1865 148.292 39.9382 148.675 39.4414C149.062 38.9401 149.256 38.2087 149.256 37.2471C149.256 36.2946 149.062 35.5723 148.675 35.0801C148.292 34.5833 147.725 34.335 146.973 34.335C146.23 34.335 145.669 34.5788 145.291 35.0664C144.913 35.554 144.724 36.2809 144.724 37.2471ZM155.846 33.3711C156.178 33.3711 156.477 33.3984 156.741 33.4531L156.584 34.5059C156.274 34.4375 156.001 34.4033 155.764 34.4033C155.158 34.4033 154.638 34.6494 154.205 35.1416C153.777 35.6338 153.562 36.2467 153.562 36.9805V41H152.428V33.5078H153.364L153.494 34.8955H153.549C153.827 34.4079 154.162 34.0319 154.554 33.7676C154.946 33.5033 155.376 33.3711 155.846 33.3711ZM159.264 37.165C159.46 36.887 159.758 36.5225 160.159 36.0713L162.579 33.5078H163.926L160.891 36.7002L164.138 41H162.764L160.118 37.459L159.264 38.1973V41H158.143V30.3633H159.264V36.0029C159.264 36.2536 159.245 36.641 159.209 37.165H159.264ZM166.688 39.373L166.79 39.5303C166.672 39.986 166.501 40.5146 166.277 41.1162C166.054 41.7223 165.822 42.2852 165.58 42.8047H164.726C164.849 42.3307 164.983 41.7451 165.129 41.0479C165.279 40.3506 165.384 39.7923 165.443 39.373H166.688ZM180.544 41H179.218L173.756 32.6123H173.701C173.774 33.5967 173.811 34.499 173.811 35.3193V41H172.737V31.0059H174.05L179.498 39.3594H179.553C179.544 39.2363 179.523 38.8421 179.491 38.1768C179.459 37.5068 179.448 37.0283 179.457 36.7412V31.0059H180.544V41ZM185.835 36.0029L188.501 31.0059H189.759L186.423 37.124V41H185.247V37.1787L181.918 31.0059H183.189L185.835 36.0029ZM192.158 39.373L192.261 39.5303C192.142 39.986 191.971 40.5146 191.748 41.1162C191.525 41.7223 191.292 42.2852 191.051 42.8047H190.196C190.319 42.3307 190.454 41.7451 190.6 41.0479C190.75 40.3506 190.855 39.7923 190.914 39.373H192.158ZM204.559 38.7031H203.075V41H201.988V38.7031H197.128V37.7119L201.872 30.9512H203.075V37.6709H204.559V38.7031ZM201.988 37.6709V34.3486C201.988 33.6969 202.011 32.9609 202.057 32.1406H202.002C201.783 32.5781 201.578 32.9404 201.387 33.2275L198.263 37.6709H201.988ZM205.646 36.7275C205.646 34.7633 206.026 33.2959 206.787 32.3252C207.553 31.3499 208.683 30.8623 210.178 30.8623C210.693 30.8623 211.098 30.9056 211.395 30.9922V31.9697C211.044 31.8558 210.643 31.7988 210.191 31.7988C209.12 31.7988 208.302 32.1338 207.737 32.8037C207.172 33.4691 206.862 34.5173 206.808 35.9482H206.89C207.391 35.1644 208.184 34.7725 209.269 34.7725C210.166 34.7725 210.873 35.0436 211.388 35.5859C211.907 36.1283 212.167 36.8643 212.167 37.7939C212.167 38.833 211.882 39.651 211.312 40.248C210.747 40.8405 209.982 41.1367 209.016 41.1367C207.981 41.1367 207.161 40.7493 206.555 39.9746C205.949 39.1953 205.646 38.113 205.646 36.7275ZM209.002 40.1729C209.649 40.1729 210.15 39.9701 210.506 39.5645C210.866 39.1543 211.046 38.5641 211.046 37.7939C211.046 37.1331 210.88 36.6136 210.547 36.2354C210.214 35.8571 209.717 35.668 209.057 35.668C208.646 35.668 208.271 35.7523 207.929 35.9209C207.587 36.0895 207.313 36.3219 207.108 36.6182C206.908 36.9144 206.808 37.222 206.808 37.541C206.808 38.0104 206.899 38.4479 207.081 38.8535C207.263 39.2591 207.521 39.5804 207.854 39.8174C208.191 40.0544 208.574 40.1729 209.002 40.1729ZM222.291 41L218.9 32.1406H218.846C218.91 32.8424 218.941 33.6764 218.941 34.6426V41H217.868V31.0059H219.618L222.783 39.25H222.838L226.03 31.0059H227.767V41H226.604V34.5605C226.604 33.8223 226.636 33.0202 226.7 32.1543H226.646L223.228 41H222.291ZM234.951 41L234.726 39.9336H234.671C234.297 40.403 233.924 40.722 233.55 40.8906C233.181 41.0547 232.718 41.1367 232.162 41.1367C231.419 41.1367 230.836 40.9453 230.412 40.5625C229.993 40.1797 229.783 39.6351 229.783 38.9287C229.783 37.4157 230.993 36.6227 233.413 36.5498L234.685 36.5088V36.0439C234.685 35.4561 234.557 35.0231 234.302 34.7451C234.051 34.4626 233.648 34.3213 233.092 34.3213C232.467 34.3213 231.761 34.5127 230.973 34.8955L230.624 34.0273C230.993 33.8268 231.396 33.6696 231.834 33.5557C232.276 33.4417 232.718 33.3848 233.16 33.3848C234.053 33.3848 234.714 33.583 235.143 33.9795C235.576 34.376 235.792 35.0117 235.792 35.8867V41H234.951ZM232.388 40.2002C233.094 40.2002 233.648 40.0065 234.049 39.6191C234.454 39.2318 234.657 38.6895 234.657 37.9922V37.3154L233.522 37.3633C232.62 37.3952 231.968 37.5365 231.567 37.7871C231.171 38.0332 230.973 38.4183 230.973 38.9424C230.973 39.3525 231.096 39.6647 231.342 39.8789C231.592 40.0931 231.941 40.2002 232.388 40.2002ZM239.271 41H238.137V33.5078H239.271V41ZM238.041 31.4775C238.041 31.2178 238.105 31.0286 238.232 30.9102C238.36 30.7871 238.52 30.7256 238.711 30.7256C238.893 30.7256 239.05 30.7871 239.183 30.9102C239.315 31.0332 239.381 31.2223 239.381 31.4775C239.381 31.7327 239.315 31.9242 239.183 32.0518C239.05 32.1748 238.893 32.2363 238.711 32.2363C238.52 32.2363 238.36 32.1748 238.232 32.0518C238.105 31.9242 238.041 31.7327 238.041 31.4775ZM246.805 41V36.1533C246.805 35.5426 246.666 35.0869 246.388 34.7861C246.11 34.4854 245.674 34.335 245.082 34.335C244.298 34.335 243.724 34.5469 243.359 34.9707C242.995 35.3945 242.812 36.0941 242.812 37.0693V41H241.678V33.5078H242.601L242.785 34.5332H242.84C243.072 34.1641 243.398 33.8792 243.817 33.6787C244.237 33.4736 244.704 33.3711 245.219 33.3711C246.121 33.3711 246.8 33.5898 247.256 34.0273C247.712 34.4603 247.939 35.1553 247.939 36.1123V41H246.805ZM259.725 38.3408C259.725 39.2204 259.406 39.9062 258.768 40.3984C258.13 40.8906 257.264 41.1367 256.17 41.1367C254.985 41.1367 254.074 40.984 253.436 40.6787V39.5576C253.846 39.7308 254.292 39.8675 254.775 39.9678C255.258 40.068 255.737 40.1182 256.211 40.1182C256.986 40.1182 257.569 39.9723 257.961 39.6807C258.353 39.3844 258.549 38.9743 258.549 38.4502C258.549 38.1038 258.478 37.8213 258.337 37.6025C258.2 37.3792 257.968 37.1742 257.64 36.9873C257.316 36.8005 256.822 36.5885 256.156 36.3516C255.227 36.0189 254.561 35.6247 254.16 35.1689C253.764 34.7132 253.565 34.1185 253.565 33.3848C253.565 32.6146 253.855 32.0016 254.434 31.5459C255.012 31.0902 255.778 30.8623 256.73 30.8623C257.724 30.8623 258.638 31.0446 259.472 31.4092L259.109 32.4209C258.285 32.0745 257.482 31.9014 256.703 31.9014C256.088 31.9014 255.607 32.0335 255.261 32.2979C254.914 32.5622 254.741 32.929 254.741 33.3984C254.741 33.7448 254.805 34.0296 254.933 34.2529C255.06 34.4717 255.274 34.6745 255.575 34.8613C255.881 35.0436 256.345 35.2464 256.97 35.4697C258.018 35.8434 258.738 36.2445 259.13 36.6729C259.526 37.1012 259.725 37.6572 259.725 38.3408ZM264.018 40.2002C264.218 40.2002 264.412 40.1865 264.599 40.1592C264.785 40.1273 264.934 40.0954 265.043 40.0635V40.9316C264.92 40.9909 264.738 41.0387 264.496 41.0752C264.259 41.1162 264.045 41.1367 263.854 41.1367C262.404 41.1367 261.68 40.3734 261.68 38.8467V34.3896H260.606V33.8428L261.68 33.3711L262.158 31.7715H262.814V33.5078H264.988V34.3896H262.814V38.7988C262.814 39.25 262.922 39.5964 263.136 39.8379C263.35 40.0794 263.644 40.2002 264.018 40.2002ZM269.965 33.3711C270.298 33.3711 270.596 33.3984 270.86 33.4531L270.703 34.5059C270.393 34.4375 270.12 34.4033 269.883 34.4033C269.277 34.4033 268.757 34.6494 268.324 35.1416C267.896 35.6338 267.682 36.2467 267.682 36.9805V41H266.547V33.5078H267.483L267.613 34.8955H267.668C267.946 34.4079 268.281 34.0319 268.673 33.7676C269.065 33.5033 269.495 33.3711 269.965 33.3711ZM275.427 41.1367C274.319 41.1367 273.444 40.7995 272.802 40.125C272.164 39.4505 271.845 38.514 271.845 37.3154C271.845 36.1077 272.141 35.1484 272.733 34.4375C273.33 33.7266 274.13 33.3711 275.133 33.3711C276.072 33.3711 276.814 33.681 277.361 34.3008C277.908 34.916 278.182 35.7295 278.182 36.7412V37.459H273.021C273.043 38.3385 273.264 39.0062 273.684 39.4619C274.107 39.9176 274.702 40.1455 275.468 40.1455C276.274 40.1455 277.072 39.9769 277.86 39.6396V40.6514C277.459 40.8245 277.079 40.9476 276.719 41.0205C276.363 41.098 275.933 41.1367 275.427 41.1367ZM275.119 34.3213C274.518 34.3213 274.037 34.5173 273.677 34.9092C273.321 35.3011 273.112 35.8434 273.048 36.5361H276.965C276.965 35.8206 276.805 35.2738 276.486 34.8955C276.167 34.5127 275.712 34.3213 275.119 34.3213ZM283.288 41.1367C282.181 41.1367 281.306 40.7995 280.663 40.125C280.025 39.4505 279.706 38.514 279.706 37.3154C279.706 36.1077 280.002 35.1484 280.595 34.4375C281.192 33.7266 281.992 33.3711 282.994 33.3711C283.933 33.3711 284.676 33.681 285.223 34.3008C285.77 34.916 286.043 35.7295 286.043 36.7412V37.459H280.882C280.905 38.3385 281.126 39.0062 281.545 39.4619C281.969 39.9176 282.563 40.1455 283.329 40.1455C284.136 40.1455 284.933 39.9769 285.722 39.6396V40.6514C285.321 40.8245 284.94 40.9476 284.58 41.0205C284.225 41.098 283.794 41.1367 283.288 41.1367ZM282.98 34.3213C282.379 34.3213 281.898 34.5173 281.538 34.9092C281.183 35.3011 280.973 35.8434 280.909 36.5361H284.826C284.826 35.8206 284.667 35.2738 284.348 34.8955C284.029 34.5127 283.573 34.3213 282.98 34.3213ZM290.404 40.2002C290.605 40.2002 290.799 40.1865 290.985 40.1592C291.172 40.1273 291.32 40.0954 291.43 40.0635V40.9316C291.307 40.9909 291.124 41.0387 290.883 41.0752C290.646 41.1162 290.432 41.1367 290.24 41.1367C288.791 41.1367 288.066 40.3734 288.066 38.8467V34.3896H286.993V33.8428L288.066 33.3711L288.545 31.7715H289.201V33.5078H291.375V34.3896H289.201V38.7988C289.201 39.25 289.308 39.5964 289.522 39.8379C289.737 40.0794 290.031 40.2002 290.404 40.2002ZM294.123 39.373L294.226 39.5303C294.107 39.986 293.936 40.5146 293.713 41.1162C293.49 41.7223 293.257 42.2852 293.016 42.8047H292.161C292.284 42.3307 292.419 41.7451 292.564 41.0479C292.715 40.3506 292.82 39.7923 292.879 39.373H294.123ZM307.979 41H306.653L301.191 32.6123H301.137C301.21 33.5967 301.246 34.499 301.246 35.3193V41H300.173V31.0059H301.485L306.934 39.3594H306.988C306.979 39.2363 306.959 38.8421 306.927 38.1768C306.895 37.5068 306.883 37.0283 306.893 36.7412V31.0059H307.979V41ZM313.722 41.1367C312.614 41.1367 311.739 40.7995 311.097 40.125C310.459 39.4505 310.14 38.514 310.14 37.3154C310.14 36.1077 310.436 35.1484 311.028 34.4375C311.625 33.7266 312.425 33.3711 313.428 33.3711C314.367 33.3711 315.109 33.681 315.656 34.3008C316.203 34.916 316.477 35.7295 316.477 36.7412V37.459H311.315C311.338 38.3385 311.559 39.0062 311.979 39.4619C312.402 39.9176 312.997 40.1455 313.763 40.1455C314.569 40.1455 315.367 39.9769 316.155 39.6396V40.6514C315.754 40.8245 315.374 40.9476 315.014 41.0205C314.658 41.098 314.228 41.1367 313.722 41.1367ZM313.414 34.3213C312.812 34.3213 312.332 34.5173 311.972 34.9092C311.616 35.3011 311.407 35.8434 311.343 36.5361H315.26C315.26 35.8206 315.1 35.2738 314.781 34.8955C314.462 34.5127 314.007 34.3213 313.414 34.3213ZM324.536 41L323.162 36.6045C323.076 36.3356 322.914 35.7249 322.677 34.7725H322.622C322.44 35.57 322.28 36.1852 322.144 36.6182L320.729 41H319.416L317.372 33.5078H318.562C319.045 35.39 319.411 36.8232 319.662 37.8076C319.917 38.792 320.063 39.4551 320.1 39.7969H320.154C320.204 39.5371 320.284 39.2021 320.394 38.792C320.507 38.3773 320.605 38.0492 320.688 37.8076L322.062 33.5078H323.292L324.632 37.8076C324.887 38.5915 325.06 39.25 325.151 39.7832H325.206C325.224 39.6191 325.272 39.3662 325.35 39.0244C325.432 38.6826 325.908 36.8438 326.778 33.5078H327.954L325.883 41H324.536ZM335.665 36.0029L338.331 31.0059H339.589L336.253 37.124V41H335.077V37.1787L331.748 31.0059H333.02L335.665 36.0029ZM347.266 37.2471C347.266 38.4684 346.958 39.4232 346.343 40.1113C345.728 40.7949 344.878 41.1367 343.793 41.1367C343.123 41.1367 342.528 40.9795 342.009 40.665C341.489 40.3506 341.088 39.8994 340.806 39.3115C340.523 38.7236 340.382 38.0355 340.382 37.2471C340.382 36.0257 340.687 35.0755 341.298 34.3965C341.909 33.7129 342.756 33.3711 343.841 33.3711C344.889 33.3711 345.721 33.7197 346.336 34.417C346.956 35.1143 347.266 36.0576 347.266 37.2471ZM341.558 37.2471C341.558 38.2041 341.749 38.9333 342.132 39.4346C342.515 39.9359 343.077 40.1865 343.82 40.1865C344.563 40.1865 345.126 39.9382 345.509 39.4414C345.896 38.9401 346.09 38.2087 346.09 37.2471C346.09 36.2946 345.896 35.5723 345.509 35.0801C345.126 34.5833 344.559 34.335 343.807 34.335C343.064 34.335 342.503 34.5788 342.125 35.0664C341.747 35.554 341.558 36.2809 341.558 37.2471ZM352.68 33.3711C353.012 33.3711 353.311 33.3984 353.575 33.4531L353.418 34.5059C353.108 34.4375 352.835 34.4033 352.598 34.4033C351.992 34.4033 351.472 34.6494 351.039 35.1416C350.611 35.6338 350.396 36.2467 350.396 36.9805V41H349.262V33.5078H350.198L350.328 34.8955H350.383C350.661 34.4079 350.996 34.0319 351.388 33.7676C351.78 33.5033 352.21 33.3711 352.68 33.3711ZM356.098 37.165C356.294 36.887 356.592 36.5225 356.993 36.0713L359.413 33.5078H360.76L357.725 36.7002L360.972 41H359.598L356.952 37.459L356.098 38.1973V41H354.977V30.3633H356.098V36.0029C356.098 36.2536 356.079 36.641 356.043 37.165H356.098ZM363.521 39.373L363.624 39.5303C363.506 39.986 363.335 40.5146 363.111 41.1162C362.888 41.7223 362.656 42.2852 362.414 42.8047H361.56C361.683 42.3307 361.817 41.7451 361.963 41.0479C362.113 40.3506 362.218 39.7923 362.277 39.373H363.521ZM377.378 41H376.052L370.59 32.6123H370.535C370.608 33.5967 370.645 34.499 370.645 35.3193V41H369.571V31.0059H370.884L376.332 39.3594H376.387C376.378 39.2363 376.357 38.8421 376.325 38.1768C376.293 37.5068 376.282 37.0283 376.291 36.7412V31.0059H377.378V41ZM382.669 36.0029L385.335 31.0059H386.593L383.257 37.124V41H382.081V37.1787L378.752 31.0059H380.023L382.669 36.0029Z" fill="#393939"/>
<rect x="393" y="27" width="28" height="18" rx="4" fill="#F1F3F9"/>
<path d="M414.469 40H408.48V38.7402L410.631 36.5664C411.268 35.9141 411.684 35.4629 411.879 35.2129C412.074 34.959 412.215 34.7246 412.301 34.5098C412.387 34.2949 412.43 34.0723 412.43 33.8418C412.43 33.498 412.334 33.2422 412.143 33.0742C411.955 32.9062 411.703 32.8223 411.387 32.8223C411.055 32.8223 410.732 32.8984 410.42 33.0508C410.107 33.2031 409.781 33.4199 409.441 33.7012L408.457 32.5352C408.879 32.1758 409.229 31.9219 409.506 31.7734C409.783 31.625 410.086 31.5117 410.414 31.4336C410.742 31.3516 411.109 31.3105 411.516 31.3105C412.051 31.3105 412.523 31.4082 412.934 31.6035C413.344 31.7988 413.662 32.0723 413.889 32.4238C414.115 32.7754 414.229 33.1777 414.229 33.6309C414.229 34.0254 414.158 34.3965 414.018 34.7441C413.881 35.0879 413.666 35.4414 413.373 35.8047C413.084 36.168 412.572 36.6855 411.838 37.3574L410.736 38.3945V38.4766H414.469V40Z" fill="#6D7082"/>
<path fill-rule="evenodd" clip-rule="evenodd" d="M405.111 35.5001C405.111 35.899 404.788 36.2224 404.389 36.2224H398.611C398.212 36.2224 397.889 35.899 397.889 35.5001C397.889 35.1013 398.212 34.7779 398.611 34.7779H404.389C404.788 34.7779 405.111 35.1013 405.111 35.5001Z" fill="#6D7082"/>
<path fill-rule="evenodd" clip-rule="evenodd" d="M401.5 31.889C401.899 31.889 402.222 32.2123 402.222 32.6112L402.222 38.3891C402.222 38.7879 401.899 39.1113 401.5 39.1113C401.101 39.1113 400.778 38.7879 400.778 38.3891L400.778 32.6112C400.778 32.2123 401.101 31.889 401.5 31.889Z" fill="#6D7082"/>
</svg>
