<svg width="18" height="18" viewBox="0 0 18 18" fill="none" xmlns="http://www.w3.org/2000/svg">
<path fill-rule="evenodd" clip-rule="evenodd" d="M8.38606 0.710648C8.74717 0.429784 9.25283 0.429784 9.61394 0.710648L16.3639 5.96065C16.6075 6.1501 16.75 6.44141 16.75 6.75V15C16.75 15.663 16.4866 16.2989 16.0178 16.7678C15.5489 17.2366 14.913 17.5 14.25 17.5H3.75C3.08696 17.5 2.45107 17.2366 1.98223 16.7678C1.51339 16.2989 1.25 15.663 1.25 15V6.75C1.25 6.44141 1.39247 6.1501 1.63606 5.96065L8.38606 0.710648ZM3.25 7.23908V15C3.25 15.1326 3.30268 15.2598 3.39645 15.3536C3.49022 15.4473 3.61739 15.5 3.75 15.5H14.25C14.3826 15.5 14.5098 15.4473 14.6036 15.3536C14.6973 15.2598 14.75 15.1326 14.75 15V7.23908L9 2.76686L3.25 7.23908Z" fill="#6C30F6"/>
<path fill-rule="evenodd" clip-rule="evenodd" d="M5.75 9C5.75 8.44772 6.19772 8 6.75 8H11.25C11.8023 8 12.25 8.44772 12.25 9V16.5C12.25 17.0523 11.8023 17.5 11.25 17.5C10.6977 17.5 10.25 17.0523 10.25 16.5V10H7.75V16.5C7.75 17.0523 7.30228 17.5 6.75 17.5C6.19772 17.5 5.75 17.0523 5.75 16.5V9Z" fill="#6C30F6"/>
</svg>
