<svg width="16" height="18" viewBox="0 0 16 18" fill="none" xmlns="http://www.w3.org/2000/svg">
<path fill-rule="evenodd" clip-rule="evenodd" d="M9.14821 0.582754C9.55542 0.759523 9.79735 1.18359 9.74229 1.62409L9.13279 6.50006H14.75C15.138 6.50006 15.491 6.72452 15.6556 7.0759C15.8202 7.42729 15.7666 7.84216 15.5182 8.14024L8.01823 17.1402C7.73404 17.4813 7.25903 17.5941 6.85182 17.4174C6.4446 17.2406 6.20267 16.8165 6.25773 16.376L6.86723 11.5001H1.25001C0.861995 11.5001 0.509003 11.2756 0.344423 10.9242C0.179843 10.5728 0.233388 10.158 0.481791 9.85987L7.98179 0.859872C8.26599 0.518837 8.74099 0.405986 9.14821 0.582754ZM3.38505 9.50006H8.00001C8.28684 9.50006 8.55986 9.62322 8.74969 9.83825C8.93952 10.0533 9.02787 10.3395 8.99229 10.6241L8.66535 13.2396L12.615 8.50006H8.00001C7.71318 8.50006 7.44016 8.37689 7.25033 8.16186C7.06051 7.94683 6.97216 7.66064 7.00773 7.37602L7.33467 4.76051L3.38505 9.50006Z" fill="#FFA600"/>
</svg>