<svg width="14" height="14" viewBox="0 0 14 14" fill="none" xmlns="http://www.w3.org/2000/svg">
<path fill-rule="evenodd" clip-rule="evenodd" d="M9.57084 1.60386C9.12254 1.60386 8.6926 1.77297 8.3756 2.07401L2.5552 7.6013C2.00052 8.12804 1.68891 8.84246 1.68891 9.58739C1.68891 10.3323 2.00052 11.0467 2.5552 11.5735C3.10988 12.1002 3.86218 12.3961 4.64661 12.3961C5.43104 12.3961 6.18335 12.1002 6.73802 11.5735L12.5584 6.04619C12.8882 5.73302 13.4229 5.73302 13.7527 6.04619C14.0824 6.35936 14.0824 6.86711 13.7527 7.18029L7.93226 12.7076C7.06085 13.5351 5.87897 14 4.64661 14C3.41425 14 2.23237 13.5351 1.36096 12.7076C0.489552 11.8801 0 10.7577 0 9.58739C0 8.41709 0.489552 7.29472 1.36096 6.4672L7.18136 0.939909C7.81509 0.338095 8.67461 0 9.57084 0C10.4671 0 11.3266 0.338095 11.9603 0.939909C12.594 1.54172 12.9501 2.35796 12.9501 3.20905C12.9501 4.06014 12.594 4.87638 11.9603 5.47819L6.13358 11.0055C6.13347 11.0056 6.13368 11.0054 6.13358 11.0055C5.73756 11.3814 5.20022 11.5929 4.64028 11.5929C4.08018 11.5929 3.54303 11.3816 3.14698 11.0055C2.75094 10.6294 2.52844 10.1193 2.52844 9.58739C2.52844 9.0555 2.75094 8.5454 3.14698 8.16929L8.5244 3.06869C8.85437 2.75571 9.38905 2.75601 9.71864 3.06936C10.0482 3.38272 10.0479 3.89047 9.71793 4.20346L4.34122 9.30339C4.34115 9.30346 4.34129 9.30332 4.34122 9.30339C4.26204 9.37869 4.21735 9.48097 4.21735 9.58739C4.21735 9.69391 4.26191 9.79606 4.34122 9.87139C4.42054 9.94671 4.52811 9.98902 4.64028 9.98902C4.75245 9.98902 4.86002 9.94671 4.93934 9.87139L10.7661 4.3441C11.0829 4.04309 11.2612 3.63463 11.2612 3.20905C11.2612 2.78333 11.0831 2.37504 10.7661 2.07401C10.4491 1.77297 10.0191 1.60386 9.57084 1.60386Z" fill="#307DF6"/>
</svg>
