<svg width="15" height="16" viewBox="0 0 15 16" fill="none" xmlns="http://www.w3.org/2000/svg">
<path fill-rule="evenodd" clip-rule="evenodd" d="M7.22613 12.5464C9.98756 12.5464 12.2261 10.3078 12.2261 7.54639C12.2261 4.78496 9.98756 2.54639 7.22613 2.54639C4.46471 2.54639 2.22613 4.78496 2.22613 7.54639C2.22613 8.32325 2.40191 9.05344 2.71398 9.70432C3.0052 10.3117 3.12844 11.0655 2.92317 11.8331L2.53665 13.2784L5.38544 12.563L5.8726 14.5027L1.37497 15.6323C0.635336 15.818 -0.0316789 15.1408 0.16534 14.4041L0.991063 11.3164C1.05786 11.0667 1.02234 10.8021 0.910555 10.569C0.471851 9.65401 0.226133 8.62889 0.226133 7.54639C0.226133 3.68039 3.36014 0.546387 7.22613 0.546387C11.0921 0.546387 14.2261 3.68039 14.2261 7.54639C14.2261 11.4124 11.0921 14.5464 7.22613 14.5464C6.90525 14.5464 6.58941 14.5248 6.27998 14.483C6.14403 14.4646 6.00566 14.4693 5.8726 14.5027L5.38544 12.563C5.79356 12.4605 6.1905 12.4527 6.54779 12.501C6.76869 12.5308 6.99507 12.5464 7.22613 12.5464Z" fill="#307DF6"/>
</svg>
