<svg width="18" height="18" viewBox="0 0 18 18" fill="none" xmlns="http://www.w3.org/2000/svg">
<g clip-path="url(#clip0)">
<path fill-rule="evenodd" clip-rule="evenodd" d="M6.59346 3.02832C3.02416 3.34832 0.226621 6.3475 0.226621 10.0001C0.226621 11.0826 0.47234 12.1077 0.911043 13.0227C1.02283 13.2558 1.05835 13.5203 0.991551 13.7701L0.165829 16.8577C-0.0311906 17.5945 0.635824 18.2717 1.37546 18.086L5.87309 16.9564C6.00614 16.923 6.14452 16.9183 6.28047 16.9367C6.5899 16.9785 6.90574 17.0001 7.22662 17.0001C10.1064 17.0001 12.5801 15.261 13.6547 12.7758L12.0002 12.5001L11.6273 12.3758C10.7818 13.9385 9.12819 15.0001 7.22662 15.0001C6.99556 15.0001 6.76918 14.9845 6.54827 14.9547C6.19099 14.9064 5.79405 14.9142 5.38593 15.0167L5.87309 16.9564L5.38593 15.0167L2.53714 15.7321L2.92365 14.2868C3.12893 13.5192 3.00568 12.7654 2.71447 12.158C2.40239 11.5071 2.22662 10.7769 2.22662 10.0001C2.22662 7.95382 3.45582 6.19467 5.21611 5.42072L5.50024 4.00007L6.59346 3.02832Z" fill="#6D7082"/>
<path fill-rule="evenodd" clip-rule="evenodd" d="M10.9042 12C8.14281 12 5.90424 9.76142 5.90424 7C5.90424 4.23858 8.14281 2 10.9042 2C13.6657 2 15.9042 4.23858 15.9042 7C15.9042 7.77686 15.7285 8.50705 15.4164 9.15794C15.1252 9.76532 15.0019 10.5192 15.2072 11.2867L15.5937 12.732L12.7449 12.0166L12.2578 13.9564L16.7554 15.0859C17.495 15.2717 18.1621 14.5944 17.965 13.8577L17.1393 10.77C17.0725 10.5203 17.108 10.2557 17.2198 10.0226C17.6585 9.10762 17.9042 8.08251 17.9042 7C17.9042 3.13401 14.7702 0 10.9042 0C7.03824 0 3.90424 3.13401 3.90424 7C3.90424 10.866 7.03824 14 10.9042 14C11.2251 14 11.541 13.9784 11.8504 13.9366C11.9863 13.9182 12.1247 13.9229 12.2578 13.9564L12.7449 12.0166C12.3368 11.9141 11.9399 11.9063 11.5826 11.9546C11.3617 11.9845 11.1353 12 10.9042 12Z" fill="#6D7082"/>
</g>
<defs>
<clipPath id="clip0">
<rect width="18" height="18" fill="white"/>
</clipPath>
</defs>
</svg>
