<svg width="18" height="18" viewBox="0 0 18 18" fill="none" xmlns="http://www.w3.org/2000/svg">
<path fill-rule="evenodd" clip-rule="evenodd" d="M2.93858 9.26172C2.99764 9.35995 3.06845 9.47395 3.15076 9.60027C3.44476 10.0514 3.87983 10.6508 4.44372 11.2469C5.58728 12.4558 7.15831 13.5474 9.08308 13.5474C11.0078 13.5474 12.5789 12.4558 13.7224 11.2469C14.2863 10.6508 14.7214 10.0514 15.0154 9.60027C15.0977 9.47395 15.1685 9.35995 15.2276 9.26172C15.1685 9.16349 15.0977 9.04948 15.0154 8.92317C14.7214 8.47202 14.2863 7.87264 13.7224 7.27653C12.5789 6.06763 11.0078 4.976 9.08308 4.976C7.15831 4.976 5.58728 6.06763 4.44372 7.27653C3.87983 7.87264 3.44476 8.47202 3.15076 8.92317C3.06845 9.04948 2.99764 9.16349 2.93858 9.26172ZM16.2183 9.26172C16.9918 8.87839 16.9917 8.87811 16.9916 8.87781L16.9903 8.87535L16.9878 8.87042L16.9799 8.85506C16.9733 8.8424 16.9642 8.82496 16.9525 8.80306C16.9291 8.75927 16.8955 8.69757 16.8517 8.62051C16.7643 8.46652 16.6362 8.25052 16.4685 7.99313C16.1341 7.47999 15.6367 6.79366 14.9844 6.10405C13.6955 4.74152 11.6989 3.26172 9.08308 3.26172C6.46727 3.26172 4.4707 4.74152 3.18181 6.10405C2.52947 6.79366 2.0321 7.47999 1.69771 7.99313C1.52998 8.25052 1.40184 8.46652 1.31443 8.62051C1.2707 8.69757 1.23707 8.75927 1.21369 8.80306C1.20199 8.82496 1.19285 8.8424 1.18629 8.85506L1.17837 8.87042L1.17586 8.87535L1.17496 8.87711C1.17481 8.87741 1.17431 8.87839 1.94788 9.26172L1.17431 8.87839C1.05257 9.1197 1.05257 9.40374 1.17431 9.64504L1.94788 9.26172C1.17431 9.64504 1.17416 9.64474 1.17431 9.64504L1.17586 9.64809L1.17837 9.65301L1.18629 9.66838C1.19285 9.68104 1.20199 9.69848 1.21369 9.72038C1.23707 9.76417 1.2707 9.82587 1.31443 9.90292C1.40184 10.0569 1.52998 10.2729 1.69771 10.5303C2.0321 11.0435 2.52947 11.7298 3.18181 12.4194C4.4707 13.7819 6.46727 15.2617 9.08308 15.2617C11.6989 15.2617 13.6955 13.7819 14.9844 12.4194C15.6367 11.7298 16.1341 11.0435 16.4685 10.5303C16.6362 10.2729 16.7643 10.0569 16.8517 9.90292C16.8955 9.82587 16.9291 9.76417 16.9525 9.72038C16.9642 9.69848 16.9733 9.68104 16.9799 9.66838L16.9878 9.65301L16.9903 9.64809L16.9912 9.64633C16.9913 9.64603 16.9918 9.64504 16.2183 9.26172ZM16.2183 9.26172L16.9918 9.64504C17.1136 9.40374 17.1133 9.11912 16.9916 8.87781L16.2183 9.26172Z" fill="#6D7082"/>
<path fill-rule="evenodd" clip-rule="evenodd" d="M9.08301 8.10787C8.44576 8.10787 7.92916 8.62447 7.92916 9.26172C7.92916 9.89897 8.44576 10.4156 9.08301 10.4156C9.72026 10.4156 10.2369 9.89897 10.2369 9.26172C10.2369 8.62447 9.72026 8.10787 9.08301 8.10787ZM6.08301 9.26172C6.08301 7.60486 7.42615 6.26172 9.08301 6.26172C10.7399 6.26172 12.083 7.60486 12.083 9.26172C12.083 10.9186 10.7399 12.2617 9.08301 12.2617C7.42615 12.2617 6.08301 10.9186 6.08301 9.26172Z" fill="#6D7082"/>
</svg>
