<svg width="24" height="24" viewBox="0 0 24 24" fill="none" xmlns="http://www.w3.org/2000/svg">
<circle cx="12" cy="12" r="11.5" fill="#E6EBFE" stroke="white"/>
<path d="M17.8353 10.6726L17.3049 10.1422C17.0853 9.92256 16.7291 9.92256 16.5094 10.1422L16.3769 10.2748L13.7252 7.62318L13.8578 7.4906C14.0774 7.27092 14.0774 6.91476 13.8578 6.6951L13.3274 6.16476C13.1078 5.94508 12.7516 5.94508 12.532 6.16476L9.61513 9.08158C9.39545 9.30126 9.39545 9.65742 9.61513 9.87707L10.1455 10.4074C10.3651 10.6271 10.7213 10.6271 10.9409 10.4074L11.0735 10.2748L12.0016 11.2029L10.1022 13.1023L9.96965 12.9697C9.67675 12.6768 9.20188 12.6768 8.90899 12.9697L6.21967 15.659C5.92678 15.9519 5.92678 16.4268 6.21967 16.7197L7.28034 17.7804C7.57324 18.0733 8.0481 18.0733 8.341 17.7804L11.0303 15.091C11.3232 14.7981 11.3232 14.3233 11.0303 14.0304L10.8978 13.8978L12.7971 11.9984L13.7252 12.9265L13.5926 13.0591C13.3729 13.2787 13.3729 13.6349 13.5926 13.8546L14.1229 14.3849C14.3426 14.6046 14.6988 14.6046 14.9184 14.3849L17.8353 11.4681C18.0549 11.2484 18.0549 10.8922 17.8353 10.6726Z" fill="#6C30F6"/>
</svg>