<svg width="18" height="18" viewBox="0 0 18 18" fill="none" xmlns="http://www.w3.org/2000/svg">
<path fill-rule="evenodd" clip-rule="evenodd" d="M5 4.5C5 3.94772 5.44772 3.5 6 3.5H15.75C16.3023 3.5 16.75 3.94772 16.75 4.5C16.75 5.05228 16.3023 5.5 15.75 5.5H6C5.44772 5.5 5 5.05228 5 4.5Z" fill="#6D7082"/>
<path fill-rule="evenodd" clip-rule="evenodd" d="M5 9C5 8.44772 5.44772 8 6 8H15.75C16.3023 8 16.75 8.44772 16.75 9C16.75 9.55228 16.3023 10 15.75 10H6C5.44772 10 5 9.55228 5 9Z" fill="#6D7082"/>
<path fill-rule="evenodd" clip-rule="evenodd" d="M5 13.5C5 12.9477 5.44772 12.5 6 12.5H15.75C16.3023 12.5 16.75 12.9477 16.75 13.5C16.75 14.0523 16.3023 14.5 15.75 14.5H6C5.44772 14.5 5 14.0523 5 13.5Z" fill="#6D7082"/>
<path fill-rule="evenodd" clip-rule="evenodd" d="M1.25 4.5C1.25 3.94772 1.69772 3.5 2.25 3.5H2.2575C2.80978 3.5 3.2575 3.94772 3.2575 4.5C3.2575 5.05228 2.80978 5.5 2.2575 5.5H2.25C1.69772 5.5 1.25 5.05228 1.25 4.5Z" fill="#6D7082"/>
<path fill-rule="evenodd" clip-rule="evenodd" d="M1.25 9C1.25 8.44772 1.69772 8 2.25 8H2.2575C2.80978 8 3.2575 8.44772 3.2575 9C3.2575 9.55228 2.80978 10 2.2575 10H2.25C1.69772 10 1.25 9.55228 1.25 9Z" fill="#6D7082"/>
<path fill-rule="evenodd" clip-rule="evenodd" d="M1.25 13.5C1.25 12.9477 1.69772 12.5 2.25 12.5H2.2575C2.80978 12.5 3.2575 12.9477 3.2575 13.5C3.2575 14.0523 2.80978 14.5 2.2575 14.5H2.25C1.69772 14.5 1.25 14.0523 1.25 13.5Z" fill="#6D7082"/>
</svg>
