<svg width="18" height="18" viewBox="0 0 18 18" fill="none" xmlns="http://www.w3.org/2000/svg">
<path fill-rule="evenodd" clip-rule="evenodd" d="M7.25 3.75C7.25 2.7835 8.0335 2 9 2C9.9665 2 10.75 2.7835 10.75 3.75C10.75 4.7165 9.9665 5.5 9 5.5C8.0335 5.5 7.25 4.7165 7.25 3.75ZM9 7.25C8.0335 7.25 7.25 8.0335 7.25 9C7.25 9.9665 8.0335 10.75 9 10.75C9.9665 10.75 10.75 9.9665 10.75 9C10.75 8.0335 9.9665 7.25 9 7.25ZM9 12.5C8.0335 12.5 7.25 13.2835 7.25 14.25C7.25 15.2165 8.0335 16 9 16C9.9665 16 10.75 15.2165 10.75 14.25C10.75 13.2835 9.9665 12.5 9 12.5Z" fill="#6D7082"/>
</svg>
