<svg width="32" height="32" viewBox="0 0 32 32" fill="none" xmlns="http://www.w3.org/2000/svg">
<rect width="32" height="32" rx="5" fill="#D6E5FD"/>
<g clip-path="url(#clip0)">
<path fill-rule="evenodd" clip-rule="evenodd" d="M9.98223 8.23223C10.4511 7.76339 11.087 7.5 11.75 7.5H17C17.2652 7.5 17.5196 7.60536 17.7071 7.79289L22.9571 13.0429C23.1446 13.2304 23.25 13.4848 23.25 13.75V22C23.25 22.663 22.9866 23.2989 22.5178 23.7678C22.0489 24.2366 21.413 24.5 20.75 24.5H11.75C11.087 24.5 10.4511 24.2366 9.98223 23.7678C9.51339 23.2989 9.25 22.663 9.25 22V10C9.25 9.33696 9.51339 8.70107 9.98223 8.23223ZM11.75 9.5C11.6174 9.5 11.4902 9.55268 11.3964 9.64645C11.3027 9.74021 11.25 9.86739 11.25 10V22C11.25 22.1326 11.3027 22.2598 11.3964 22.3536C11.4902 22.4473 11.6174 22.5 11.75 22.5H20.75C20.8826 22.5 21.0098 22.4473 21.1036 22.3536C21.1973 22.2598 21.25 22.1326 21.25 22V14.1642L16.5858 9.5H11.75Z" fill="#307DF6"/>
<path fill-rule="evenodd" clip-rule="evenodd" d="M17 7.5C17.5523 7.5 18 7.94772 18 8.5V12.75H22.25C22.8023 12.75 23.25 13.1977 23.25 13.75C23.25 14.3023 22.8023 14.75 22.25 14.75H17C16.4477 14.75 16 14.3023 16 13.75V8.5C16 7.94772 16.4477 7.5 17 7.5Z" fill="#307DF6"/>
<path d="M14.6184 17.9714C14.6184 18.3303 14.5122 18.6079 14.2998 18.8042C14.0889 18.999 13.7886 19.0964 13.3989 19.0964H13.255C13.1998 19.0964 13.155 19.1412 13.155 19.1964V20.0621C13.155 20.1173 13.1103 20.1621 13.055 20.1621H12.3871C12.3319 20.1621 12.2871 20.1173 12.2871 20.0621V17.0497C12.2871 16.9945 12.3319 16.9497 12.3871 16.9497H13.3989C13.8047 16.9497 14.1094 17.0383 14.313 17.2156C14.5166 17.3928 14.6184 17.6448 14.6184 17.9714ZM13.155 18.2889C13.155 18.3441 13.1998 18.3889 13.255 18.3889H13.3132C13.4436 18.3889 13.5469 18.3523 13.623 18.2791C13.7007 18.2058 13.7395 18.1047 13.7395 17.9758C13.7395 17.759 13.6194 17.6506 13.3792 17.6506H13.255C13.1998 17.6506 13.155 17.6954 13.155 17.7506V18.2889Z" fill="#307DF6"/>
<path d="M17.8572 18.4878C17.8572 19.0239 17.7092 19.437 17.4133 19.7271C17.1189 20.0171 16.7043 20.1621 16.1697 20.1621H15.2304C15.1751 20.1621 15.1304 20.1173 15.1304 20.0621V17.0497C15.1304 16.9945 15.1751 16.9497 15.2304 16.9497H16.2422C16.7578 16.9497 17.1555 17.0815 17.4353 17.3452C17.7166 17.6089 17.8572 17.9897 17.8572 18.4878ZM16.9563 18.5186C16.9563 18.2241 16.8977 18.0059 16.7805 17.8638C16.6648 17.7217 16.4883 17.6506 16.251 17.6506H16.0983C16.0431 17.6506 15.9983 17.6954 15.9983 17.7506V19.3502C15.9983 19.4054 16.0431 19.4502 16.0983 19.4502H16.1917C16.4553 19.4502 16.6487 19.374 16.7717 19.2217C16.8948 19.0679 16.9563 18.8335 16.9563 18.5186Z" fill="#307DF6"/>
<path d="M19.2898 20.0621C19.2898 20.1173 19.245 20.1621 19.1898 20.1621H18.5351C18.4798 20.1621 18.4351 20.1173 18.4351 20.0621V17.0497C18.4351 16.9945 18.4798 16.9497 18.5351 16.9497H20.2335C20.2887 16.9497 20.3335 16.9945 20.3335 17.0497V17.5462C20.3335 17.6015 20.2887 17.6462 20.2335 17.6462H19.3898C19.3346 17.6462 19.2898 17.691 19.2898 17.7462V18.1593C19.2898 18.2145 19.3346 18.2593 19.3898 18.2593H20.1522C20.2074 18.2593 20.2522 18.304 20.2522 18.3593V18.8558C20.2522 18.911 20.2074 18.9558 20.1522 18.9558H19.3898C19.3346 18.9558 19.2898 19.0006 19.2898 19.0558V20.0621Z" fill="#307DF6"/>
</g>
<defs>
<clipPath id="clip0">
<rect width="18" height="18" fill="white" transform="translate(7 7)"/>
</clipPath>
</defs>
</svg>
