<svg width="18" height="18" viewBox="0 0 18 18" fill="none" xmlns="http://www.w3.org/2000/svg">
<path fill-rule="evenodd" clip-rule="evenodd" d="M7.85611 2.56631C8.22128 2.72503 8.45749 3.08526 8.45749 3.48343L8.45748 4.65536L10.3283 2.92022C10.6198 2.64982 11.0438 2.57784 11.4083 2.73688C11.7727 2.89592 12.0083 3.25577 12.0083 3.6534V5.58142C12.9627 5.75582 14.0679 6.18877 15.0362 7.02504C16.4059 8.20794 17.4072 10.1163 17.4072 12.9627C17.4072 13.3634 17.168 13.7253 16.7994 13.8825C16.4309 14.0397 16.0042 13.9617 15.7151 13.6845L15.713 13.6825L15.702 13.6721C15.6918 13.6625 15.6759 13.6475 15.6547 13.6278C15.6122 13.5884 15.5489 13.5303 15.4686 13.4587C15.3074 13.3149 15.0802 13.1186 14.8171 12.9094C14.2651 12.4704 13.6497 12.0515 13.1786 11.876C12.8757 11.7631 12.441 11.6797 12.0083 11.6233V14.1769C12.0083 14.5736 11.7738 14.9327 11.4107 15.0924C11.0476 15.252 10.6245 15.1819 10.3322 14.9137L8.45744 13.1935L8.45744 14.5172C8.45744 14.9169 8.21949 15.2781 7.85232 15.436C7.48516 15.5938 7.05929 15.5178 6.76931 15.2428L0.904647 9.68097C0.704512 9.49116 0.59166 9.22713 0.592782 8.95131C0.593904 8.67549 0.708901 8.41238 0.910574 8.22421L6.77529 2.75225C7.06642 2.48062 7.49095 2.40759 7.85611 2.56631ZM6.45745 11.3584L4.6286 9.68031C4.42288 9.49154 4.30544 9.22537 4.30469 8.94617C4.30394 8.66696 4.41995 8.40016 4.62466 8.2103L6.45748 6.51036L6.45748 5.78414L3.05226 8.96131L6.45745 12.1907L6.45745 11.3584ZM11.0083 10.5342C11.042 9.53473 11.0421 9.53474 11.0422 9.53474L11.0083 10.5342ZM11.0448 9.53483L11.0422 9.53474C10.7713 9.5256 10.5081 9.62682 10.3132 9.81523C10.1183 10.0036 10.0083 10.2631 10.0083 10.5342V11.9022L6.77948 8.93953L10.0083 5.94481V6.48666C10.0083 7.03894 10.456 7.48666 11.0083 7.48666C11.7064 7.48666 12.8129 7.74748 13.729 8.53868C14.259 8.99646 14.7595 9.66101 15.0736 10.6274C14.6907 10.3796 14.2791 10.1517 13.877 10.0019C13.2844 9.78104 12.5525 9.66983 12.0253 9.61089C11.7504 9.58015 11.5079 9.56128 11.3336 9.55004C11.2463 9.5444 11.1754 9.54065 11.1254 9.53827L11.0666 9.53566L11.0498 9.53501L11.0448 9.53483Z" fill="#6D7082"/>
</svg>
