<svg width="18" height="18" viewBox="0 0 18 18" fill="none" xmlns="http://www.w3.org/2000/svg">
<g clip-path="url(#clip0)">
<path fill-rule="evenodd" clip-rule="evenodd" d="M9.63766 1.09161C9.99233 1.25485 10.2196 1.60958 10.2196 2.00001V4.83577C11.5859 5.01105 13.255 5.55383 14.7057 6.71041C16.5793 8.20419 18 10.6534 18 14.3846C18 14.7781 17.7693 15.135 17.4105 15.2965C17.0518 15.458 16.6317 15.3941 16.3372 15.1334L16.3331 15.1298L16.3162 15.115C16.3006 15.1015 16.2768 15.0808 16.2453 15.0538C16.1824 14.9999 16.0891 14.9209 15.971 14.8237C15.7344 14.6288 15.4007 14.3627 15.0137 14.0786C14.2155 13.4927 13.2803 12.8977 12.5251 12.6379C11.9592 12.4432 11.1467 12.3172 10.4225 12.2424C10.3532 12.2353 10.2854 12.2286 10.2196 12.2225V16C10.2196 16.3895 9.99344 16.7435 9.64008 16.9073C9.28671 17.0711 8.87041 17.0148 8.57323 16.7631L0.353663 9.80074C0.130057 9.61134 0.000782153 9.33339 3.53726e-06 9.04035C-0.000775078 8.74731 0.127021 8.46867 0.349617 8.27809L8.56918 1.24041C8.86576 0.986477 9.283 0.928374 9.63766 1.09161ZM9.21956 11.1539C9.25069 10.1543 9.25079 10.1543 9.2509 10.1544L9.25382 10.1544L9.26024 10.1547L9.28264 10.1555C9.30174 10.1562 9.32903 10.1573 9.36374 10.1588C9.43314 10.1618 9.53236 10.1667 9.65511 10.174C9.90015 10.1886 10.2414 10.2131 10.6278 10.253C11.3791 10.3305 12.3821 10.4737 13.1757 10.7467C14.0644 11.0524 15.01 11.6308 15.7777 12.166C15.3744 10.3056 14.47 9.08034 13.4589 8.27423C12.047 7.1485 10.3342 6.76925 9.21956 6.76925C8.66728 6.76925 8.21956 6.32153 8.21956 5.76925V4.1727L2.54234 9.03359L8.21956 13.8424V11.1539C8.21956 10.8832 8.32924 10.6242 8.52355 10.4358C8.71786 10.2475 8.98042 10.1459 9.2509 10.1544L9.21956 11.1539Z" fill="#6D7082"/>
</g>
<defs>
<clipPath id="clip0">
<rect width="18" height="18" fill="white"/>
</clipPath>
</defs>
</svg>
