<svg width="18" height="18" viewBox="0 0 18 18" fill="none" xmlns="http://www.w3.org/2000/svg">
<path fill-rule="evenodd" clip-rule="evenodd" d="M17.2071 2.29289C17.5976 2.68342 17.5976 3.31658 17.2071 3.70711L9.70711 11.2071C9.31658 11.5976 8.68342 11.5976 8.29289 11.2071L6.04289 8.95711C5.65237 8.56658 5.65237 7.93342 6.04289 7.54289C6.43342 7.15237 7.06658 7.15237 7.45711 7.54289L9 9.08579L15.7929 2.29289C16.1834 1.90237 16.8166 1.90237 17.2071 2.29289Z" fill="#6D7082"/>
<path fill-rule="evenodd" clip-rule="evenodd" d="M3.75 3.25C3.61739 3.25 3.49021 3.30268 3.39645 3.39645C3.30268 3.49021 3.25 3.61739 3.25 3.75V14.25C3.25 14.3826 3.30268 14.5098 3.39645 14.6036C3.49022 14.6973 3.61739 14.75 3.75 14.75H14.25C14.3826 14.75 14.5098 14.6973 14.6036 14.6036C14.6973 14.5098 14.75 14.3826 14.75 14.25V9C14.75 8.44772 15.1977 8 15.75 8C16.3023 8 16.75 8.44772 16.75 9V14.25C16.75 14.913 16.4866 15.5489 16.0178 16.0178C15.5489 16.4866 14.913 16.75 14.25 16.75H3.75C3.08696 16.75 2.45107 16.4866 1.98223 16.0178C1.51339 15.5489 1.25 14.913 1.25 14.25V3.75C1.25 3.08696 1.51339 2.45107 1.98223 1.98223C2.45107 1.51339 3.08696 1.25 3.75 1.25H12C12.5523 1.25 13 1.69772 13 2.25C13 2.80228 12.5523 3.25 12 3.25H3.75Z" fill="#6D7082"/>
</svg>
