<svg width="18" height="17" viewBox="0 0 18 17" fill="none" xmlns="http://www.w3.org/2000/svg">
<path fill-rule="evenodd" clip-rule="evenodd" d="M9.00003 0.5C9.38065 0.5 9.72827 0.716072 9.89674 1.05738L11.9818 5.28147L16.6447 5.96301C17.0212 6.01805 17.3339 6.28206 17.4513 6.64407C17.5687 7.00607 17.4704 7.40333 17.1978 7.66886L13.8246 10.9544L14.6206 15.596C14.685 15.9711 14.5307 16.3503 14.2228 16.5741C13.9148 16.7978 13.5065 16.8273 13.1696 16.6501L9.00003 14.4573L4.83048 16.6501C4.49356 16.8273 4.08527 16.7978 3.7773 16.5741C3.46932 16.3503 3.31507 15.9711 3.37942 15.596L4.17551 10.9544L0.802296 7.66886C0.529678 7.40333 0.431405 7.00607 0.548783 6.64407C0.666161 6.28206 0.978841 6.01805 1.3554 5.96301L6.01827 5.28147L8.10332 1.05738C8.27179 0.716072 8.61941 0.5 9.00003 0.5ZM9.00003 3.75925L7.57924 6.63762C7.4337 6.93247 7.15251 7.13693 6.82716 7.18449L3.64844 7.6491L5.94776 9.88864C6.18364 10.1184 6.2913 10.4495 6.23564 10.774L5.69321 13.9367L8.53458 12.4424C8.82596 12.2892 9.1741 12.2892 9.46548 12.4424L12.3068 13.9367L11.7644 10.774C11.7088 10.4495 11.8164 10.1184 12.0523 9.88864L14.3516 7.6491L11.1729 7.18449C10.8475 7.13693 10.5664 6.93247 10.4208 6.63762L9.00003 3.75925Z" fill="#6D7082"/>
</svg>
