<svg width="32" height="32" viewBox="0 0 32 32" fill="none" xmlns="http://www.w3.org/2000/svg">
<rect width="32" height="32" rx="5" fill="#D6E5FD"/>
<path fill-rule="evenodd" clip-rule="evenodd" d="M10.75 10.25C10.4739 10.25 10.25 10.4739 10.25 10.75V21.25C10.25 21.5261 10.4739 21.75 10.75 21.75H21.25C21.5261 21.75 21.75 21.5261 21.75 21.25V10.75C21.75 10.4739 21.5261 10.25 21.25 10.25H10.75ZM8.25 10.75C8.25 9.36929 9.36929 8.25 10.75 8.25H21.25C22.6307 8.25 23.75 9.36929 23.75 10.75V21.25C23.75 22.6307 22.6307 23.75 21.25 23.75H10.75C9.36929 23.75 8.25 22.6307 8.25 21.25V10.75Z" fill="#307DF6"/>
<path fill-rule="evenodd" clip-rule="evenodd" d="M13.375 13.25C13.306 13.25 13.25 13.306 13.25 13.375C13.25 13.444 13.306 13.5 13.375 13.5C13.444 13.5 13.5 13.444 13.5 13.375C13.5 13.306 13.444 13.25 13.375 13.25ZM11.25 13.375C11.25 12.2014 12.2014 11.25 13.375 11.25C14.5486 11.25 15.5 12.2014 15.5 13.375C15.5 14.5486 14.5486 15.5 13.375 15.5C12.2014 15.5 11.25 14.5486 11.25 13.375Z" fill="#307DF6"/>
<path fill-rule="evenodd" clip-rule="evenodd" d="M18.2929 13.7929C18.6834 13.4024 19.3166 13.4024 19.7071 13.7929L23.4571 17.5429C23.8476 17.9334 23.8476 18.5666 23.4571 18.9571C23.0666 19.3476 22.4334 19.3476 22.0429 18.9571L19 15.9142L11.4571 23.4571C11.0666 23.8476 10.4334 23.8476 10.0429 23.4571C9.65237 23.0666 9.65237 22.4334 10.0429 22.0429L18.2929 13.7929Z" fill="#307DF6"/>
</svg>
