<svg width="45" height="14" viewBox="0 0 45 14" fill="none" xmlns="http://www.w3.org/2000/svg">
<path d="M0.4375 13V1.57812H2.85938V13H0.4375ZM13.6094 13H11.2266V7.89844C11.2266 7.26823 11.1146 6.79688 10.8906 6.48438C10.6667 6.16667 10.3099 6.00781 9.82031 6.00781C9.15365 6.00781 8.67188 6.23177 8.375 6.67969C8.07812 7.1224 7.92969 7.85938 7.92969 8.89062V13H5.54688V4.26562H7.36719L7.6875 5.38281H7.82031C8.08594 4.96094 8.45052 4.64323 8.91406 4.42969C9.38281 4.21094 9.91406 4.10156 10.5078 4.10156C11.5234 4.10156 12.2943 4.3776 12.8203 4.92969C13.3464 5.47656 13.6094 6.26823 13.6094 7.30469V13ZM20.9219 4.10156C21.9531 4.10156 22.7604 4.50521 23.3438 5.3125C23.9271 6.11458 24.2188 7.21615 24.2188 8.61719C24.2188 10.0599 23.9167 11.1771 23.3125 11.9688C22.7135 12.7604 21.8958 13.1562 20.8594 13.1562C19.8333 13.1562 19.0286 12.7839 18.4453 12.0391H18.2812L17.8828 13H16.0625V0.84375H18.4453V3.67188C18.4453 4.03125 18.4141 4.60677 18.3516 5.39844H18.4453C19.0026 4.53385 19.8281 4.10156 20.9219 4.10156ZM20.1562 6.00781C19.5677 6.00781 19.138 6.1901 18.8672 6.55469C18.5964 6.91406 18.4557 7.51042 18.4453 8.34375V8.60156C18.4453 9.53906 18.5833 10.2109 18.8594 10.6172C19.1406 11.0234 19.5833 11.2266 20.1875 11.2266C20.6771 11.2266 21.0651 11.0026 21.3516 10.5547C21.6432 10.1016 21.7891 9.44531 21.7891 8.58594C21.7891 7.72656 21.6432 7.08333 21.3516 6.65625C21.0599 6.22396 20.6615 6.00781 20.1562 6.00781ZM28.0859 8.61719C28.0859 9.48177 28.2266 10.1354 28.5078 10.5781C28.7943 11.0208 29.2578 11.2422 29.8984 11.2422C30.5339 11.2422 30.9896 11.0234 31.2656 10.5859C31.5469 10.1432 31.6875 9.48698 31.6875 8.61719C31.6875 7.7526 31.5469 7.10417 31.2656 6.67188C30.9844 6.23958 30.5234 6.02344 29.8828 6.02344C29.2474 6.02344 28.7891 6.23958 28.5078 6.67188C28.2266 7.09896 28.0859 7.7474 28.0859 8.61719ZM34.125 8.61719C34.125 10.0391 33.75 11.151 33 11.9531C32.25 12.7552 31.2057 13.1562 29.8672 13.1562C29.0286 13.1562 28.2891 12.974 27.6484 12.6094C27.0078 12.2396 26.5156 11.7109 26.1719 11.0234C25.8281 10.3359 25.6562 9.53385 25.6562 8.61719C25.6562 7.1901 26.0286 6.08073 26.7734 5.28906C27.5182 4.4974 28.5651 4.10156 29.9141 4.10156C30.7526 4.10156 31.4922 4.28385 32.1328 4.64844C32.7734 5.01302 33.2656 5.53646 33.6094 6.21875C33.9531 6.90104 34.125 7.70052 34.125 8.61719ZM37.8828 8.53906L35.0703 4.26562H37.7734L39.4688 7.04688L41.1797 4.26562H43.8828L41.0391 8.53906L44.0156 13H41.3047L39.4688 10.0078L37.625 13H34.9219L37.8828 8.53906Z" fill="#307DF6"/>
</svg>
