<svg width="34" height="34" viewBox="0 0 34 34" fill="none" xmlns="http://www.w3.org/2000/svg">
<rect width="34" height="34" rx="6" fill="#F1F3F9"/>
<path fill-rule="evenodd" clip-rule="evenodd" d="M9.25 10.25C9.25 9.69772 9.69772 9.25 10.25 9.25H15.5C16.0523 9.25 16.5 9.69772 16.5 10.25V15.5C16.5 16.0523 16.0523 16.5 15.5 16.5H10.25C9.69772 16.5 9.25 16.0523 9.25 15.5V10.25ZM11.25 11.25V14.5H14.5V11.25H11.25Z" fill="#6D7082"/>
<path fill-rule="evenodd" clip-rule="evenodd" d="M17.5 10.25C17.5 9.69772 17.9477 9.25 18.5 9.25H23.75C24.3023 9.25 24.75 9.69772 24.75 10.25V15.5C24.75 16.0523 24.3023 16.5 23.75 16.5H18.5C17.9477 16.5 17.5 16.0523 17.5 15.5V10.25ZM19.5 11.25V14.5H22.75V11.25H19.5Z" fill="#6D7082"/>
<path fill-rule="evenodd" clip-rule="evenodd" d="M17.5 18.5C17.5 17.9477 17.9477 17.5 18.5 17.5H23.75C24.3023 17.5 24.75 17.9477 24.75 18.5V23.75C24.75 24.3023 24.3023 24.75 23.75 24.75H18.5C17.9477 24.75 17.5 24.3023 17.5 23.75V18.5ZM19.5 19.5V22.75H22.75V19.5H19.5Z" fill="#6D7082"/>
<path fill-rule="evenodd" clip-rule="evenodd" d="M9.25 18.5C9.25 17.9477 9.69772 17.5 10.25 17.5H15.5C16.0523 17.5 16.5 17.9477 16.5 18.5V23.75C16.5 24.3023 16.0523 24.75 15.5 24.75H10.25C9.69772 24.75 9.25 24.3023 9.25 23.75V18.5ZM11.25 19.5V22.75H14.5V19.5H11.25Z" fill="#6D7082"/>
</svg>
