<svg width="76" height="16" viewBox="0 0 76 16" fill="none" xmlns="http://www.w3.org/2000/svg">
<path d="M5.48482 16C4.64986 16 3.89408 15.8703 3.21747 15.6108C2.54087 15.3369 1.96503 14.9477 1.48997 14.4432C1.01491 13.9387 0.647814 13.3189 0.388688 12.5838C0.129563 11.8486 0 11.0054 0 10.0541C0 9.1027 0.129563 8.25946 0.388688 7.52432C0.647814 6.78919 1.01491 6.16937 1.48997 5.66486C1.96503 5.16036 2.53367 4.77838 3.19588 4.51892C3.85809 4.24505 4.59228 4.10811 5.39845 4.10811C6.2622 4.10811 7.02518 4.25946 7.68739 4.56216C8.36399 4.86486 8.93263 5.27568 9.3933 5.79459C9.85396 6.2991 10.1995 6.8973 10.4298 7.58919C10.6745 8.26667 10.7969 8.98018 10.7969 9.72973C10.7969 9.88829 10.7897 10.0324 10.7753 10.1622C10.7609 10.2919 10.7465 10.4072 10.7321 10.5081C10.7177 10.6234 10.7033 10.7243 10.6889 10.8108H2.59125C2.64884 11.6757 2.92956 12.382 3.43341 12.9297C3.95166 13.4631 4.64266 13.7297 5.50642 13.7297C6.11104 13.7297 6.5861 13.6072 6.93161 13.3622C7.2915 13.1171 7.60821 12.8072 7.88173 12.4324H10.581C10.4226 12.9225 10.1995 13.3838 9.91155 13.8162C9.62363 14.2486 9.27093 14.6306 8.85345 14.9622C8.43597 15.2793 7.94651 15.5315 7.38507 15.7189C6.82364 15.9063 6.19022 16 5.48482 16ZM8.20564 8.86486C8.09047 8.15856 7.79536 7.56757 7.32029 7.09189C6.85963 6.61622 6.21901 6.37838 5.39845 6.37838C4.63547 6.37838 4.01644 6.6018 3.54138 7.04865C3.06632 7.4955 2.74961 8.1009 2.59125 8.86486H8.20564Z" fill="#393939"/>
<path d="M13.0659 4.32432H15.1173L15.4412 5.72973H15.5492C15.8803 5.18198 16.3194 4.77838 16.8664 4.51892C17.4279 4.24505 18.0325 4.10811 18.6803 4.10811C19.2993 4.10811 19.868 4.22342 20.3862 4.45405C20.9045 4.67027 21.3435 4.98018 21.7034 5.38378C22.0777 5.78739 22.3657 6.27748 22.5672 6.85405C22.7831 7.41622 22.8911 8.05045 22.8911 8.75676V15.7838H20.4078V8.97297C20.4078 8.15135 20.1847 7.51712 19.7384 7.07027C19.3065 6.60901 18.7379 6.37838 18.0325 6.37838C17.6582 6.37838 17.3127 6.45045 16.996 6.59459C16.6937 6.72432 16.4346 6.91171 16.2186 7.15676C16.0027 7.38739 15.8371 7.66847 15.722 8C15.6068 8.31712 15.5492 8.65586 15.5492 9.01622V15.7838H13.0659V4.32432Z" fill="#393939"/>
<path d="M29.6948 15.7838C28.6583 15.7838 27.8594 15.5099 27.2979 14.9622C26.7365 14.4 26.4558 13.6288 26.4558 12.6486V6.59459H24.6203V4.32432H26.4558L26.7797 1.2973H28.939V4.32432H31.7462V6.59459H28.939V12.3243C28.939 12.6559 29.0398 12.9369 29.2414 13.1676C29.4573 13.3982 29.7524 13.5135 30.1267 13.5135H31.7462V15.7838H29.6948Z" fill="#393939"/>
<path d="M34.006 4.32432H36.4893V15.7838H34.006V4.32432ZM35.2368 3.02703C34.7762 3.02703 34.4019 2.88288 34.114 2.59459C33.826 2.30631 33.6821 1.94595 33.6821 1.51351C33.6821 1.08108 33.826 0.72072 34.114 0.432432C34.4019 0.144144 34.7762 0 35.2368 0C35.6975 0 36.0718 0.144144 36.3597 0.432432C36.662 0.72072 36.8132 1.08108 36.8132 1.51351C36.8132 1.94595 36.662 2.30631 36.3597 2.59459C36.0718 2.88288 35.6975 3.02703 35.2368 3.02703Z" fill="#393939"/>
<path d="M43.4018 15.7838C42.3653 15.7838 41.5664 15.5099 41.0049 14.9622C40.4435 14.4 40.1628 13.6288 40.1628 12.6486V6.59459H38.3273V4.32432H40.1628L40.4867 1.2973H42.646V4.32432H45.4532V6.59459H42.646V12.3243C42.646 12.6559 42.7468 12.9369 42.9484 13.1676C43.1643 13.3982 43.4594 13.5135 43.8337 13.5135H45.4532V15.7838H43.4018Z" fill="#393939"/>
<path d="M47.821 0.648648H50.3042V15.7838H47.821V0.648648Z" fill="#393939"/>
<path d="M58.1619 16C57.3269 16 56.5711 15.8703 55.8945 15.6108C55.2179 15.3369 54.6421 14.9477 54.167 14.4432C53.6919 13.9387 53.3248 13.3189 53.0657 12.5838C52.8066 11.8486 52.677 11.0054 52.677 10.0541C52.677 9.1027 52.8066 8.25946 53.0657 7.52432C53.3248 6.78919 53.6919 6.16937 54.167 5.66486C54.6421 5.16036 55.2107 4.77838 55.8729 4.51892C56.5351 4.24505 57.2693 4.10811 58.0755 4.10811C58.9392 4.10811 59.7022 4.25946 60.3644 4.56216C61.041 4.86486 61.6097 5.27568 62.0703 5.79459C62.531 6.2991 62.8765 6.8973 63.1068 7.58919C63.3516 8.26667 63.4739 8.98018 63.4739 9.72973C63.4739 9.88829 63.4667 10.0324 63.4523 10.1622C63.4379 10.2919 63.4235 10.4072 63.4091 10.5081C63.3947 10.6234 63.3803 10.7243 63.366 10.8108H55.2683C55.3259 11.6757 55.6066 12.382 56.1104 12.9297C56.6287 13.4631 57.3197 13.7297 58.1834 13.7297C58.7881 13.7297 59.2631 13.6072 59.6086 13.3622C59.9685 13.1171 60.2852 12.8072 60.5588 12.4324H63.258C63.0996 12.9225 62.8765 13.3838 62.5886 13.8162C62.3007 14.2486 61.948 14.6306 61.5305 14.9622C61.113 15.2793 60.6235 15.5315 60.0621 15.7189C59.5007 15.9063 58.8672 16 58.1619 16ZM60.8827 8.86486C60.7675 8.15856 60.4724 7.56757 59.9973 7.09189C59.5367 6.61622 58.896 6.37838 58.0755 6.37838C57.3125 6.37838 56.6935 6.6018 56.2184 7.04865C55.7433 7.4955 55.4266 8.1009 55.2683 8.86486H60.8827Z" fill="#393939"/>
<path d="M70.1697 16C69.4355 16 68.7661 15.8703 68.1615 15.6108C67.5568 15.3514 67.0314 14.9766 66.5851 14.4865C66.1532 13.982 65.8149 13.3622 65.5702 12.627C65.3255 11.8775 65.2031 11.0198 65.2031 10.0541C65.2031 9.08829 65.3255 8.23784 65.5702 7.5027C65.8149 6.75315 66.1532 6.13333 66.5851 5.64324C67.0314 5.13874 67.5568 4.75676 68.1615 4.4973C68.7661 4.23784 69.4355 4.10811 70.1697 4.10811C70.5728 4.10811 70.9471 4.15856 71.2926 4.25946C71.6381 4.34595 71.9476 4.46847 72.2211 4.62703C72.509 4.77117 72.7465 4.93694 72.9337 5.12432C73.1352 5.2973 73.2936 5.46306 73.4087 5.62162H73.5167V0.648648H76V15.7838H73.9486L73.6247 14.3784H73.5167C73.1856 14.8108 72.7321 15.1928 72.1563 15.5243C71.5949 15.8414 70.9327 16 70.1697 16ZM70.6016 13.7297C71.0046 13.7297 71.3789 13.6577 71.7244 13.5135C72.0843 13.355 72.3938 13.1243 72.653 12.8216C72.9265 12.5189 73.1352 12.1369 73.2792 11.6757C73.4375 11.2144 73.5167 10.6739 73.5167 10.0541C73.5167 9.43423 73.4375 8.89369 73.2792 8.43243C73.1352 7.97117 72.9265 7.58919 72.653 7.28649C72.3938 6.98378 72.0843 6.76036 71.7244 6.61622C71.3789 6.45766 71.0046 6.37838 70.6016 6.37838C70.1985 6.37838 69.817 6.45766 69.4571 6.61622C69.1116 6.76036 68.8021 6.98378 68.5286 7.28649C68.2694 7.58919 68.0607 7.97117 67.9023 8.43243C67.7584 8.89369 67.6864 9.43423 67.6864 10.0541C67.6864 10.6739 67.7584 11.2144 67.9023 11.6757C68.0607 12.1369 68.2694 12.5189 68.5286 12.8216C68.8021 13.1243 69.1116 13.355 69.4571 13.5135C69.817 13.6577 70.1985 13.7297 70.6016 13.7297Z" fill="#393939"/>
</svg>
