<svg width="32" height="32" viewBox="0 0 32 32" fill="none" xmlns="http://www.w3.org/2000/svg">
<path d="M0.5 9.6C0.5 7.91159 0.500389 6.67536 0.580085 5.69993C0.659303 4.73034 0.814384 4.06255 1.09946 3.50305C1.62677 2.46816 2.46816 1.62677 3.50305 1.09946C4.06255 0.814384 4.73034 0.659303 5.69993 0.580085C6.67536 0.500389 7.91159 0.5 9.6 0.5H22.4C24.0884 0.5 25.3246 0.500389 26.3001 0.580085C27.2697 0.659303 27.9374 0.814384 28.4969 1.09946C29.5318 1.62677 30.3732 2.46816 30.9005 3.50305C31.1856 4.06255 31.3407 4.73034 31.4199 5.69993C31.4996 6.67536 31.5 7.91159 31.5 9.6V22.4C31.5 24.0884 31.4996 25.3246 31.4199 26.3001C31.3407 27.2697 31.1856 27.9374 30.9005 28.4969C30.3732 29.5318 29.5318 30.3732 28.4969 30.9005C27.9374 31.1856 27.2697 31.3407 26.3001 31.4199C25.3246 31.4996 24.0884 31.5 22.4 31.5H9.6C7.91159 31.5 6.67536 31.4996 5.69993 31.4199C4.73034 31.3407 4.06255 31.1856 3.50305 30.9005C2.46816 30.3732 1.62677 29.5318 1.09946 28.4969C0.814384 27.9374 0.659303 27.2697 0.580085 26.3001C0.500389 25.3246 0.5 24.0884 0.5 22.4V9.6Z" fill="white" stroke="#E1E1E1"/>
<path fill-rule="evenodd" clip-rule="evenodd" d="M10 11C9.72728 11 9.5 11.2273 9.5 11.5V20.5C9.5 20.7727 9.72728 21 10 21H22C22.2727 21 22.5 20.7727 22.5 20.5V11.5C22.5 11.2273 22.2727 11 22 11H10ZM7.5 11.5C7.5 10.1227 8.62272 9 10 9H22C23.3773 9 24.5 10.1227 24.5 11.5V20.5C24.5 21.8773 23.3773 23 22 23H10C8.62272 23 7.5 21.8773 7.5 20.5V11.5Z" fill="#6D7082"/>
<path fill-rule="evenodd" clip-rule="evenodd" d="M7.68085 10.9266C7.99757 10.4742 8.6211 10.3641 9.07355 10.6809L16.0001 15.5294L22.9266 10.6809C23.3791 10.3641 24.0026 10.4742 24.3193 10.9266C24.636 11.3791 24.526 12.0026 24.0735 12.3193L16.5735 17.5693C16.2292 17.8103 15.7709 17.8103 15.4266 17.5693L7.92662 12.3193C7.47417 12.0026 7.36414 11.3791 7.68085 10.9266Z" fill="#6D7082"/>
</svg>
