<svg width="20" height="20" viewBox="0 0 20 20" fill="none" xmlns="http://www.w3.org/2000/svg">
<path fill-rule="evenodd" clip-rule="evenodd" d="M1.44804 3.11454C1.94814 2.61445 2.62641 2.3335 3.33366 2.3335H9.16699C9.71928 2.3335 10.167 2.78121 10.167 3.3335C10.167 3.88578 9.71928 4.3335 9.16699 4.3335H3.33366C3.15685 4.3335 2.98728 4.40373 2.86225 4.52876C2.73723 4.65378 2.66699 4.82335 2.66699 5.00016V16.6668C2.66699 16.8436 2.73723 17.0132 2.86225 17.1382C2.98728 17.2633 3.15685 17.3335 3.33366 17.3335H15.0003C15.1771 17.3335 15.3467 17.2633 15.4717 17.1382C15.5968 17.0132 15.667 16.8436 15.667 16.6668V10.8335C15.667 10.2812 16.1147 9.8335 16.667 9.8335C17.2193 9.8335 17.667 10.2812 17.667 10.8335V16.6668C17.667 17.3741 17.386 18.0524 16.8859 18.5524C16.3858 19.0525 15.7076 19.3335 15.0003 19.3335H3.33366C2.62641 19.3335 1.94814 19.0525 1.44804 18.5524C0.947944 18.0524 0.666992 17.3741 0.666992 16.6668V5.00016C0.666992 4.29292 0.947944 3.61464 1.44804 3.11454Z" fill="white"/>
<path fill-rule="evenodd" clip-rule="evenodd" d="M16.667 2.56543C16.4634 2.56543 16.2681 2.64632 16.1241 2.7903L8.40331 10.5111L8.04138 11.9588L9.4891 11.5969L17.2099 3.87609C17.3539 3.73211 17.4348 3.53682 17.4348 3.3332C17.4348 3.12957 17.3539 2.93429 17.2099 2.7903C17.0659 2.64632 16.8706 2.56543 16.667 2.56543ZM14.7099 1.37609C15.229 0.857033 15.933 0.56543 16.667 0.56543C17.4011 0.56543 18.1051 0.857033 18.6241 1.37609C19.1432 1.89515 19.4348 2.59914 19.4348 3.3332C19.4348 4.06725 19.1432 4.77125 18.6241 5.2903L10.7075 13.207C10.5793 13.3351 10.4187 13.426 10.2429 13.47L6.90955 14.3033C6.56877 14.3885 6.20829 14.2887 5.95991 14.0403C5.71153 13.7919 5.61168 13.4314 5.69687 13.0907L6.5302 9.75733C6.57416 9.5815 6.66508 9.42092 6.79324 9.29276L14.7099 1.37609Z" fill="white"/>
</svg>
