<svg width="32" height="32" viewBox="0 0 32 32" fill="none" xmlns="http://www.w3.org/2000/svg">
<path d="M0.5 9.6C0.5 7.91159 0.500389 6.67536 0.580085 5.69993C0.659303 4.73034 0.814384 4.06255 1.09946 3.50305C1.62677 2.46816 2.46816 1.62677 3.50305 1.09946C4.06255 0.814384 4.73034 0.659303 5.69993 0.580085C6.67536 0.500389 7.91159 0.5 9.6 0.5H22.4C24.0884 0.5 25.3246 0.500389 26.3001 0.580085C27.2697 0.659303 27.9374 0.814384 28.4969 1.09946C29.5318 1.62677 30.3732 2.46816 30.9005 3.50305C31.1856 4.06255 31.3407 4.73034 31.4199 5.69993C31.4996 6.67536 31.5 7.91159 31.5 9.6V22.4C31.5 24.0884 31.4996 25.3246 31.4199 26.3001C31.3407 27.2697 31.1856 27.9374 30.9005 28.4969C30.3732 29.5318 29.5318 30.3732 28.4969 30.9005C27.9374 31.1856 27.2697 31.3407 26.3001 31.4199C25.3246 31.4996 24.0884 31.5 22.4 31.5H9.6C7.91159 31.5 6.67536 31.4996 5.69993 31.4199C4.73034 31.3407 4.06255 31.1856 3.50305 30.9005C2.46816 30.3732 1.62677 29.5318 1.09946 28.4969C0.814384 27.9374 0.659303 27.2697 0.580085 26.3001C0.500389 25.3246 0.5 24.0884 0.5 22.4V9.6Z" fill="white" stroke="#E1E1E1"/>
<path d="M8.125 13.3281V8.96875C8.125 8.50117 8.50117 8.125 8.96875 8.125H13.3281C13.5602 8.125 13.75 8.31484 13.75 8.54688V9.95312C13.75 10.1852 13.5602 10.375 13.3281 10.375H10.375V13.3281C10.375 13.5602 10.1852 13.75 9.95312 13.75H8.54688C8.31484 13.75 8.125 13.5602 8.125 13.3281ZM18.25 8.54688V9.95312C18.25 10.1852 18.4398 10.375 18.6719 10.375H21.625V13.3281C21.625 13.5602 21.8148 13.75 22.0469 13.75H23.4531C23.6852 13.75 23.875 13.5602 23.875 13.3281V8.96875C23.875 8.50117 23.4988 8.125 23.0312 8.125H18.6719C18.4398 8.125 18.25 8.31484 18.25 8.54688ZM23.4531 18.25H22.0469C21.8148 18.25 21.625 18.4398 21.625 18.6719V21.625H18.6719C18.4398 21.625 18.25 21.8148 18.25 22.0469V23.4531C18.25 23.6852 18.4398 23.875 18.6719 23.875H23.0312C23.4988 23.875 23.875 23.4988 23.875 23.0312V18.6719C23.875 18.4398 23.6852 18.25 23.4531 18.25ZM13.75 23.4531V22.0469C13.75 21.8148 13.5602 21.625 13.3281 21.625H10.375V18.6719C10.375 18.4398 10.1852 18.25 9.95312 18.25H8.54688C8.31484 18.25 8.125 18.4398 8.125 18.6719V23.0312C8.125 23.4988 8.50117 23.875 8.96875 23.875H13.3281C13.5602 23.875 13.75 23.6852 13.75 23.4531Z" fill="#6D7082"/>
</svg>
