<svg width="24" height="24" viewBox="0 0 24 24" fill="none" xmlns="http://www.w3.org/2000/svg">
<rect width="24" height="24" rx="6" fill="#F1F3F9"/>
<path fill-rule="evenodd" clip-rule="evenodd" d="M17.0001 11.9997C17.0001 12.552 16.5523 12.9997 16.0001 12.9997H7.99995C7.44766 12.9997 6.99995 12.552 6.99995 11.9997C6.99995 11.4474 7.44766 10.9997 7.99995 10.9997H16.0001C16.5523 10.9997 17.0001 11.4474 17.0001 11.9997Z" fill="#6D7082"/>
<path fill-rule="evenodd" clip-rule="evenodd" d="M12 6.99966C12.5523 6.99966 13 7.44738 13 7.99966L13 15.9998C13 16.5521 12.5523 16.9998 12 16.9998C11.4477 16.9998 11 16.5521 11 15.9998L11 7.99966C11 7.44738 11.4477 6.99966 12 6.99966Z" fill="#6D7082"/>
</svg>
