<svg width="32" height="32" viewBox="0 0 32 32" fill="none" xmlns="http://www.w3.org/2000/svg">
<path d="M0.5 9.6C0.5 7.91159 0.500389 6.67536 0.580085 5.69993C0.659303 4.73034 0.814384 4.06255 1.09946 3.50305C1.62677 2.46816 2.46816 1.62677 3.50305 1.09946C4.06255 0.814384 4.73034 0.659303 5.69993 0.580085C6.67536 0.500389 7.91159 0.5 9.6 0.5H22.4C24.0884 0.5 25.3246 0.500389 26.3001 0.580085C27.2697 0.659303 27.9374 0.814384 28.4969 1.09946C29.5318 1.62677 30.3732 2.46816 30.9005 3.50305C31.1856 4.06255 31.3407 4.73034 31.4199 5.69993C31.4996 6.67536 31.5 7.91159 31.5 9.6V22.4C31.5 24.0884 31.4996 25.3246 31.4199 26.3001C31.3407 27.2697 31.1856 27.9374 30.9005 28.4969C30.3732 29.5318 29.5318 30.3732 28.4969 30.9005C27.9374 31.1856 27.2697 31.3407 26.3001 31.4199C25.3246 31.4996 24.0884 31.5 22.4 31.5H9.6C7.91159 31.5 6.67536 31.4996 5.69993 31.4199C4.73034 31.3407 4.06255 31.1856 3.50305 30.9005C2.46816 30.3732 1.62677 29.5318 1.09946 28.4969C0.814384 27.9374 0.659303 27.2697 0.580085 26.3001C0.500389 25.3246 0.5 24.0884 0.5 22.4V9.6Z" fill="white" stroke="#E1E1E1"/>
<path fill-rule="evenodd" clip-rule="evenodd" d="M17.25 9.25C17.25 8.69772 17.6977 8.25 18.25 8.25H21.25C21.913 8.25 22.5489 8.51339 23.0178 8.98223C23.4866 9.45107 23.75 10.087 23.75 10.75V21.25C23.75 21.913 23.4866 22.5489 23.0178 23.0178C22.5489 23.4866 21.913 23.75 21.25 23.75H18.25C17.6977 23.75 17.25 23.3023 17.25 22.75C17.25 22.1977 17.6977 21.75 18.25 21.75H21.25C21.3826 21.75 21.5098 21.6973 21.6036 21.6036C21.6973 21.5098 21.75 21.3826 21.75 21.25V10.75C21.75 10.6174 21.6973 10.4902 21.6036 10.3964C21.5098 10.3027 21.3826 10.25 21.25 10.25H18.25C17.6977 10.25 17.25 9.80228 17.25 9.25Z" fill="#6D7082"/>
<path fill-rule="evenodd" clip-rule="evenodd" d="M13.7929 11.5429C14.1834 11.1524 14.8166 11.1524 15.2071 11.5429L18.9571 15.2929C19.3476 15.6834 19.3476 16.3166 18.9571 16.7071L15.2071 20.4571C14.8166 20.8476 14.1834 20.8476 13.7929 20.4571C13.4024 20.0666 13.4024 19.4334 13.7929 19.0429L16.8358 16L13.7929 12.9571C13.4024 12.5666 13.4024 11.9334 13.7929 11.5429Z" fill="#6D7082"/>
<path fill-rule="evenodd" clip-rule="evenodd" d="M8.25 16C8.25 15.4477 8.69772 15 9.25 15H18.25C18.8023 15 19.25 15.4477 19.25 16C19.25 16.5523 18.8023 17 18.25 17H9.25C8.69772 17 8.25 16.5523 8.25 16Z" fill="#6D7082"/>
</svg>
