<svg width="42" height="42" viewBox="0 0 42 42" fill="none" xmlns="http://www.w3.org/2000/svg">
<path d="M0.5 9.6C0.5 7.91159 0.500389 6.67536 0.580085 5.69993C0.659303 4.73034 0.814384 4.06255 1.09946 3.50305C1.62677 2.46816 2.46816 1.62677 3.50305 1.09946C4.06255 0.814384 4.73034 0.659303 5.69993 0.580085C6.67536 0.500389 7.91159 0.5 9.6 0.5H32.4C34.0884 0.5 35.3246 0.500389 36.3001 0.580085C37.2697 0.659303 37.9374 0.814384 38.4969 1.09946C39.5318 1.62677 40.3732 2.46816 40.9005 3.50305C41.1856 4.06255 41.3407 4.73034 41.4199 5.69993C41.4996 6.67536 41.5 7.91159 41.5 9.6V32.4C41.5 34.0884 41.4996 35.3246 41.4199 36.3001C41.3407 37.2697 41.1856 37.9374 40.9005 38.4969C40.3732 39.5318 39.5318 40.3732 38.4969 40.9005C37.9374 41.1856 37.2697 41.3407 36.3001 41.4199C35.3246 41.4996 34.0884 41.5 32.4 41.5H9.6C7.91159 41.5 6.67536 41.4996 5.69993 41.4199C4.73034 41.3407 4.06255 41.1856 3.50305 40.9005C2.46816 40.3732 1.62677 39.5318 1.09946 38.4969C0.814384 37.9374 0.659303 37.2697 0.580085 36.3001C0.500389 35.3246 0.5 34.0884 0.5 32.4V9.6Z" fill="white" stroke="#E1E1E1"/>
<path fill-rule="evenodd" clip-rule="evenodd" d="M20.25 15.25C17.4886 15.25 15.25 17.4886 15.25 20.25C15.25 23.0114 17.4886 25.25 20.25 25.25C23.0114 25.25 25.25 23.0114 25.25 20.25C25.25 17.4886 23.0114 15.25 20.25 15.25ZM13.25 20.25C13.25 16.384 16.384 13.25 20.25 13.25C24.116 13.25 27.25 16.384 27.25 20.25C27.25 24.116 24.116 27.25 20.25 27.25C16.384 27.25 13.25 24.116 13.25 20.25Z" fill="#6D7082"/>
<path fill-rule="evenodd" clip-rule="evenodd" d="M23.7802 23.7802C24.1707 23.3897 24.8039 23.3897 25.1944 23.7802L28.4569 27.0427C28.8474 27.4332 28.8474 28.0664 28.4569 28.4569C28.0664 28.8474 27.4332 28.8474 27.0427 28.4569L23.7802 25.1944C23.3897 24.8039 23.3897 24.1707 23.7802 23.7802Z" fill="#6D7082"/>
</svg>