<svg width="32" height="32" viewBox="0 0 32 32" fill="none" xmlns="http://www.w3.org/2000/svg">
<path d="M0.5 9.6C0.5 7.91159 0.500389 6.67536 0.580085 5.69993C0.659303 4.73034 0.814384 4.06255 1.09946 3.50305C1.62677 2.46816 2.46816 1.62677 3.50305 1.09946C4.06255 0.814384 4.73034 0.659303 5.69993 0.580085C6.67536 0.500389 7.91159 0.5 9.6 0.5H22.4C24.0884 0.5 25.3246 0.500389 26.3001 0.580085C27.2697 0.659303 27.9374 0.814384 28.4969 1.09946C29.5318 1.62677 30.3732 2.46816 30.9005 3.50305C31.1856 4.06255 31.3407 4.73034 31.4199 5.69993C31.4996 6.67536 31.5 7.91159 31.5 9.6V22.4C31.5 24.0884 31.4996 25.3246 31.4199 26.3001C31.3407 27.2697 31.1856 27.9374 30.9005 28.4969C30.3732 29.5318 29.5318 30.3732 28.4969 30.9005C27.9374 31.1856 27.2697 31.3407 26.3001 31.4199C25.3246 31.4996 24.0884 31.5 22.4 31.5H9.6C7.91159 31.5 6.67536 31.4996 5.69993 31.4199C4.73034 31.3407 4.06255 31.1856 3.50305 30.9005C2.46816 30.3732 1.62677 29.5318 1.09946 28.4969C0.814384 27.9374 0.659303 27.2697 0.580085 26.3001C0.500389 25.3246 0.5 24.0884 0.5 22.4V9.6Z" fill="white" stroke="#E1E1E1"/>
<path fill-rule="evenodd" clip-rule="evenodd" d="M15.25 10.25C12.4886 10.25 10.25 12.4886 10.25 15.25C10.25 18.0114 12.4886 20.25 15.25 20.25C18.0114 20.25 20.25 18.0114 20.25 15.25C20.25 12.4886 18.0114 10.25 15.25 10.25ZM8.25 15.25C8.25 11.384 11.384 8.25 15.25 8.25C19.116 8.25 22.25 11.384 22.25 15.25C22.25 19.116 19.116 22.25 15.25 22.25C11.384 22.25 8.25 19.116 8.25 15.25Z" fill="#6D7082"/>
<path fill-rule="evenodd" clip-rule="evenodd" d="M18.7802 18.7802C19.1707 18.3897 19.8039 18.3897 20.1944 18.7802L23.4569 22.0427C23.8474 22.4332 23.8474 23.0664 23.4569 23.4569C23.0664 23.8474 22.4332 23.8474 22.0427 23.4569L18.7802 20.1944C18.3897 19.8039 18.3897 19.1707 18.7802 18.7802Z" fill="#6D7082"/>
</svg>
