<svg width="227" height="34" viewBox="0 0 227 34" fill="none" xmlns="http://www.w3.org/2000/svg">
<rect width="227" height="34" rx="6" fill="#E6EBFE"/>
<path d="M40.0137 19.3408C40.0137 20.2204 39.6947 20.9062 39.0566 21.3984C38.4186 21.8906 37.5527 22.1367 36.459 22.1367C35.2741 22.1367 34.3626 21.984 33.7246 21.6787V20.5576C34.1348 20.7308 34.5814 20.8675 35.0645 20.9678C35.5475 21.068 36.026 21.1182 36.5 21.1182C37.2747 21.1182 37.8581 20.9723 38.25 20.6807C38.6419 20.3844 38.8379 19.9743 38.8379 19.4502C38.8379 19.1038 38.7673 18.8213 38.626 18.6025C38.4893 18.3792 38.2568 18.1742 37.9287 17.9873C37.6051 17.8005 37.1107 17.5885 36.4453 17.3516C35.5156 17.0189 34.8503 16.6247 34.4492 16.1689C34.0527 15.7132 33.8545 15.1185 33.8545 14.3848C33.8545 13.6146 34.1439 13.0016 34.7227 12.5459C35.3014 12.0902 36.0671 11.8623 37.0195 11.8623C38.013 11.8623 38.9268 12.0446 39.7607 12.4092L39.3984 13.4209C38.5736 13.0745 37.7715 12.9014 36.9922 12.9014C36.377 12.9014 35.8962 13.0335 35.5498 13.2979C35.2035 13.5622 35.0303 13.929 35.0303 14.3984C35.0303 14.7448 35.0941 15.0296 35.2217 15.2529C35.3493 15.4717 35.5635 15.6745 35.8643 15.8613C36.1696 16.0436 36.6344 16.2464 37.2588 16.4697C38.307 16.8434 39.027 17.2445 39.4189 17.6729C39.8154 18.1012 40.0137 18.6572 40.0137 19.3408ZM44.3066 21.2002C44.5072 21.2002 44.7008 21.1865 44.8877 21.1592C45.0745 21.1273 45.2227 21.0954 45.332 21.0635V21.9316C45.209 21.9909 45.0267 22.0387 44.7852 22.0752C44.5482 22.1162 44.334 22.1367 44.1426 22.1367C42.6934 22.1367 41.9688 21.3734 41.9688 19.8467V15.3896H40.8955V14.8428L41.9688 14.3711L42.4473 12.7715H43.1035V14.5078H45.2773V15.3896H43.1035V19.7988C43.1035 20.25 43.2106 20.5964 43.4248 20.8379C43.639 21.0794 43.9329 21.2002 44.3066 21.2002ZM46.6719 21.2754C46.6719 20.9701 46.7402 20.7399 46.877 20.585C47.0182 20.4255 47.2188 20.3457 47.4785 20.3457C47.7428 20.3457 47.9479 20.4255 48.0938 20.585C48.2441 20.7399 48.3193 20.9701 48.3193 21.2754C48.3193 21.5716 48.2441 21.7995 48.0938 21.959C47.9434 22.1185 47.7383 22.1982 47.4785 22.1982C47.2461 22.1982 47.0524 22.1276 46.8975 21.9863C46.7471 21.8405 46.6719 21.6035 46.6719 21.2754ZM61.9229 12.0059V18.4727C61.9229 19.612 61.5788 20.5075 60.8906 21.1592C60.2025 21.8109 59.2568 22.1367 58.0537 22.1367C56.8506 22.1367 55.9186 21.8086 55.2578 21.1523C54.6016 20.4961 54.2734 19.5938 54.2734 18.4453V12.0059H55.4355V18.5273C55.4355 19.3613 55.6634 20.0016 56.1191 20.4482C56.5749 20.8949 57.2448 21.1182 58.1289 21.1182C58.972 21.1182 59.6214 20.8949 60.0771 20.4482C60.5329 19.9971 60.7607 19.3522 60.7607 18.5137V12.0059H61.9229ZM66.8242 21.2002C67.0247 21.2002 67.2184 21.1865 67.4053 21.1592C67.5921 21.1273 67.7402 21.0954 67.8496 21.0635V21.9316C67.7266 21.9909 67.5443 22.0387 67.3027 22.0752C67.0658 22.1162 66.8516 22.1367 66.6602 22.1367C65.2109 22.1367 64.4863 21.3734 64.4863 19.8467V15.3896H63.4131V14.8428L64.4863 14.3711L64.9648 12.7715H65.6211V14.5078H67.7949V15.3896H65.6211V19.7988C65.6211 20.25 65.7282 20.5964 65.9424 20.8379C66.1566 21.0794 66.4505 21.2002 66.8242 21.2002ZM70.4883 22H69.3535V14.5078H70.4883V22ZM69.2578 12.4775C69.2578 12.2178 69.3216 12.0286 69.4492 11.9102C69.5768 11.7871 69.7363 11.7256 69.9277 11.7256C70.11 11.7256 70.2673 11.7871 70.3994 11.9102C70.5316 12.0332 70.5977 12.2223 70.5977 12.4775C70.5977 12.7327 70.5316 12.9242 70.3994 13.0518C70.2673 13.1748 70.11 13.2363 69.9277 13.2363C69.7363 13.2363 69.5768 13.1748 69.4492 13.0518C69.3216 12.9242 69.2578 12.7327 69.2578 12.4775ZM75.8887 22.1367C74.804 22.1367 73.9632 21.804 73.3662 21.1387C72.7738 20.4688 72.4775 19.5231 72.4775 18.3018C72.4775 17.0485 72.7783 16.0801 73.3799 15.3965C73.986 14.7129 74.8473 14.3711 75.9639 14.3711C76.3239 14.3711 76.6839 14.4098 77.0439 14.4873C77.404 14.5648 77.6865 14.6559 77.8916 14.7607L77.543 15.7246C77.2923 15.6243 77.0189 15.5423 76.7227 15.4785C76.4264 15.4102 76.1644 15.376 75.9365 15.376C74.4144 15.376 73.6533 16.3467 73.6533 18.2881C73.6533 19.2087 73.8379 19.915 74.207 20.4072C74.5807 20.8994 75.1322 21.1455 75.8613 21.1455C76.4857 21.1455 77.126 21.0111 77.7822 20.7422V21.7471C77.2809 22.0068 76.6497 22.1367 75.8887 22.1367ZM84.1738 22L83.9482 20.9336H83.8936C83.5199 21.403 83.1462 21.722 82.7725 21.8906C82.4033 22.0547 81.9408 22.1367 81.3848 22.1367C80.6419 22.1367 80.0586 21.9453 79.6348 21.5625C79.2155 21.1797 79.0059 20.6351 79.0059 19.9287C79.0059 18.4157 80.2158 17.6227 82.6357 17.5498L83.9072 17.5088V17.0439C83.9072 16.4561 83.7796 16.0231 83.5244 15.7451C83.2738 15.4626 82.8704 15.3213 82.3145 15.3213C81.6901 15.3213 80.9837 15.5127 80.1953 15.8955L79.8467 15.0273C80.2158 14.8268 80.6191 14.6696 81.0566 14.5557C81.4987 14.4417 81.9408 14.3848 82.3828 14.3848C83.276 14.3848 83.9368 14.583 84.3652 14.9795C84.7982 15.376 85.0146 16.0117 85.0146 16.8867V22H84.1738ZM81.6104 21.2002C82.3167 21.2002 82.8704 21.0065 83.2715 20.6191C83.6771 20.2318 83.8799 19.6895 83.8799 18.9922V18.3154L82.7451 18.3633C81.8428 18.3952 81.1911 18.5365 80.79 18.7871C80.3936 19.0332 80.1953 19.4183 80.1953 19.9424C80.1953 20.3525 80.3184 20.6647 80.5645 20.8789C80.8151 21.0931 81.1637 21.2002 81.6104 21.2002ZM88.5488 20.373L88.6514 20.5303C88.5329 20.986 88.362 21.5146 88.1387 22.1162C87.9154 22.7223 87.6829 23.2852 87.4414 23.8047H86.5869C86.71 23.3307 86.8444 22.7451 86.9902 22.0479C87.1406 21.3506 87.2454 20.7923 87.3047 20.373H88.5488ZM100.936 14.918C100.936 15.9297 100.589 16.709 99.8965 17.2559C99.2083 17.7982 98.2217 18.0693 96.9365 18.0693H95.7607V22H94.5986V12.0059H97.1895C99.6868 12.0059 100.936 12.9766 100.936 14.918ZM95.7607 17.0713H96.8066C97.8366 17.0713 98.5817 16.9049 99.042 16.5723C99.5023 16.2396 99.7324 15.7064 99.7324 14.9727C99.7324 14.3118 99.516 13.8197 99.083 13.4961C98.6501 13.1725 97.9756 13.0107 97.0596 13.0107H95.7607V17.0713ZM106.028 22.1367C104.921 22.1367 104.046 21.7995 103.403 21.125C102.765 20.4505 102.446 19.514 102.446 18.3154C102.446 17.1077 102.743 16.1484 103.335 15.4375C103.932 14.7266 104.732 14.3711 105.734 14.3711C106.673 14.3711 107.416 14.681 107.963 15.3008C108.51 15.916 108.783 16.7295 108.783 17.7412V18.459H103.622C103.645 19.3385 103.866 20.0062 104.285 20.4619C104.709 20.9176 105.304 21.1455 106.069 21.1455C106.876 21.1455 107.674 20.9769 108.462 20.6396V21.6514C108.061 21.8245 107.68 21.9476 107.32 22.0205C106.965 22.098 106.534 22.1367 106.028 22.1367ZM105.721 15.3213C105.119 15.3213 104.638 15.5173 104.278 15.9092C103.923 16.3011 103.713 16.8434 103.649 17.5361H107.566C107.566 16.8206 107.407 16.2738 107.088 15.8955C106.769 15.5127 106.313 15.3213 105.721 15.3213ZM115.852 22V17.1533C115.852 16.5426 115.713 16.0869 115.435 15.7861C115.157 15.4854 114.721 15.335 114.129 15.335C113.345 15.335 112.771 15.5469 112.406 15.9707C112.042 16.3945 111.859 17.0941 111.859 18.0693V22H110.725V14.5078H111.647L111.832 15.5332H111.887C112.119 15.1641 112.445 14.8792 112.864 14.6787C113.284 14.4736 113.751 14.3711 114.266 14.3711C115.168 14.3711 115.847 14.5898 116.303 15.0273C116.758 15.4603 116.986 16.1553 116.986 17.1123V22H115.852ZM124.451 22V17.1533C124.451 16.5426 124.312 16.0869 124.034 15.7861C123.756 15.4854 123.321 15.335 122.729 15.335C121.945 15.335 121.37 15.5469 121.006 15.9707C120.641 16.3945 120.459 17.0941 120.459 18.0693V22H119.324V14.5078H120.247L120.432 15.5332H120.486C120.719 15.1641 121.045 14.8792 121.464 14.6787C121.883 14.4736 122.35 14.3711 122.865 14.3711C123.768 14.3711 124.447 14.5898 124.902 15.0273C125.358 15.4603 125.586 16.1553 125.586 17.1123V22H124.451ZM132.757 19.9561C132.757 20.6533 132.497 21.1911 131.978 21.5693C131.458 21.9476 130.729 22.1367 129.79 22.1367C128.797 22.1367 128.022 21.9795 127.466 21.665V20.6123C127.826 20.7946 128.211 20.9382 128.621 21.043C129.036 21.1478 129.435 21.2002 129.817 21.2002C130.41 21.2002 130.866 21.1068 131.185 20.9199C131.504 20.7285 131.663 20.4391 131.663 20.0518C131.663 19.7601 131.535 19.5117 131.28 19.3066C131.03 19.097 130.537 18.8509 129.804 18.5684C129.106 18.3086 128.61 18.083 128.313 17.8916C128.022 17.6956 127.803 17.4746 127.657 17.2285C127.516 16.9824 127.445 16.6885 127.445 16.3467C127.445 15.736 127.694 15.2552 128.19 14.9043C128.687 14.5488 129.368 14.3711 130.234 14.3711C131.041 14.3711 131.829 14.5352 132.6 14.8633L132.196 15.7861C131.444 15.4762 130.763 15.3213 130.152 15.3213C129.615 15.3213 129.209 15.4056 128.936 15.5742C128.662 15.7428 128.525 15.9753 128.525 16.2715C128.525 16.472 128.576 16.6429 128.676 16.7842C128.781 16.9255 128.947 17.0599 129.175 17.1875C129.403 17.3151 129.84 17.4997 130.487 17.7412C131.376 18.0648 131.975 18.3906 132.285 18.7188C132.6 19.0469 132.757 19.4593 132.757 19.9561ZM133.42 14.5078H134.637L136.277 18.7803C136.637 19.7555 136.861 20.4596 136.947 20.8926H137.002C137.061 20.6602 137.184 20.2637 137.371 19.7031C137.562 19.138 138.182 17.4062 139.23 14.5078H140.447L137.228 23.0391C136.909 23.8822 136.535 24.4792 136.106 24.8301C135.683 25.1855 135.161 25.3633 134.541 25.3633C134.195 25.3633 133.853 25.3245 133.516 25.2471V24.3379C133.766 24.3926 134.047 24.4199 134.356 24.4199C135.136 24.4199 135.692 23.9824 136.024 23.1074L136.441 22.041L133.42 14.5078ZM142.799 22H141.664V11.3633H142.799V22ZM146.846 22L144.002 14.5078H145.219L146.832 18.9512C147.197 19.9902 147.411 20.6647 147.475 20.9746H147.529C147.579 20.7331 147.737 20.234 148.001 19.4775C148.27 18.7165 148.869 17.0599 149.799 14.5078H151.016L148.172 22H146.846ZM156.826 22L156.601 20.9336H156.546C156.172 21.403 155.799 21.722 155.425 21.8906C155.056 22.0547 154.593 22.1367 154.037 22.1367C153.294 22.1367 152.711 21.9453 152.287 21.5625C151.868 21.1797 151.658 20.6351 151.658 19.9287C151.658 18.4157 152.868 17.6227 155.288 17.5498L156.56 17.5088V17.0439C156.56 16.4561 156.432 16.0231 156.177 15.7451C155.926 15.4626 155.523 15.3213 154.967 15.3213C154.342 15.3213 153.636 15.5127 152.848 15.8955L152.499 15.0273C152.868 14.8268 153.271 14.6696 153.709 14.5557C154.151 14.4417 154.593 14.3848 155.035 14.3848C155.928 14.3848 156.589 14.583 157.018 14.9795C157.451 15.376 157.667 16.0117 157.667 16.8867V22H156.826ZM154.263 21.2002C154.969 21.2002 155.523 21.0065 155.924 20.6191C156.329 20.2318 156.532 19.6895 156.532 18.9922V18.3154L155.397 18.3633C154.495 18.3952 153.843 18.5365 153.442 18.7871C153.046 19.0332 152.848 19.4183 152.848 19.9424C152.848 20.3525 152.971 20.6647 153.217 20.8789C153.467 21.0931 153.816 21.2002 154.263 21.2002ZM165.139 22V17.1533C165.139 16.5426 165 16.0869 164.722 15.7861C164.444 15.4854 164.008 15.335 163.416 15.335C162.632 15.335 162.058 15.5469 161.693 15.9707C161.329 16.3945 161.146 17.0941 161.146 18.0693V22H160.012V14.5078H160.935L161.119 15.5332H161.174C161.406 15.1641 161.732 14.8792 162.151 14.6787C162.571 14.4736 163.038 14.3711 163.553 14.3711C164.455 14.3711 165.134 14.5898 165.59 15.0273C166.046 15.4603 166.273 16.1553 166.273 17.1123V22H165.139ZM169.746 22H168.611V14.5078H169.746V22ZM168.516 12.4775C168.516 12.2178 168.579 12.0286 168.707 11.9102C168.835 11.7871 168.994 11.7256 169.186 11.7256C169.368 11.7256 169.525 11.7871 169.657 11.9102C169.789 12.0332 169.855 12.2223 169.855 12.4775C169.855 12.7327 169.789 12.9242 169.657 13.0518C169.525 13.1748 169.368 13.2363 169.186 13.2363C168.994 13.2363 168.835 13.1748 168.707 13.0518C168.579 12.9242 168.516 12.7327 168.516 12.4775ZM176.76 22L176.534 20.9336H176.479C176.106 21.403 175.732 21.722 175.358 21.8906C174.989 22.0547 174.527 22.1367 173.971 22.1367C173.228 22.1367 172.645 21.9453 172.221 21.5625C171.801 21.1797 171.592 20.6351 171.592 19.9287C171.592 18.4157 172.802 17.6227 175.222 17.5498L176.493 17.5088V17.0439C176.493 16.4561 176.366 16.0231 176.11 15.7451C175.86 15.4626 175.456 15.3213 174.9 15.3213C174.276 15.3213 173.57 15.5127 172.781 15.8955L172.433 15.0273C172.802 14.8268 173.205 14.6696 173.643 14.5557C174.085 14.4417 174.527 14.3848 174.969 14.3848C175.862 14.3848 176.523 14.583 176.951 14.9795C177.384 15.376 177.601 16.0117 177.601 16.8867V22H176.76ZM174.196 21.2002C174.903 21.2002 175.456 21.0065 175.857 20.6191C176.263 20.2318 176.466 19.6895 176.466 18.9922V18.3154L175.331 18.3633C174.429 18.3952 173.777 18.5365 173.376 18.7871C172.979 19.0332 172.781 19.4183 172.781 19.9424C172.781 20.3525 172.904 20.6647 173.15 20.8789C173.401 21.0931 173.75 21.2002 174.196 21.2002ZM179.781 21.2754C179.781 20.9701 179.85 20.7399 179.986 20.585C180.128 20.4255 180.328 20.3457 180.588 20.3457C180.852 20.3457 181.057 20.4255 181.203 20.585C181.354 20.7399 181.429 20.9701 181.429 21.2754C181.429 21.5716 181.354 21.7995 181.203 21.959C181.053 22.1185 180.848 22.1982 180.588 22.1982C180.355 22.1982 180.162 22.1276 180.007 21.9863C179.856 21.8405 179.781 21.6035 179.781 21.2754ZM183.514 21.2754C183.514 20.9701 183.582 20.7399 183.719 20.585C183.86 20.4255 184.061 20.3457 184.32 20.3457C184.585 20.3457 184.79 20.4255 184.936 20.585C185.086 20.7399 185.161 20.9701 185.161 21.2754C185.161 21.5716 185.086 21.7995 184.936 21.959C184.785 22.1185 184.58 22.1982 184.32 22.1982C184.088 22.1982 183.894 22.1276 183.739 21.9863C183.589 21.8405 183.514 21.6035 183.514 21.2754ZM187.246 21.2754C187.246 20.9701 187.314 20.7399 187.451 20.585C187.592 20.4255 187.793 20.3457 188.053 20.3457C188.317 20.3457 188.522 20.4255 188.668 20.585C188.818 20.7399 188.894 20.9701 188.894 21.2754C188.894 21.5716 188.818 21.7995 188.668 21.959C188.518 22.1185 188.312 22.1982 188.053 22.1982C187.82 22.1982 187.627 22.1276 187.472 21.9863C187.321 21.8405 187.246 21.6035 187.246 21.2754Z" fill="#393939"/>
<path fill-rule="evenodd" clip-rule="evenodd" d="M15.3861 7.71065C15.7472 7.42978 16.2528 7.42978 16.6139 7.71065L23.3639 12.9606C23.6075 13.1501 23.75 13.4414 23.75 13.75V22C23.75 22.663 23.4866 23.2989 23.0178 23.7678C22.5489 24.2366 21.913 24.5 21.25 24.5H10.75C10.087 24.5 9.45107 24.2366 8.98223 23.7678C8.51339 23.2989 8.25 22.663 8.25 22V13.75C8.25 13.4414 8.39247 13.1501 8.63606 12.9606L15.3861 7.71065ZM10.25 14.2391V22C10.25 22.1326 10.3027 22.2598 10.3964 22.3536C10.4902 22.4473 10.6174 22.5 10.75 22.5H21.25C21.3826 22.5 21.5098 22.4473 21.6036 22.3536C21.6973 22.2598 21.75 22.1326 21.75 22V14.2391L16 9.76686L10.25 14.2391Z" fill="#6C30F6"/>
<path fill-rule="evenodd" clip-rule="evenodd" d="M12.75 16C12.75 15.4477 13.1977 15 13.75 15H18.25C18.8023 15 19.25 15.4477 19.25 16V23.5C19.25 24.0523 18.8023 24.5 18.25 24.5C17.6977 24.5 17.25 24.0523 17.25 23.5V17H14.75V23.5C14.75 24.0523 14.3023 24.5 13.75 24.5C13.1977 24.5 12.75 24.0523 12.75 23.5V16Z" fill="#6C30F6"/>
<path fill-rule="evenodd" clip-rule="evenodd" d="M216.207 11.7929C216.598 12.1834 216.598 12.8166 216.207 13.2071L207.207 22.2071C206.817 22.5976 206.183 22.5976 205.793 22.2071C205.402 21.8166 205.402 21.1834 205.793 20.7929L214.793 11.7929C215.183 11.4024 215.817 11.4024 216.207 11.7929Z" fill="#6D7082"/>
<path fill-rule="evenodd" clip-rule="evenodd" d="M205.793 11.7929C206.183 11.4024 206.817 11.4024 207.207 11.7929L216.207 20.7929C216.598 21.1834 216.598 21.8166 216.207 22.2071C215.817 22.5976 215.183 22.5976 214.793 22.2071L205.793 13.2071C205.402 12.8166 205.402 12.1834 205.793 11.7929Z" fill="#6D7082"/>
</svg>
