<svg width="209" height="19" viewBox="0 0 209 19" fill="none" xmlns="http://www.w3.org/2000/svg">
<path fill-rule="evenodd" clip-rule="evenodd" d="M10.1482 0.582754C10.5554 0.759523 10.7974 1.18359 10.7423 1.62409L10.1328 6.50006H15.75C16.138 6.50006 16.491 6.72452 16.6556 7.0759C16.8202 7.42729 16.7666 7.84216 16.5182 8.14024L9.01823 17.1402C8.73404 17.4813 8.25903 17.5941 7.85182 17.4174C7.4446 17.2406 7.20267 16.8165 7.25773 16.376L7.86723 11.5001H2.25001C1.86199 11.5001 1.509 11.2756 1.34442 10.9242C1.17984 10.5728 1.23339 10.158 1.48179 9.85987L8.98179 0.859872C9.26599 0.518837 9.74099 0.405986 10.1482 0.582754ZM4.38505 9.50006H9.00001C9.28684 9.50006 9.55986 9.62322 9.74969 9.83825C9.93952 10.0533 10.0279 10.3395 9.99229 10.6241L9.66535 13.2396L13.615 8.50006H9.00001C8.71318 8.50006 8.44016 8.37689 8.25033 8.16186C8.06051 7.94683 7.97216 7.66064 8.00773 7.37602L8.33467 4.76051L4.38505 9.50006Z" fill="#FFA600"/>
<path d="M29.9922 4.8623C30.9036 4.8623 31.626 5.07422 32.1592 5.49805C32.6924 5.92188 32.959 6.50749 32.959 7.25488C32.959 7.74707 32.8063 8.19596 32.501 8.60156C32.1956 9.00716 31.708 9.3763 31.0381 9.70898C31.8493 10.0964 32.4258 10.5042 32.7676 10.9326C33.1094 11.3564 33.2803 11.8486 33.2803 12.4092C33.2803 13.2386 32.9909 13.9017 32.4121 14.3984C31.8333 14.8906 31.0404 15.1367 30.0332 15.1367C28.9668 15.1367 28.1465 14.9043 27.5723 14.4395C26.998 13.9701 26.7109 13.307 26.7109 12.4502C26.7109 11.3063 27.4082 10.4154 28.8027 9.77734C28.1738 9.42188 27.7227 9.03906 27.4492 8.62891C27.1758 8.21419 27.0391 7.75163 27.0391 7.24121C27.0391 6.5166 27.3057 5.9401 27.8389 5.51172C28.3766 5.07878 29.0944 4.8623 29.9922 4.8623ZM27.832 12.4775C27.832 13.0244 28.0212 13.4505 28.3994 13.7559C28.7822 14.0612 29.3177 14.2139 30.0059 14.2139C30.6849 14.2139 31.2135 14.0544 31.5918 13.7354C31.9701 13.4163 32.1592 12.9788 32.1592 12.4229C32.1592 11.9808 31.9814 11.5889 31.626 11.2471C31.2705 10.9007 30.6507 10.5658 29.7666 10.2422C29.0876 10.5339 28.5954 10.8574 28.29 11.2129C27.9847 11.5638 27.832 11.9854 27.832 12.4775ZM29.9785 5.78516C29.4089 5.78516 28.9622 5.92188 28.6387 6.19531C28.3151 6.46875 28.1533 6.83333 28.1533 7.28906C28.1533 7.70833 28.2878 8.06836 28.5566 8.36914C28.8255 8.66992 29.3223 8.9707 30.0469 9.27148C30.6986 8.99805 31.1589 8.7041 31.4277 8.38965C31.7012 8.0752 31.8379 7.70833 31.8379 7.28906C31.8379 6.82878 31.6715 6.46419 31.3389 6.19531C31.0107 5.92188 30.5573 5.78516 29.9785 5.78516ZM37.8193 8.89551C38.8721 8.89551 39.6992 9.15755 40.3008 9.68164C40.9069 10.2012 41.21 10.9144 41.21 11.8213C41.21 12.8558 40.8796 13.667 40.2188 14.2549C39.5625 14.8428 38.6556 15.1367 37.498 15.1367C36.3724 15.1367 35.5133 14.9567 34.9209 14.5967V13.5029C35.2399 13.708 35.6364 13.8698 36.1104 13.9883C36.5843 14.1022 37.0514 14.1592 37.5117 14.1592C38.3138 14.1592 38.9359 13.9701 39.3779 13.5918C39.8245 13.2135 40.0479 12.6667 40.0479 11.9512C40.0479 10.5566 39.1934 9.85938 37.4844 9.85938C37.0514 9.85938 36.4727 9.92546 35.748 10.0576L35.1602 9.68164L35.5361 5.00586H40.5059V6.05176H36.5068L36.2539 9.05273C36.778 8.94792 37.2998 8.89551 37.8193 8.89551ZM49.3311 9.98926C49.3311 11.7165 49.0576 13.0062 48.5107 13.8584C47.9684 14.7106 47.1367 15.1367 46.0156 15.1367C44.9401 15.1367 44.1221 14.7015 43.5615 13.8311C43.001 12.9561 42.7207 11.6755 42.7207 9.98926C42.7207 8.24837 42.9919 6.95638 43.5342 6.11328C44.0765 5.27018 44.9036 4.84863 46.0156 4.84863C47.1003 4.84863 47.9229 5.28841 48.4834 6.16797C49.0485 7.04753 49.3311 8.32129 49.3311 9.98926ZM43.8691 9.98926C43.8691 11.443 44.04 12.5026 44.3818 13.168C44.7236 13.8288 45.2682 14.1592 46.0156 14.1592C46.7721 14.1592 47.319 13.8242 47.6562 13.1543C47.998 12.4798 48.1689 11.4248 48.1689 9.98926C48.1689 8.55371 47.998 7.50326 47.6562 6.83789C47.319 6.16797 46.7721 5.83301 46.0156 5.83301C45.2682 5.83301 44.7236 6.16341 44.3818 6.82422C44.04 7.48047 43.8691 8.53548 43.8691 9.98926ZM57.2881 15H50.7188V14.0225L53.3506 11.377C54.1527 10.5658 54.6813 9.98698 54.9365 9.64062C55.1917 9.29427 55.3831 8.95703 55.5107 8.62891C55.6383 8.30078 55.7021 7.94759 55.7021 7.56934C55.7021 7.03613 55.5404 6.61458 55.2168 6.30469C54.8932 5.99023 54.4443 5.83301 53.8701 5.83301C53.4554 5.83301 53.0612 5.90137 52.6875 6.03809C52.3184 6.1748 51.9059 6.42318 51.4502 6.7832L50.8486 6.01074C51.7692 5.24512 52.7718 4.8623 53.8564 4.8623C54.7952 4.8623 55.5312 5.10384 56.0645 5.58691C56.5977 6.06543 56.8643 6.71029 56.8643 7.52148C56.8643 8.15495 56.6865 8.78158 56.3311 9.40137C55.9756 10.0212 55.3102 10.805 54.335 11.7529L52.1475 13.8926V13.9473H57.2881V15ZM69.3945 7.91797C69.3945 8.92969 69.0482 9.70898 68.3555 10.2559C67.6673 10.7982 66.6807 11.0693 65.3955 11.0693H64.2197V15H63.0576V5.00586H65.6484C68.1458 5.00586 69.3945 5.97656 69.3945 7.91797ZM64.2197 10.0713H65.2656C66.2956 10.0713 67.0407 9.90495 67.501 9.57227C67.9613 9.23958 68.1914 8.70638 68.1914 7.97266C68.1914 7.31185 67.9749 6.81966 67.542 6.49609C67.109 6.17253 66.4346 6.01074 65.5186 6.01074H64.2197V10.0713ZM74.7402 7.37109C75.0729 7.37109 75.3714 7.39844 75.6357 7.45312L75.4785 8.50586C75.1686 8.4375 74.8952 8.40332 74.6582 8.40332C74.0521 8.40332 73.5326 8.64941 73.0996 9.1416C72.6712 9.63379 72.457 10.2467 72.457 10.9805V15H71.3223V7.50781H72.2588L72.3887 8.89551H72.4434C72.7214 8.40788 73.0563 8.0319 73.4482 7.76758C73.8402 7.50326 74.2708 7.37109 74.7402 7.37109ZM80.2021 15.1367C79.0947 15.1367 78.2197 14.7995 77.5771 14.125C76.9391 13.4505 76.6201 12.514 76.6201 11.3154C76.6201 10.1077 76.9163 9.14844 77.5088 8.4375C78.1058 7.72656 78.9056 7.37109 79.9082 7.37109C80.847 7.37109 81.5898 7.68099 82.1367 8.30078C82.6836 8.91602 82.957 9.72949 82.957 10.7412V11.459H77.7959C77.8187 12.3385 78.0397 13.0062 78.459 13.4619C78.8828 13.9176 79.4775 14.1455 80.2432 14.1455C81.0498 14.1455 81.8473 13.9769 82.6357 13.6396V14.6514C82.2347 14.8245 81.8542 14.9476 81.4941 15.0205C81.1387 15.098 80.708 15.1367 80.2021 15.1367ZM79.8945 8.32129C79.293 8.32129 78.8122 8.51725 78.4521 8.90918C78.0967 9.30111 77.887 9.84342 77.8232 10.5361H81.7402C81.7402 9.82064 81.5807 9.27376 81.2617 8.89551C80.9427 8.5127 80.487 8.32129 79.8945 8.32129ZM89.7314 12.9561C89.7314 13.6533 89.4717 14.1911 88.9521 14.5693C88.4326 14.9476 87.7035 15.1367 86.7646 15.1367C85.7712 15.1367 84.9964 14.9795 84.4404 14.665V13.6123C84.8005 13.7946 85.1855 13.9382 85.5957 14.043C86.0104 14.1478 86.4092 14.2002 86.792 14.2002C87.3844 14.2002 87.8402 14.1068 88.1592 13.9199C88.4782 13.7285 88.6377 13.4391 88.6377 13.0518C88.6377 12.7601 88.5101 12.5117 88.2549 12.3066C88.0042 12.097 87.512 11.8509 86.7783 11.5684C86.0811 11.3086 85.5843 11.083 85.2881 10.8916C84.9964 10.6956 84.7777 10.4746 84.6318 10.2285C84.4906 9.98242 84.4199 9.68848 84.4199 9.34668C84.4199 8.736 84.6683 8.25521 85.165 7.9043C85.6618 7.54883 86.3431 7.37109 87.209 7.37109C88.0156 7.37109 88.804 7.53516 89.5742 7.86328L89.1709 8.78613C88.4189 8.47624 87.7376 8.32129 87.127 8.32129C86.5892 8.32129 86.1836 8.4056 85.9102 8.57422C85.6367 8.74284 85.5 8.97526 85.5 9.27148C85.5 9.47201 85.5501 9.6429 85.6504 9.78418C85.7552 9.92546 85.9215 10.0599 86.1494 10.1875C86.3773 10.3151 86.8148 10.4997 87.4619 10.7412C88.3506 11.0648 88.9499 11.3906 89.2598 11.7188C89.5742 12.0469 89.7314 12.4593 89.7314 12.9561ZM94.0039 14.2002C94.2044 14.2002 94.3981 14.1865 94.585 14.1592C94.7718 14.1273 94.9199 14.0954 95.0293 14.0635V14.9316C94.9062 14.9909 94.724 15.0387 94.4824 15.0752C94.2454 15.1162 94.0312 15.1367 93.8398 15.1367C92.3906 15.1367 91.666 14.3734 91.666 12.8467V8.38965H90.5928V7.84277L91.666 7.37109L92.1445 5.77148H92.8008V7.50781H94.9746V8.38965H92.8008V12.7988C92.8008 13.25 92.9079 13.5964 93.1221 13.8379C93.3363 14.0794 93.6302 14.2002 94.0039 14.2002ZM103 11.2471C103 12.4684 102.692 13.4232 102.077 14.1113C101.462 14.7949 100.612 15.1367 99.5273 15.1367C98.8574 15.1367 98.2627 14.9795 97.7432 14.665C97.2236 14.3506 96.8226 13.8994 96.54 13.3115C96.2575 12.7236 96.1162 12.0355 96.1162 11.2471C96.1162 10.0257 96.4215 9.07552 97.0322 8.39648C97.6429 7.71289 98.4906 7.37109 99.5752 7.37109C100.623 7.37109 101.455 7.71973 102.07 8.41699C102.69 9.11426 103 10.0576 103 11.2471ZM97.292 11.2471C97.292 12.2041 97.4834 12.9333 97.8662 13.4346C98.249 13.9359 98.8118 14.1865 99.5547 14.1865C100.298 14.1865 100.86 13.9382 101.243 13.4414C101.631 12.9401 101.824 12.2087 101.824 11.2471C101.824 10.2946 101.631 9.57227 101.243 9.08008C100.86 8.58333 100.293 8.33496 99.541 8.33496C98.7982 8.33496 98.2376 8.57878 97.8594 9.06641C97.4811 9.55404 97.292 10.2809 97.292 11.2471ZM110.123 15V10.1533C110.123 9.54264 109.984 9.08691 109.706 8.78613C109.428 8.48535 108.993 8.33496 108.4 8.33496C107.617 8.33496 107.042 8.54688 106.678 8.9707C106.313 9.39453 106.131 10.0941 106.131 11.0693V15H104.996V7.50781H105.919L106.104 8.5332H106.158C106.391 8.16406 106.716 7.87923 107.136 7.67871C107.555 7.47363 108.022 7.37109 108.537 7.37109C109.439 7.37109 110.118 7.58984 110.574 8.02734C111.03 8.46029 111.258 9.15527 111.258 10.1123V15H110.123ZM118.565 10.8438V15H117.403V5.00586H120.145C121.37 5.00586 122.275 5.24056 122.858 5.70996C123.446 6.17936 123.74 6.88574 123.74 7.8291C123.74 9.15072 123.07 10.0439 121.73 10.5088L124.444 15H123.07L120.65 10.8438H118.565ZM118.565 9.8457H120.158C120.979 9.8457 121.58 9.68392 121.963 9.36035C122.346 9.03223 122.537 8.54232 122.537 7.89062C122.537 7.22982 122.341 6.75358 121.949 6.46191C121.562 6.17025 120.938 6.02441 120.076 6.02441H118.565V9.8457ZM130.986 13.9951H130.925C130.401 14.7562 129.617 15.1367 128.573 15.1367C127.593 15.1367 126.83 14.8018 126.283 14.1318C125.741 13.4619 125.47 12.5094 125.47 11.2744C125.47 10.0394 125.743 9.08008 126.29 8.39648C126.837 7.71289 127.598 7.37109 128.573 7.37109C129.59 7.37109 130.369 7.74023 130.911 8.47852H131L130.952 7.93848L130.925 7.41211V4.36328H132.06V15H131.137L130.986 13.9951ZM128.717 14.1865C129.492 14.1865 130.052 13.9769 130.398 13.5576C130.749 13.1338 130.925 12.4525 130.925 11.5137V11.2744C130.925 10.2126 130.747 9.45605 130.392 9.00488C130.041 8.54915 129.478 8.32129 128.703 8.32129C128.038 8.32129 127.527 8.58105 127.172 9.10059C126.821 9.61556 126.646 10.3447 126.646 11.2881C126.646 12.2451 126.821 12.9674 127.172 13.4551C127.523 13.9427 128.038 14.1865 128.717 14.1865ZM134.309 14.2754C134.309 13.9701 134.377 13.7399 134.514 13.585C134.655 13.4255 134.855 13.3457 135.115 13.3457C135.38 13.3457 135.585 13.4255 135.73 13.585C135.881 13.7399 135.956 13.9701 135.956 14.2754C135.956 14.5716 135.881 14.7995 135.73 14.959C135.58 15.1185 135.375 15.1982 135.115 15.1982C134.883 15.1982 134.689 15.1276 134.534 14.9863C134.384 14.8405 134.309 14.6035 134.309 14.2754ZM142.013 15V5.00586H143.175V15H142.013ZM150.879 15V10.1533C150.879 9.54264 150.74 9.08691 150.462 8.78613C150.184 8.48535 149.749 8.33496 149.156 8.33496C148.372 8.33496 147.798 8.54688 147.434 8.9707C147.069 9.39453 146.887 10.0941 146.887 11.0693V15H145.752V7.50781H146.675L146.859 8.5332H146.914C147.146 8.16406 147.472 7.87923 147.892 7.67871C148.311 7.47363 148.778 7.37109 149.293 7.37109C150.195 7.37109 150.874 7.58984 151.33 8.02734C151.786 8.46029 152.014 9.15527 152.014 10.1123V15H150.879ZM160.483 7.50781V8.22559L159.096 8.38965C159.223 8.54915 159.337 8.75879 159.438 9.01855C159.538 9.27376 159.588 9.56315 159.588 9.88672C159.588 10.6204 159.337 11.2061 158.836 11.6436C158.335 12.0811 157.646 12.2998 156.771 12.2998C156.548 12.2998 156.339 12.2816 156.143 12.2451C155.66 12.5003 155.418 12.8216 155.418 13.209C155.418 13.4141 155.502 13.5667 155.671 13.667C155.84 13.7627 156.129 13.8105 156.539 13.8105H157.865C158.676 13.8105 159.299 13.9814 159.731 14.3232C160.169 14.665 160.388 15.1618 160.388 15.8135C160.388 16.6429 160.055 17.2741 159.39 17.707C158.724 18.1445 157.754 18.3633 156.478 18.3633C155.498 18.3633 154.741 18.181 154.208 17.8164C153.679 17.4518 153.415 16.9368 153.415 16.2715C153.415 15.8158 153.561 15.4215 153.853 15.0889C154.144 14.7562 154.554 14.5306 155.083 14.4121C154.892 14.3255 154.73 14.1911 154.598 14.0088C154.47 13.8265 154.406 13.6146 154.406 13.373C154.406 13.0996 154.479 12.8604 154.625 12.6553C154.771 12.4502 155.001 12.252 155.315 12.0605C154.928 11.901 154.611 11.6299 154.365 11.2471C154.124 10.8643 154.003 10.4268 154.003 9.93457C154.003 9.11426 154.249 8.48307 154.741 8.04102C155.233 7.5944 155.931 7.37109 156.833 7.37109C157.225 7.37109 157.578 7.41667 157.893 7.50781H160.483ZM154.509 16.2578C154.509 16.6634 154.68 16.971 155.021 17.1807C155.363 17.3903 155.853 17.4951 156.491 17.4951C157.444 17.4951 158.148 17.3516 158.604 17.0645C159.064 16.7819 159.294 16.3968 159.294 15.9092C159.294 15.5036 159.169 15.221 158.918 15.0615C158.667 14.9066 158.196 14.8291 157.503 14.8291H156.143C155.628 14.8291 155.227 14.9521 154.939 15.1982C154.652 15.4443 154.509 15.7975 154.509 16.2578ZM155.124 9.90723C155.124 10.4313 155.272 10.8278 155.568 11.0967C155.865 11.3656 156.277 11.5 156.806 11.5C157.913 11.5 158.467 10.9622 158.467 9.88672C158.467 8.76107 157.906 8.19824 156.785 8.19824C156.252 8.19824 155.842 8.3418 155.555 8.62891C155.268 8.91602 155.124 9.34212 155.124 9.90723ZM163.156 15H162.021V4.36328H163.156V15ZM168.728 15.1367C167.62 15.1367 166.745 14.7995 166.103 14.125C165.465 13.4505 165.146 12.514 165.146 11.3154C165.146 10.1077 165.442 9.14844 166.034 8.4375C166.631 7.72656 167.431 7.37109 168.434 7.37109C169.372 7.37109 170.115 7.68099 170.662 8.30078C171.209 8.91602 171.482 9.72949 171.482 10.7412V11.459H166.321C166.344 12.3385 166.565 13.0062 166.984 13.4619C167.408 13.9176 168.003 14.1455 168.769 14.1455C169.575 14.1455 170.373 13.9769 171.161 13.6396V14.6514C170.76 14.8245 170.38 14.9476 170.02 15.0205C169.664 15.098 169.233 15.1367 168.728 15.1367ZM168.42 8.32129C167.818 8.32129 167.338 8.51725 166.978 8.90918C166.622 9.30111 166.412 9.84342 166.349 10.5361H170.266C170.266 9.82064 170.106 9.27376 169.787 8.89551C169.468 8.5127 169.012 8.32129 168.42 8.32129ZM179.542 15L178.168 10.6045C178.081 10.3356 177.92 9.72493 177.683 8.77246H177.628C177.446 9.56999 177.286 10.1852 177.149 10.6182L175.734 15H174.422L172.378 7.50781H173.567C174.05 9.38997 174.417 10.8232 174.668 11.8076C174.923 12.792 175.069 13.4551 175.105 13.7969H175.16C175.21 13.5371 175.29 13.2021 175.399 12.792C175.513 12.3773 175.611 12.0492 175.693 11.8076L177.067 7.50781H178.298L179.638 11.8076C179.893 12.5915 180.066 13.25 180.157 13.7832H180.212C180.23 13.6191 180.278 13.3662 180.355 13.0244C180.438 12.6826 180.914 10.8438 181.784 7.50781H182.96L180.889 15H179.542ZM190.787 11.2471C190.787 12.4684 190.479 13.4232 189.864 14.1113C189.249 14.7949 188.399 15.1367 187.314 15.1367C186.645 15.1367 186.05 14.9795 185.53 14.665C185.011 14.3506 184.61 13.8994 184.327 13.3115C184.045 12.7236 183.903 12.0355 183.903 11.2471C183.903 10.0257 184.209 9.07552 184.819 8.39648C185.43 7.71289 186.278 7.37109 187.362 7.37109C188.41 7.37109 189.242 7.71973 189.857 8.41699C190.477 9.11426 190.787 10.0576 190.787 11.2471ZM185.079 11.2471C185.079 12.2041 185.271 12.9333 185.653 13.4346C186.036 13.9359 186.599 14.1865 187.342 14.1865C188.085 14.1865 188.647 13.9382 189.03 13.4414C189.418 12.9401 189.611 12.2087 189.611 11.2471C189.611 10.2946 189.418 9.57227 189.03 9.08008C188.647 8.58333 188.08 8.33496 187.328 8.33496C186.585 8.33496 186.025 8.57878 185.646 9.06641C185.268 9.55404 185.079 10.2809 185.079 11.2471ZM199.25 11.2471C199.25 12.4684 198.942 13.4232 198.327 14.1113C197.712 14.7949 196.862 15.1367 195.777 15.1367C195.107 15.1367 194.513 14.9795 193.993 14.665C193.474 14.3506 193.073 13.8994 192.79 13.3115C192.507 12.7236 192.366 12.0355 192.366 11.2471C192.366 10.0257 192.672 9.07552 193.282 8.39648C193.893 7.71289 194.741 7.37109 195.825 7.37109C196.873 7.37109 197.705 7.71973 198.32 8.41699C198.94 9.11426 199.25 10.0576 199.25 11.2471ZM193.542 11.2471C193.542 12.2041 193.733 12.9333 194.116 13.4346C194.499 13.9359 195.062 14.1865 195.805 14.1865C196.548 14.1865 197.11 13.9382 197.493 13.4414C197.881 12.9401 198.074 12.2087 198.074 11.2471C198.074 10.2946 197.881 9.57227 197.493 9.08008C197.11 8.58333 196.543 8.33496 195.791 8.33496C195.048 8.33496 194.488 8.57878 194.109 9.06641C193.731 9.55404 193.542 10.2809 193.542 11.2471ZM206.346 13.9951H206.284C205.76 14.7562 204.976 15.1367 203.933 15.1367C202.953 15.1367 202.189 14.8018 201.643 14.1318C201.1 13.4619 200.829 12.5094 200.829 11.2744C200.829 10.0394 201.103 9.08008 201.649 8.39648C202.196 7.71289 202.957 7.37109 203.933 7.37109C204.949 7.37109 205.728 7.74023 206.271 8.47852H206.359L206.312 7.93848L206.284 7.41211V4.36328H207.419V15H206.496L206.346 13.9951ZM204.076 14.1865C204.851 14.1865 205.411 13.9769 205.758 13.5576C206.109 13.1338 206.284 12.4525 206.284 11.5137V11.2744C206.284 10.2126 206.106 9.45605 205.751 9.00488C205.4 8.54915 204.837 8.32129 204.062 8.32129C203.397 8.32129 202.887 8.58105 202.531 9.10059C202.18 9.61556 202.005 10.3447 202.005 11.2881C202.005 12.2451 202.18 12.9674 202.531 13.4551C202.882 13.9427 203.397 14.1865 204.076 14.1865Z" fill="#393939"/>
</svg>
