<svg width="247" height="19" viewBox="0 0 247 19" fill="none" xmlns="http://www.w3.org/2000/svg">
<path fill-rule="evenodd" clip-rule="evenodd" d="M10.1482 0.582754C10.5554 0.759523 10.7974 1.18359 10.7423 1.62409L10.1328 6.50006H15.75C16.138 6.50006 16.491 6.72452 16.6556 7.0759C16.8202 7.42729 16.7666 7.84216 16.5182 8.14024L9.01823 17.1402C8.73404 17.4813 8.25903 17.5941 7.85182 17.4174C7.4446 17.2406 7.20267 16.8165 7.25773 16.376L7.86723 11.5001H2.25001C1.86199 11.5001 1.509 11.2756 1.34442 10.9242C1.17984 10.5728 1.23339 10.158 1.48179 9.85987L8.98179 0.859872C9.26599 0.518837 9.74099 0.405986 10.1482 0.582754ZM4.38505 9.50006H9.00001C9.28684 9.50006 9.55986 9.62322 9.74969 9.83825C9.93952 10.0533 10.0279 10.3395 9.99229 10.6241L9.66535 13.2396L13.615 8.50006H9.00001C8.71318 8.50006 8.44016 8.37689 8.25033 8.16186C8.06051 7.94683 7.97216 7.66064 8.00773 7.37602L8.33467 4.76051L4.38505 9.50006Z" fill="#FFA600"/>
<path d="M38.9883 9.90723C38.9883 11.557 38.5394 12.8193 37.6416 13.6943C36.7484 14.5648 35.4609 15 33.7793 15H31.0107V5.00586H34.0732C35.6273 5.00586 36.835 5.43652 37.6963 6.29785C38.5576 7.15918 38.9883 8.3623 38.9883 9.90723ZM37.7578 9.94824C37.7578 8.64486 37.4297 7.66276 36.7734 7.00195C36.1217 6.34115 35.151 6.01074 33.8613 6.01074H32.1729V13.9951H33.5879C34.9733 13.9951 36.0146 13.6556 36.7119 12.9766C37.4092 12.293 37.7578 11.2835 37.7578 9.94824ZM44.4707 7.37109C44.8034 7.37109 45.1019 7.39844 45.3662 7.45312L45.209 8.50586C44.8991 8.4375 44.6257 8.40332 44.3887 8.40332C43.7826 8.40332 43.263 8.64941 42.8301 9.1416C42.4017 9.63379 42.1875 10.2467 42.1875 10.9805V15H41.0527V7.50781H41.9893L42.1191 8.89551H42.1738C42.4518 8.40788 42.7868 8.0319 43.1787 7.76758C43.5706 7.50326 44.0013 7.37109 44.4707 7.37109ZM46.6035 14.2754C46.6035 13.9701 46.6719 13.7399 46.8086 13.585C46.9499 13.4255 47.1504 13.3457 47.4102 13.3457C47.6745 13.3457 47.8796 13.4255 48.0254 13.585C48.1758 13.7399 48.251 13.9701 48.251 14.2754C48.251 14.5716 48.1758 14.7995 48.0254 14.959C47.875 15.1185 47.6699 15.1982 47.4102 15.1982C47.1777 15.1982 46.984 15.1276 46.8291 14.9863C46.6787 14.8405 46.6035 14.6035 46.6035 14.2754ZM59.9473 12.3408C59.9473 13.2204 59.6283 13.9062 58.9902 14.3984C58.3522 14.8906 57.4863 15.1367 56.3926 15.1367C55.2077 15.1367 54.2962 14.984 53.6582 14.6787V13.5576C54.0684 13.7308 54.515 13.8675 54.998 13.9678C55.4811 14.068 55.9596 14.1182 56.4336 14.1182C57.2083 14.1182 57.7917 13.9723 58.1836 13.6807C58.5755 13.3844 58.7715 12.9743 58.7715 12.4502C58.7715 12.1038 58.7008 11.8213 58.5596 11.6025C58.4229 11.3792 58.1904 11.1742 57.8623 10.9873C57.5387 10.8005 57.0443 10.5885 56.3789 10.3516C55.4492 10.0189 54.7839 9.62467 54.3828 9.16895C53.9863 8.71322 53.7881 8.11849 53.7881 7.38477C53.7881 6.61458 54.0775 6.00163 54.6562 5.5459C55.235 5.09017 56.0007 4.8623 56.9531 4.8623C57.9466 4.8623 58.8604 5.0446 59.6943 5.40918L59.332 6.4209C58.5072 6.07454 57.7051 5.90137 56.9258 5.90137C56.3105 5.90137 55.8298 6.03353 55.4834 6.29785C55.137 6.56217 54.9639 6.92904 54.9639 7.39844C54.9639 7.74479 55.0277 8.02962 55.1553 8.25293C55.2829 8.47168 55.4971 8.67448 55.7979 8.86133C56.1032 9.04362 56.568 9.24642 57.1924 9.46973C58.2406 9.84342 58.9606 10.2445 59.3525 10.6729C59.749 11.1012 59.9473 11.6572 59.9473 12.3408ZM66.4277 15L66.2021 13.9336H66.1475C65.7738 14.403 65.4001 14.722 65.0264 14.8906C64.6572 15.0547 64.1947 15.1367 63.6387 15.1367C62.8958 15.1367 62.3125 14.9453 61.8887 14.5625C61.4694 14.1797 61.2598 13.6351 61.2598 12.9287C61.2598 11.4157 62.4697 10.6227 64.8896 10.5498L66.1611 10.5088V10.0439C66.1611 9.45605 66.0335 9.02311 65.7783 8.74512C65.5277 8.46257 65.1243 8.32129 64.5684 8.32129C63.944 8.32129 63.2376 8.5127 62.4492 8.89551L62.1006 8.02734C62.4697 7.82682 62.873 7.6696 63.3105 7.55566C63.7526 7.44173 64.1947 7.38477 64.6367 7.38477C65.5299 7.38477 66.1908 7.58301 66.6191 7.97949C67.0521 8.37598 67.2686 9.01172 67.2686 9.88672V15H66.4277ZM63.8643 14.2002C64.5706 14.2002 65.1243 14.0065 65.5254 13.6191C65.931 13.2318 66.1338 12.6895 66.1338 11.9922V11.3154L64.999 11.3633C64.0967 11.3952 63.445 11.5365 63.0439 11.7871C62.6475 12.0332 62.4492 12.4183 62.4492 12.9424C62.4492 13.3525 62.5723 13.6647 62.8184 13.8789C63.069 14.0931 63.4176 14.2002 63.8643 14.2002ZM74.7402 15V10.1533C74.7402 9.54264 74.6012 9.08691 74.3232 8.78613C74.0452 8.48535 73.61 8.33496 73.0176 8.33496C72.2337 8.33496 71.6595 8.54688 71.2949 8.9707C70.9303 9.39453 70.748 10.0941 70.748 11.0693V15H69.6133V7.50781H70.5361L70.7207 8.5332H70.7754C71.0078 8.16406 71.3337 7.87923 71.7529 7.67871C72.1722 7.47363 72.6393 7.37109 73.1543 7.37109C74.0566 7.37109 74.7357 7.58984 75.1914 8.02734C75.6471 8.46029 75.875 9.15527 75.875 10.1123V15H74.7402ZM80.5645 17.6318C80.1361 17.6318 79.7988 17.5703 79.5527 17.4473V16.4561C79.8763 16.5472 80.2135 16.5928 80.5645 16.5928C81.0156 16.5928 81.3574 16.4561 81.5898 16.1826C81.8268 15.9092 81.9453 15.515 81.9453 15V5.00586H83.1074V14.9043C83.1074 15.7702 82.8887 16.4401 82.4512 16.9141C82.0137 17.3926 81.3848 17.6318 80.5645 17.6318ZM92.0625 11.2471C92.0625 12.4684 91.7549 13.4232 91.1396 14.1113C90.5244 14.7949 89.6745 15.1367 88.5898 15.1367C87.9199 15.1367 87.3252 14.9795 86.8057 14.665C86.2861 14.3506 85.8851 13.8994 85.6025 13.3115C85.32 12.7236 85.1787 12.0355 85.1787 11.2471C85.1787 10.0257 85.484 9.07552 86.0947 8.39648C86.7054 7.71289 87.5531 7.37109 88.6377 7.37109C89.6859 7.37109 90.5176 7.71973 91.1328 8.41699C91.7526 9.11426 92.0625 10.0576 92.0625 11.2471ZM86.3545 11.2471C86.3545 12.2041 86.5459 12.9333 86.9287 13.4346C87.3115 13.9359 87.8743 14.1865 88.6172 14.1865C89.36 14.1865 89.9229 13.9382 90.3057 13.4414C90.693 12.9401 90.8867 12.2087 90.8867 11.2471C90.8867 10.2946 90.693 9.57227 90.3057 9.08008C89.9229 8.58333 89.3555 8.33496 88.6035 8.33496C87.8607 8.33496 87.3001 8.57878 86.9219 9.06641C86.5436 9.55404 86.3545 10.2809 86.3545 11.2471ZM98.8916 12.9561C98.8916 13.6533 98.6318 14.1911 98.1123 14.5693C97.5928 14.9476 96.8636 15.1367 95.9248 15.1367C94.9313 15.1367 94.1566 14.9795 93.6006 14.665V13.6123C93.9606 13.7946 94.3457 13.9382 94.7559 14.043C95.1706 14.1478 95.5693 14.2002 95.9521 14.2002C96.5446 14.2002 97.0003 14.1068 97.3193 13.9199C97.6383 13.7285 97.7979 13.4391 97.7979 13.0518C97.7979 12.7601 97.6702 12.5117 97.415 12.3066C97.1644 12.097 96.6722 11.8509 95.9385 11.5684C95.2412 11.3086 94.7445 11.083 94.4482 10.8916C94.1566 10.6956 93.9378 10.4746 93.792 10.2285C93.6507 9.98242 93.5801 9.68848 93.5801 9.34668C93.5801 8.736 93.8285 8.25521 94.3252 7.9043C94.8219 7.54883 95.5033 7.37109 96.3691 7.37109C97.1758 7.37109 97.9642 7.53516 98.7344 7.86328L98.3311 8.78613C97.5791 8.47624 96.8978 8.32129 96.2871 8.32129C95.7493 8.32129 95.3438 8.4056 95.0703 8.57422C94.7969 8.74284 94.6602 8.97526 94.6602 9.27148C94.6602 9.47201 94.7103 9.6429 94.8105 9.78418C94.9154 9.92546 95.0817 10.0599 95.3096 10.1875C95.5374 10.3151 95.9749 10.4997 96.6221 10.7412C97.5107 11.0648 98.11 11.3906 98.4199 11.7188C98.7344 12.0469 98.8916 12.4593 98.8916 12.9561ZM103.909 15.1367C102.802 15.1367 101.927 14.7995 101.284 14.125C100.646 13.4505 100.327 12.514 100.327 11.3154C100.327 10.1077 100.623 9.14844 101.216 8.4375C101.813 7.72656 102.613 7.37109 103.615 7.37109C104.554 7.37109 105.297 7.68099 105.844 8.30078C106.391 8.91602 106.664 9.72949 106.664 10.7412V11.459H101.503C101.526 12.3385 101.747 13.0062 102.166 13.4619C102.59 13.9176 103.185 14.1455 103.95 14.1455C104.757 14.1455 105.554 13.9769 106.343 13.6396V14.6514C105.942 14.8245 105.561 14.9476 105.201 15.0205C104.846 15.098 104.415 15.1367 103.909 15.1367ZM103.602 8.32129C103 8.32129 102.519 8.51725 102.159 8.90918C101.804 9.30111 101.594 9.84342 101.53 10.5361H105.447C105.447 9.82064 105.288 9.27376 104.969 8.89551C104.65 8.5127 104.194 8.32129 103.602 8.32129ZM109.795 13.373L109.897 13.5303C109.779 13.986 109.608 14.5146 109.385 15.1162C109.161 15.7223 108.929 16.2852 108.688 16.8047H107.833C107.956 16.3307 108.09 15.7451 108.236 15.0479C108.387 14.3506 108.492 13.7923 108.551 13.373H109.795ZM121.484 12.3408C121.484 13.2204 121.165 13.9062 120.527 14.3984C119.889 14.8906 119.023 15.1367 117.93 15.1367C116.745 15.1367 115.833 14.984 115.195 14.6787V13.5576C115.605 13.7308 116.052 13.8675 116.535 13.9678C117.018 14.068 117.497 14.1182 117.971 14.1182C118.745 14.1182 119.329 13.9723 119.721 13.6807C120.113 13.3844 120.309 12.9743 120.309 12.4502C120.309 12.1038 120.238 11.8213 120.097 11.6025C119.96 11.3792 119.728 11.1742 119.399 10.9873C119.076 10.8005 118.581 10.5885 117.916 10.3516C116.986 10.0189 116.321 9.62467 115.92 9.16895C115.523 8.71322 115.325 8.11849 115.325 7.38477C115.325 6.61458 115.615 6.00163 116.193 5.5459C116.772 5.09017 117.538 4.8623 118.49 4.8623C119.484 4.8623 120.397 5.0446 121.231 5.40918L120.869 6.4209C120.044 6.07454 119.242 5.90137 118.463 5.90137C117.848 5.90137 117.367 6.03353 117.021 6.29785C116.674 6.56217 116.501 6.92904 116.501 7.39844C116.501 7.74479 116.565 8.02962 116.692 8.25293C116.82 8.47168 117.034 8.67448 117.335 8.86133C117.64 9.04362 118.105 9.24642 118.729 9.46973C119.778 9.84342 120.498 10.2445 120.89 10.6729C121.286 11.1012 121.484 11.6572 121.484 12.3408ZM129.824 11.2471C129.824 12.4684 129.517 13.4232 128.901 14.1113C128.286 14.7949 127.436 15.1367 126.352 15.1367C125.682 15.1367 125.087 14.9795 124.567 14.665C124.048 14.3506 123.647 13.8994 123.364 13.3115C123.082 12.7236 122.94 12.0355 122.94 11.2471C122.94 10.0257 123.246 9.07552 123.856 8.39648C124.467 7.71289 125.315 7.37109 126.399 7.37109C127.448 7.37109 128.279 7.71973 128.895 8.41699C129.514 9.11426 129.824 10.0576 129.824 11.2471ZM124.116 11.2471C124.116 12.2041 124.308 12.9333 124.69 13.4346C125.073 13.9359 125.636 14.1865 126.379 14.1865C127.122 14.1865 127.685 13.9382 128.067 13.4414C128.455 12.9401 128.648 12.2087 128.648 11.2471C128.648 10.2946 128.455 9.57227 128.067 9.08008C127.685 8.58333 127.117 8.33496 126.365 8.33496C125.622 8.33496 125.062 8.57878 124.684 9.06641C124.305 9.55404 124.116 10.2809 124.116 11.2471ZM132.887 7.50781V12.3682C132.887 12.9788 133.026 13.4346 133.304 13.7354C133.582 14.0361 134.017 14.1865 134.609 14.1865C135.393 14.1865 135.965 13.9723 136.325 13.5439C136.69 13.1156 136.872 12.416 136.872 11.4453V7.50781H138.007V15H137.07L136.906 13.9951H136.845C136.612 14.3643 136.289 14.6468 135.874 14.8428C135.464 15.0387 134.994 15.1367 134.466 15.1367C133.554 15.1367 132.871 14.9202 132.415 14.4873C131.964 14.0544 131.738 13.3617 131.738 12.4092V7.50781H132.887ZM142.84 14.2002C143.04 14.2002 143.234 14.1865 143.421 14.1592C143.608 14.1273 143.756 14.0954 143.865 14.0635V14.9316C143.742 14.9909 143.56 15.0387 143.318 15.0752C143.081 15.1162 142.867 15.1367 142.676 15.1367C141.227 15.1367 140.502 14.3734 140.502 12.8467V8.38965H139.429V7.84277L140.502 7.37109L140.98 5.77148H141.637V7.50781H143.811V8.38965H141.637V12.7988C141.637 13.25 141.744 13.5964 141.958 13.8379C142.172 14.0794 142.466 14.2002 142.84 14.2002ZM150.496 15V10.1533C150.496 9.54264 150.357 9.08691 150.079 8.78613C149.801 8.48535 149.366 8.33496 148.773 8.33496C147.985 8.33496 147.409 8.54915 147.044 8.97754C146.684 9.40592 146.504 10.1077 146.504 11.083V15H145.369V4.36328H146.504V7.58301C146.504 7.97038 146.486 8.29167 146.449 8.54688H146.518C146.741 8.18685 147.058 7.9043 147.468 7.69922C147.882 7.48958 148.354 7.38477 148.883 7.38477C149.799 7.38477 150.485 7.60352 150.94 8.04102C151.401 8.47396 151.631 9.16439 151.631 10.1123V15H150.496ZM165.754 9.90723C165.754 11.557 165.305 12.8193 164.407 13.6943C163.514 14.5648 162.227 15 160.545 15H157.776V5.00586H160.839C162.393 5.00586 163.601 5.43652 164.462 6.29785C165.323 7.15918 165.754 8.3623 165.754 9.90723ZM164.523 9.94824C164.523 8.64486 164.195 7.66276 163.539 7.00195C162.887 6.34115 161.917 6.01074 160.627 6.01074H158.938V13.9951H160.354C161.739 13.9951 162.78 13.6556 163.478 12.9766C164.175 12.293 164.523 11.2835 164.523 9.94824ZM172.426 15L172.2 13.9336H172.146C171.772 14.403 171.398 14.722 171.024 14.8906C170.655 15.0547 170.193 15.1367 169.637 15.1367C168.894 15.1367 168.311 14.9453 167.887 14.5625C167.467 14.1797 167.258 13.6351 167.258 12.9287C167.258 11.4157 168.468 10.6227 170.888 10.5498L172.159 10.5088V10.0439C172.159 9.45605 172.032 9.02311 171.776 8.74512C171.526 8.46257 171.122 8.32129 170.566 8.32129C169.942 8.32129 169.236 8.5127 168.447 8.89551L168.099 8.02734C168.468 7.82682 168.871 7.6696 169.309 7.55566C169.751 7.44173 170.193 7.38477 170.635 7.38477C171.528 7.38477 172.189 7.58301 172.617 7.97949C173.05 8.37598 173.267 9.01172 173.267 9.88672V15H172.426ZM169.862 14.2002C170.569 14.2002 171.122 14.0065 171.523 13.6191C171.929 13.2318 172.132 12.6895 172.132 11.9922V11.3154L170.997 11.3633C170.095 11.3952 169.443 11.5365 169.042 11.7871C168.646 12.0332 168.447 12.4183 168.447 12.9424C168.447 13.3525 168.57 13.6647 168.816 13.8789C169.067 14.0931 169.416 14.2002 169.862 14.2002ZM176.732 11.165C176.928 10.887 177.227 10.5225 177.628 10.0713L180.048 7.50781H181.395L178.359 10.7002L181.606 15H180.232L177.587 11.459L176.732 12.1973V15H175.611V4.36328H176.732V10.0029C176.732 10.2536 176.714 10.641 176.678 11.165H176.732ZM189.434 11.2471C189.434 12.4684 189.126 13.4232 188.511 14.1113C187.896 14.7949 187.046 15.1367 185.961 15.1367C185.291 15.1367 184.696 14.9795 184.177 14.665C183.657 14.3506 183.256 13.8994 182.974 13.3115C182.691 12.7236 182.55 12.0355 182.55 11.2471C182.55 10.0257 182.855 9.07552 183.466 8.39648C184.076 7.71289 184.924 7.37109 186.009 7.37109C187.057 7.37109 187.889 7.71973 188.504 8.41699C189.124 9.11426 189.434 10.0576 189.434 11.2471ZM183.726 11.2471C183.726 12.2041 183.917 12.9333 184.3 13.4346C184.683 13.9359 185.245 14.1865 185.988 14.1865C186.731 14.1865 187.294 13.9382 187.677 13.4414C188.064 12.9401 188.258 12.2087 188.258 11.2471C188.258 10.2946 188.064 9.57227 187.677 9.08008C187.294 8.58333 186.727 8.33496 185.975 8.33496C185.232 8.33496 184.671 8.57878 184.293 9.06641C183.915 9.55404 183.726 10.2809 183.726 11.2471ZM193.85 14.2002C194.05 14.2002 194.244 14.1865 194.431 14.1592C194.618 14.1273 194.766 14.0954 194.875 14.0635V14.9316C194.752 14.9909 194.57 15.0387 194.328 15.0752C194.091 15.1162 193.877 15.1367 193.686 15.1367C192.236 15.1367 191.512 14.3734 191.512 12.8467V8.38965H190.438V7.84277L191.512 7.37109L191.99 5.77148H192.646V7.50781H194.82V8.38965H192.646V12.7988C192.646 13.25 192.754 13.5964 192.968 13.8379C193.182 14.0794 193.476 14.2002 193.85 14.2002ZM200.986 15L200.761 13.9336H200.706C200.332 14.403 199.959 14.722 199.585 14.8906C199.216 15.0547 198.753 15.1367 198.197 15.1367C197.454 15.1367 196.871 14.9453 196.447 14.5625C196.028 14.1797 195.818 13.6351 195.818 12.9287C195.818 11.4157 197.028 10.6227 199.448 10.5498L200.72 10.5088V10.0439C200.72 9.45605 200.592 9.02311 200.337 8.74512C200.086 8.46257 199.683 8.32129 199.127 8.32129C198.503 8.32129 197.796 8.5127 197.008 8.89551L196.659 8.02734C197.028 7.82682 197.432 7.6696 197.869 7.55566C198.311 7.44173 198.753 7.38477 199.195 7.38477C200.089 7.38477 200.749 7.58301 201.178 7.97949C201.611 8.37598 201.827 9.01172 201.827 9.88672V15H200.986ZM198.423 14.2002C199.129 14.2002 199.683 14.0065 200.084 13.6191C200.49 13.2318 200.692 12.6895 200.692 11.9922V11.3154L199.558 11.3633C198.655 11.3952 198.004 11.5365 197.603 11.7871C197.206 12.0332 197.008 12.4183 197.008 12.9424C197.008 13.3525 197.131 13.6647 197.377 13.8789C197.628 14.0931 197.976 14.2002 198.423 14.2002ZM210.598 4.8623C211.509 4.8623 212.231 5.07422 212.765 5.49805C213.298 5.92188 213.564 6.50749 213.564 7.25488C213.564 7.74707 213.412 8.19596 213.106 8.60156C212.801 9.00716 212.313 9.3763 211.644 9.70898C212.455 10.0964 213.031 10.5042 213.373 10.9326C213.715 11.3564 213.886 11.8486 213.886 12.4092C213.886 13.2386 213.596 13.9017 213.018 14.3984C212.439 14.8906 211.646 15.1367 210.639 15.1367C209.572 15.1367 208.752 14.9043 208.178 14.4395C207.604 13.9701 207.316 13.307 207.316 12.4502C207.316 11.3063 208.014 10.4154 209.408 9.77734C208.779 9.42188 208.328 9.03906 208.055 8.62891C207.781 8.21419 207.645 7.75163 207.645 7.24121C207.645 6.5166 207.911 5.9401 208.444 5.51172C208.982 5.07878 209.7 4.8623 210.598 4.8623ZM208.438 12.4775C208.438 13.0244 208.627 13.4505 209.005 13.7559C209.388 14.0612 209.923 14.2139 210.611 14.2139C211.29 14.2139 211.819 14.0544 212.197 13.7354C212.576 13.4163 212.765 12.9788 212.765 12.4229C212.765 11.9808 212.587 11.5889 212.231 11.2471C211.876 10.9007 211.256 10.5658 210.372 10.2422C209.693 10.5339 209.201 10.8574 208.896 11.2129C208.59 11.5638 208.438 11.9854 208.438 12.4775ZM210.584 5.78516C210.014 5.78516 209.568 5.92188 209.244 6.19531C208.921 6.46875 208.759 6.83333 208.759 7.28906C208.759 7.70833 208.893 8.06836 209.162 8.36914C209.431 8.66992 209.928 8.9707 210.652 9.27148C211.304 8.99805 211.764 8.7041 212.033 8.38965C212.307 8.0752 212.443 7.70833 212.443 7.28906C212.443 6.82878 212.277 6.46419 211.944 6.19531C211.616 5.92188 211.163 5.78516 210.584 5.78516ZM221.494 7.35742C221.494 7.99544 221.314 8.51725 220.954 8.92285C220.599 9.32845 220.093 9.59961 219.437 9.73633V9.79102C220.239 9.89128 220.833 10.1465 221.221 10.5566C221.608 10.9668 221.802 11.5046 221.802 12.1699C221.802 13.1224 221.471 13.8561 220.811 14.3711C220.15 14.8815 219.211 15.1367 217.994 15.1367C217.465 15.1367 216.98 15.0957 216.538 15.0137C216.101 14.9362 215.674 14.7972 215.26 14.5967V13.5166C215.693 13.7308 216.153 13.8949 216.641 14.0088C217.133 14.1182 217.598 14.1729 218.035 14.1729C219.762 14.1729 220.626 13.4961 220.626 12.1426C220.626 10.9303 219.674 10.3242 217.769 10.3242H216.784V9.34668H217.782C218.562 9.34668 219.179 9.17578 219.635 8.83398C220.09 8.48763 220.318 8.00911 220.318 7.39844C220.318 6.91081 220.15 6.52799 219.812 6.25C219.48 5.97201 219.026 5.83301 218.452 5.83301C218.015 5.83301 217.602 5.89225 217.215 6.01074C216.827 6.12923 216.385 6.34798 215.889 6.66699L215.314 5.90137C215.725 5.5778 216.196 5.32487 216.729 5.14258C217.267 4.95573 217.832 4.8623 218.425 4.8623C219.396 4.8623 220.15 5.08561 220.688 5.53223C221.225 5.97428 221.494 6.58268 221.494 7.35742ZM230.354 12.7031H228.87V15H227.783V12.7031H222.923V11.7119L227.667 4.95117H228.87V11.6709H230.354V12.7031ZM227.783 11.6709V8.34863C227.783 7.69694 227.806 6.96094 227.852 6.14062H227.797C227.578 6.57812 227.373 6.94043 227.182 7.22754L224.058 11.6709H227.783ZM232.589 15L236.731 6.05176H231.283V5.00586H237.935V5.91504L233.847 15H232.589ZM242.46 8.89551C243.513 8.89551 244.34 9.15755 244.941 9.68164C245.548 10.2012 245.851 10.9144 245.851 11.8213C245.851 12.8558 245.52 13.667 244.859 14.2549C244.203 14.8428 243.296 15.1367 242.139 15.1367C241.013 15.1367 240.154 14.9567 239.562 14.5967V13.5029C239.881 13.708 240.277 13.8698 240.751 13.9883C241.225 14.1022 241.692 14.1592 242.152 14.1592C242.954 14.1592 243.576 13.9701 244.019 13.5918C244.465 13.2135 244.688 12.6667 244.688 11.9512C244.688 10.5566 243.834 9.85938 242.125 9.85938C241.692 9.85938 241.113 9.92546 240.389 10.0576L239.801 9.68164L240.177 5.00586H245.146V6.05176H241.147L240.895 9.05273C241.419 8.94792 241.94 8.89551 242.46 8.89551Z" fill="#393939"/>
</svg>
